<svg xmlns="http://www.w3.org/2000/svg" width="469" viewBox="0 0 351.75 385.5" height="514"
    version="1.2">
    <defs>
        <clipPath id="a">
            <path d="M3.184 13.043h344.543v368.746H3.184Zm0 0" />
        </clipPath>
        <clipPath id="b">
            <path d="M3.188 13.043H347.48v368.48H3.188Zm0 0" />
        </clipPath>
        <clipPath id="c">
            <path d="M342.867 10.16h7.942v7.942h-7.942Zm0 0" />
        </clipPath>
        <clipPath id="d">
            <path d="M342.867 376.73h7.942v7.942h-7.942Zm0 0" />
        </clipPath>
        <clipPath id="e">
            <path d="M.102 376.73h7.941v7.942H.102Zm0 0" />
        </clipPath>
        <clipPath id="f">
            <path d="M.102 10.16h7.941v7.942H.102Zm0 0" />
        </clipPath>
        <clipPath id="g">
            <path d="M22.855 73.184H338v235.261H22.855Zm0 0" />
        </clipPath>
        <clipPath id="h">
            <path
                d="M40.082 73.184h280.2a17.23 17.23 0 0 1 17.23 17.226v200.805a17.23 17.23 0 0 1-17.23 17.23h-280.2a17.23 17.23 0 0 1-17.227-17.23V90.41a17.225 17.225 0 0 1 17.227-17.227m0 0" />
        </clipPath>
        <clipPath id="i">
            <path d="M44.2 122.035h243.1v73.563H44.2Zm0 0" />
        </clipPath>
        <clipPath id="j">
            <path
                d="M48.691 122.035h233.98a4.497 4.497 0 0 1 4.497 4.492v64.578a4.497 4.497 0 0 1-4.496 4.492H48.692a4.48 4.48 0 0 1-3.176-1.316 4.5 4.5 0 0 1-1.317-3.176v-64.578c0-1.191.473-2.336 1.317-3.175a4.48 4.48 0 0 1 3.175-1.317m0 0" />
        </clipPath>
        <clipPath id="l">
            <path d="M0 0h184v13H0z" />
        </clipPath>
        <clipPath id="n">
            <path d="M238.145 323.805h99.41v44.18h-99.41Zm0 0" />
        </clipPath>
        <clipPath id="o">
            <path
                d="M242.64 323.805h90.376a4.497 4.497 0 0 1 4.496 4.496v35.191a4.5 4.5 0 0 1-4.496 4.492H242.64a4.497 4.497 0 0 1-4.496-4.492v-35.191a4.497 4.497 0 0 1 4.496-4.496m0 0" />
        </clipPath>
        <clipPath id="r">
            <path d="M.223.168H8V9H.223Zm0 0" />
        </clipPath>
        <clipPath id="s">
            <path d="M32 .168h3V9h-3Zm0 0" />
        </clipPath>
        <clipPath id="t">
            <path d="M49 .168h5V9h-5Zm0 0" />
        </clipPath>
        <clipPath id="u">
            <path d="M78 .168h4V9h-4Zm0 0" />
        </clipPath>
        <clipPath id="v">
            <path d="M94 .168h9V9h-9Zm0 0" />
        </clipPath>
        <clipPath id="w">
            <path d="M108 .168h4V9h-4Zm0 0" />
        </clipPath>
        <clipPath id="x">
            <path d="M124 .168h5V9h-5Zm0 0" />
        </clipPath>
        <clipPath id="y">
            <path d="M127 .168h6V9h-6Zm0 0" />
        </clipPath>
        <clipPath id="z">
            <path d="M147 .168h4V9h-4Zm0 0" />
        </clipPath>
        <clipPath id="A">
            <path d="M173 .168h5.793V9H173Zm0 0" />
        </clipPath>
        <clipPath id="B">
            <path d="M.223 15H5v9H.223Zm0 0" />
        </clipPath>
        <clipPath id="q">
            <path d="M0 0h179v28H0z" />
        </clipPath>
        <filter x="0%" y="0%" width="100%" filterUnits="objectBoundingBox" id="m" height="100%">
            <feColorMatrix values="0 0 0 0 1 0 0 0 0 1 0 0 0 0 1 0 0 0 1 0" in="SourceGraphic" />
        </filter>
    </defs>
    <g clip-path="url(#a)">
        <path style="stroke:none;fill-rule:nonzero;fill:#171717;fill-opacity:1"
            d="M3.184 13.043h344.543v368.77H3.184Zm0 0" />
    </g>
    <g clip-path="url(#b)">
        <path
            style="fill:none;stroke-width:.943198;stroke-linecap:butt;stroke-linejoin:miter;stroke:#0f70a2;stroke-opacity:1;stroke-miterlimit:4"
            d="M0 0h216.92v232.156H0Zm0 0" transform="translate(3.186 13.044)scale(1.5872)" />
    </g>
    <g clip-path="url(#c)">
        <path
            style="fill-rule:nonzero;fill:#d0ffff;fill-opacity:1;stroke-width:.471599;stroke-linecap:butt;stroke-linejoin:miter;stroke:#0064e0;stroke-opacity:1;stroke-miterlimit:4"
            d="M.001 0h5v5h-5Zm0 0" transform="translate(342.866 10.16)scale(1.58827)" />
    </g>
    <g clip-path="url(#d)">
        <path
            style="fill-rule:nonzero;fill:#d0ffff;fill-opacity:1;stroke-width:.471599;stroke-linecap:butt;stroke-linejoin:miter;stroke:#0064e0;stroke-opacity:1;stroke-miterlimit:4"
            d="M.001-.001h5v5h-5Zm0 0" transform="translate(342.866 376.732)scale(1.58827)" />
    </g>
    <g clip-path="url(#e)">
        <path
            style="fill-rule:nonzero;fill:#d0ffff;fill-opacity:1;stroke-width:.471599;stroke-linecap:butt;stroke-linejoin:miter;stroke:#0064e0;stroke-opacity:1;stroke-miterlimit:4"
            d="M0-.001h5v5H0Zm0 0" transform="translate(.103 376.732)scale(1.58827)" />
    </g>
    <g clip-path="url(#f)">
        <path
            style="fill-rule:nonzero;fill:#d0ffff;fill-opacity:1;stroke-width:.471599;stroke-linecap:butt;stroke-linejoin:miter;stroke:#0064e0;stroke-opacity:1;stroke-miterlimit:4"
            d="M0 0h5v5H0Zm0 0" transform="translate(.103 10.16)scale(1.58827)" />
    </g>
    <g clip-path="url(#g)">
        <g clip-path="url(#h)">
            <path style="stroke:none;fill-rule:nonzero;fill:#232323;fill-opacity:1"
                d="M22.855 73.184h314.293v235.261H22.855Zm0 0" />
        </g>
    </g>
    <g clip-path="url(#i)">
        <g clip-path="url(#j)">
            <path style="stroke:none;fill-rule:nonzero;fill:#171717;fill-opacity:1"
                d="M44.2 122.035h243.1v73.563H44.2Zm0 0" />
        </g>
    </g>
    <g style="fill:#5da6ff;fill-opacity:1">
        <path style="stroke:none"
            d="M10.531 0H8.25l-.828-2.531H3.219L2.39 0H.17l3.782-10.969h2.781ZM5.22-8.687 3.812-4.36h3.016L5.406-8.687Zm0 0"
            transform="translate(30.584 49.631)" />
        <path style="stroke:none" d="M3.594 0H1.422v-10.969h2.172Zm0 0"
            transform="translate(41.286 49.631)" />
        <g transform="translate(46.318 49.631)" />
        <path style="stroke:none"
            d="M10.531 0H8.25l-.828-2.531H3.219L2.39 0H.17l3.782-10.969h2.781ZM5.22-8.687 3.812-4.36h3.016L5.406-8.687Zm0 0"
            transform="translate(49.945 49.631)" />
        <path style="stroke:none"
            d="M3.875.156A6.2 6.2 0 0 1 2.313-.03a4 4 0 0 1-1.204-.547C.773-.816.531-1.086.375-1.391l1.156-1.25h.157q.42.563.984.844.562.268 1.219.266.608 0 .906-.203a.72.72 0 0 0 .312-.625.7.7 0 0 0-.218-.532q-.222-.215-.72-.343l-1.093-.25q-1.235-.295-1.797-.907Q.72-4.998.72-5.92q0-.781.39-1.345.388-.574 1.11-.875.715-.294 1.672-.296 1.106 0 1.843.328.748.315 1.157.859L5.78-6.047h-.156a2.1 2.1 0 0 0-.781-.562 2.3 2.3 0 0 0-.953-.188q-1.236.002-1.235.766c0 .21.07.383.219.515q.233.205.813.329l1.03.234q1.249.268 1.829.875.593.598.594 1.594c0 .523-.133.984-.391 1.39-.262.399-.637.703-1.125.922q-.737.328-1.75.328m0 0"
            transform="translate(60.648 49.631)" />
        <path style="stroke:none"
            d="M3.875.156A6.2 6.2 0 0 1 2.313-.03a4 4 0 0 1-1.204-.547C.773-.816.531-1.086.375-1.391l1.156-1.25h.157q.42.563.984.844.562.268 1.219.266.608 0 .906-.203a.72.72 0 0 0 .312-.625.7.7 0 0 0-.218-.532q-.222-.215-.72-.343l-1.093-.25q-1.235-.295-1.797-.907Q.72-4.998.72-5.92q0-.781.39-1.345.388-.574 1.11-.875.715-.294 1.672-.296 1.106 0 1.843.328.748.315 1.157.859L5.78-6.047h-.156a2.1 2.1 0 0 0-.781-.562 2.3 2.3 0 0 0-.953-.188q-1.236.002-1.235.766c0 .21.07.383.219.515q.233.205.813.329l1.03.234q1.249.268 1.829.875.593.598.594 1.594c0 .523-.133.984-.391 1.39-.262.399-.637.703-1.125.922q-.737.328-1.75.328m0 0"
            transform="translate(68.286 49.631)" />
        <path style="stroke:none"
            d="M2.234-9.266q-.563.001-.921-.343-.345-.34-.344-.891-.001-.529.344-.875.358-.342.921-.344.376.001.657.172.293.157.453.438.17.27.172.609a1.21 1.21 0 0 1-.625 1.078 1.3 1.3 0 0 1-.657.156M1.188 0v-8.281h2.078V0Zm0 0"
            transform="translate(75.924 49.631)" />
        <path style="stroke:none"
            d="M3.875.156A6.2 6.2 0 0 1 2.313-.03a4 4 0 0 1-1.204-.547C.773-.816.531-1.086.375-1.391l1.156-1.25h.157q.42.563.984.844.562.268 1.219.266.608 0 .906-.203a.72.72 0 0 0 .312-.625.7.7 0 0 0-.218-.532q-.222-.215-.72-.343l-1.093-.25q-1.235-.295-1.797-.907Q.72-4.998.72-5.92q0-.781.39-1.345.388-.574 1.11-.875.715-.294 1.672-.296 1.106 0 1.843.328.748.315 1.157.859L5.78-6.047h-.156a2.1 2.1 0 0 0-.781-.562 2.3 2.3 0 0 0-.953-.188q-1.236.002-1.235.766c0 .21.07.383.219.515q.233.205.813.329l1.03.234q1.249.268 1.829.875.593.598.594 1.594c0 .523-.133.984-.391 1.39-.262.399-.637.703-1.125.922q-.737.328-1.75.328m0 0"
            transform="translate(80.385 49.631)" />
        <path style="stroke:none"
            d="M5.719-1.969 6.25-.437q-.328.282-.844.437Q4.89.154 4.25.156c-.898 0-1.578-.242-2.047-.734q-.688-.731-.687-2.125v-3.938H.25v-1.64h1.266v-1.625l2.078-.328v1.953h2.344v1.64H3.594v3.782q-.001.625.25.906.246.28.75.281.545 0 .968-.297Zm0 0"
            transform="translate(88.023 49.631)" />
        <path style="stroke:none"
            d="M3.234.156q-.797 0-1.39-.281a2.16 2.16 0 0 1-.907-.86c-.21-.382-.312-.843-.312-1.374q-.002-.732.313-1.235.327-.497.984-.812.656-.327 1.734-.5c.489-.07.864-.157 1.125-.25q.387-.153.516-.328a.76.76 0 0 0 .14-.47q0-.387-.28-.593-.283-.218-.923-.219-.69.001-1.312.313-.627.299-1.078.812h-.157L.814-6.953A4.4 4.4 0 0 1 2.36-8.047a5 5 0 0 1 1.985-.39q1.638 0 2.375.703.733.69.734 1.968v3.61q-.001.549.484.547.188 0 .375-.063l.11.031.14 1.454A1.7 1.7 0 0 1 8.079 0q-.298.062-.672.063-.736 0-1.156-.282c-.281-.195-.48-.5-.594-.906L5.5-1.141C5.094-.273 4.336.156 3.234.156m.657-1.547c.476 0 .859-.16 1.14-.484q.437-.48.438-1.36v-.828l-.14-.03q-.19.141-.5.25-.299.093-.86.187-.692.127-.985.406-.297.269-.296.766c0 .355.101.625.312.812q.329.281.89.281m0 0"
            transform="translate(94.46 49.631)" />
        <path style="stroke:none"
            d="M1.188 0v-8.281h2v1.219l.156.03q.781-1.405 2.515-1.405 1.435 0 2.11.78c.445.524.672 1.282.672 2.282V0H6.547v-5.125q0-.824-.328-1.187-.33-.375-1.047-.375-.909.002-1.406.578-.502.58-.5 1.828V0Zm0 0"
            transform="translate(103.194 49.631)" />
    </g>
    <g style="fill:#5da6ff;fill-opacity:1">
        <path style="stroke:none"
            d="M5.719-1.969 6.25-.437q-.328.282-.844.437Q4.89.154 4.25.156c-.898 0-1.578-.242-2.047-.734q-.688-.731-.687-2.125v-3.938H.25v-1.64h1.266v-1.625l2.078-.328v1.953h2.344v1.64H3.594v3.782q-.001.625.25.906.246.28.75.281.545 0 .968-.297Zm0 0"
            transform="translate(112.837 49.631)" />
    </g>
    <g style="fill:#ff3131;fill-opacity:1">
        <path style="stroke:none"
            d="M6.078-8.016a.7.7 0 0 1-.14.157.26.26 0 0 1-.157.046.5.5 0 0 1-.265-.109 3 3 0 0 0-.391-.25 2.6 2.6 0 0 0-.547-.25 2.2 2.2 0 0 0-.781-.125q-.421.001-.75.125-.328.112-.563.313a1.3 1.3 0 0 0-.328.468q-.11.268-.11.579 0 .392.188.656c.133.18.305.328.516.453.219.125.46.234.734.328q.406.13.829.281.434.14.843.328c.27.118.508.266.719.454q.328.281.516.687c.132.273.203.602.203.984q0 .627-.219 1.172-.205.55-.61.953a2.9 2.9 0 0 1-1 .641 3.7 3.7 0 0 1-1.343.234q-.94 0-1.703-.328c-.5-.226-.93-.535-1.281-.922l.375-.609a.4.4 0 0 1 .125-.11.3.3 0 0 1 .171-.062q.077 0 .188.078c.07.043.156.102.25.172.094.074.195.152.312.234q.186.13.407.235.233.112.53.172.294.063.657.062c.3 0 .57-.039.813-.125q.357-.122.609-.343a1.55 1.55 0 0 0 .375-.547c.094-.22.14-.457.14-.72 0-.28-.07-.515-.202-.702a1.4 1.4 0 0 0-.516-.453 3.5 3.5 0 0 0-.719-.313c-.273-.094-.555-.18-.844-.266a10 10 0 0 1-.828-.312 3.1 3.1 0 0 1-.734-.469 2.3 2.3 0 0 1-.516-.718Q.844-6.373.844-7q0-.499.187-.969a2.5 2.5 0 0 1 .578-.828c.25-.25.555-.445.922-.594a3.4 3.4 0 0 1 1.25-.218 4.1 4.1 0 0 1 1.453.25c.438.168.82.414 1.157.734Zm0 0"
            transform="translate(61.25 148.779)" />
    </g>
    <g style="fill:#ff3131;fill-opacity:1">
        <path style="stroke:none"
            d="m6.734-6.719-3.75 8.703a.7.7 0 0 1-.156.204c-.055.062-.14.093-.265.093h-.876L2.907-.39.14-6.719h1.015a.4.4 0 0 1 .25.078q.093.08.125.172l1.797 4.235c.063.18.117.37.172.578a8 8 0 0 1 .203-.594l1.75-4.219a.3.3 0 0 1 .125-.172.33.33 0 0 1 .219-.078Zm0 0"
            transform="translate(68.101 148.779)" />
    </g>
    <g style="fill:#ff3131;fill-opacity:1">
        <path style="stroke:none"
            d="M4.844-5.61a.26.26 0 0 1-.235.141.5.5 0 0 1-.234-.062 5 5 0 0 0-.312-.172 2 2 0 0 0-.438-.156 2 2 0 0 0-.594-.079q-.298.001-.531.079-.235.063-.406.203a.85.85 0 0 0-.266.312.9.9 0 0 0-.078.375q0 .268.14.438.155.175.391.297c.164.086.352.156.563.218q.312.096.64.204c.22.074.43.156.641.25q.311.128.547.328.246.205.406.5a1.4 1.4 0 0 1 .156.672q0 .47-.171.874a2 2 0 0 1-.5.688 2.4 2.4 0 0 1-.797.453A3.5 3.5 0 0 1 2.688.11Q1.982.108 1.406-.109a3.4 3.4 0 0 1-.968-.594l.28-.453a.5.5 0 0 1 .126-.14.35.35 0 0 1 .187-.048q.122 0 .25.094.14.095.328.219.186.11.454.203c.187.055.414.078.687.078.227 0 .426-.023.594-.078q.263-.094.437-.25a1 1 0 0 0 .25-.344 1 1 0 0 0 .094-.422.72.72 0 0 0-.156-.468 1.1 1.1 0 0 0-.39-.313 4 4 0 0 0-.563-.219q-.314-.093-.641-.203-.328-.105-.656-.234a2.4 2.4 0 0 1-.563-.344 1.8 1.8 0 0 1-.39-.516q-.141-.293-.141-.734-.001-.388.156-.734.154-.357.453-.625.31-.264.75-.422.452-.171 1.032-.172.655 0 1.187.219.53.205.906.562Zm0 0"
            transform="translate(74.82 148.779)" />
    </g>
    <g style="fill:#ff3131;fill-opacity:1">
        <path style="stroke:none"
            d="M3 .11q-.798 0-1.234-.438-.423-.451-.422-1.297v-4.11H.53a.26.26 0 0 1-.172-.062q-.08-.058-.078-.187v-.47l1.11-.14.265-2.078a.28.28 0 0 1 .078-.172.32.32 0 0 1 .204-.062h.593v2.312h1.94v.86H2.53v4.03q0 .424.203.642.202.204.532.203a.9.9 0 0 0 .312-.047q.14-.061.235-.11c.07-.039.128-.078.171-.109q.078-.061.125-.062.093 0 .172.125l.344.562q-.315.283-.75.453A2.6 2.6 0 0 1 3 .11m0 0"
            transform="translate(80.562 148.779)" />
    </g>
    <g style="fill:#ff3131;fill-opacity:1">
        <path style="stroke:none"
            d="M5.438-4.094q-.001-.405-.125-.75a1.6 1.6 0 0 0-.344-.593 1.5 1.5 0 0 0-.532-.375q-.315-.141-.718-.141-.861.001-1.36.5-.486.486-.609 1.36ZM6.39-.937q-.223.27-.532.468-.299.188-.656.313-.344.129-.719.187-.361.062-.734.063-.69 0-1.281-.235a2.9 2.9 0 0 1-1.016-.687A3.3 3.3 0 0 1 .78-1.953Q.547-2.621.547-3.5c0-.469.07-.906.219-1.312q.215-.609.625-1.047.404-.452.984-.703.574-.265 1.313-.266.607.002 1.109.203.515.206.89.594.373.375.594.937.218.563.219 1.266-.002.28-.062.375-.065.094-.235.094H1.72q.013.643.172 1.109c.101.313.25.578.437.797q.281.316.656.469.388.157.875.156.435.001.75-.11a5 5 0 0 0 .563-.218 9 9 0 0 0 .39-.219.5.5 0 0 1 .266-.11c.094 0 .172.04.234.11Zm0 0"
            transform="translate(85.284 148.779)" />
    </g>
    <g style="fill:#ff3131;fill-opacity:1">
        <path style="stroke:none"
            d="M.938 0v-6.719h.703q.248.002.312.25l.094.688c.25-.301.523-.551.828-.75a2 2 0 0 1 1.078-.297c.445 0 .813.133 1.094.39q.421.376.61 1.016c.093-.25.218-.46.374-.64a2.4 2.4 0 0 1 .516-.438q.279-.169.594-.25.326-.077.672-.078.527 0 .937.172.422.173.703.5c.195.21.344.476.438.797.101.312.156.672.156 1.078V0H8.859v-4.281q-.002-.779-.343-1.188-.345-.422-1-.422c-.188 0-.371.04-.547.11a1.4 1.4 0 0 0-.469.312 1.5 1.5 0 0 0-.312.5q-.111.3-.11.688V0H4.891v-4.281q0-.81-.328-1.203-.332-.406-.954-.407c-.293 0-.562.086-.812.25A2.7 2.7 0 0 0 2.125-5v5Zm0 0"
            transform="translate(92.287 148.779)" />
    </g>
    <g mask="url(#k)" transform="translate(61 165)">
        <g clip-path="url(#l)">
            <g style="fill:#fff;fill-opacity:1">
                <path style="stroke:none"
                    d="M2.813-7.828q.374 0 .656.078.281.081.562.203l.282.094a.8.8 0 0 0 .25.047q.263 0 .421-.422h.22v2.547h-.22a2.4 2.4 0 0 0-.343-1.078q-.3-.48-.735-.75a1.7 1.7 0 0 0-.937-.282 1.4 1.4 0 0 0-.938.329q-.39.327-.39.796-.001.551.53.938c.25.187.602.414 1.063.672q.591.361 1 .64.405.269.75.579.31.3.485.687.187.393.187.797 0 .581-.312 1.062-.315.488-.86.782a2.5 2.5 0 0 1-1.171.28q-.424 0-.735-.077c-.21-.055-.43-.114-.656-.188q-.392-.14-.578-.14-.3 0-.453.406H.688v-2.578H.89q.188.985.75 1.578.562.58 1.453.578.638.001 1.047-.344.421-.358.422-.875c0-.176-.04-.336-.11-.484a1.6 1.6 0 0 0-.328-.484 5 5 0 0 0-.61-.485 32 32 0 0 0-1.03-.656q-.552-.328-.844-.516a3.4 3.4 0 0 1-.422-.343A1.94 1.94 0 0 1 .64-5.844q0-.543.28-1 .295-.45.782-.718.481-.265 1.11-.266m0 0"
                    transform="translate(.932 9.08)" />
            </g>
            <g style="fill:#fff;fill-opacity:1">
                <path style="stroke:none"
                    d="M3.172-5.297q.655 0 1.234.36.577.345.907.937.341.582.343 1.25 0 .785-.375 1.453-.363.658-.984 1.063a2.42 2.42 0 0 1-2.562.047 2.7 2.7 0 0 1-.907-.954A2.63 2.63 0 0 1 .5-2.437c0-.508.117-.985.36-1.422q.375-.656.984-1.047a2.5 2.5 0 0 1 1.328-.39M1.5-2.89q-.001.657.203 1.266.217.611.61 1 .387.392.921.39.639 0 1.032-.562c.257-.375.39-.867.39-1.484q-.001-.732-.218-1.328-.223-.61-.625-.953a1.4 1.4 0 0 0-.922-.344q-.628 0-1.016.547-.375.55-.375 1.468m0 0"
                    transform="translate(7.084 9.08)" />
            </g>
            <g style="fill:#fff;fill-opacity:1">
                <path style="stroke:none"
                    d="M1.406-1.11q.388 0 .64.329.266.315.267.797c0 .437-.137.804-.407 1.109q-.41.452-1.218.734v-.203q.639-.221.921-.625.296-.409.297-.812A.27.27 0 0 0 1.86.047a.15.15 0 0 0-.125-.063.5.5 0 0 0-.187.079.44.44 0 0 1-.266.093.57.57 0 0 1-.422-.172.56.56 0 0 1-.171-.421Q.687-.718.89-.907a.74.74 0 0 1 .515-.202m0 0"
                    transform="translate(12.836 9.08)" />
            </g>
            <g transform="translate(15.856 9.08)" style="fill:#fff;fill-opacity:1" />
            <g style="fill:#fff;fill-opacity:1">
                <path style="stroke:none"
                    d="M1.844-6.812h.187v1.64h1.172v.344H2.031v3.594a.9.9 0 0 0 .156.515q.17.235.47.235a.7.7 0 0 0 .359-.094q.154-.094.343-.328h.22q-.299.532-.626.797-.329.264-.781.265a.96.96 0 0 1-.781-.36q-.282-.356-.282-.983v-3.641H.33v-.219q.56-.232.952-.687.387-.451.563-1.078m0 0"
                    transform="translate(18.643 9.08)" />
            </g>
            <g style="fill:#fff;fill-opacity:1">
                <path style="stroke:none"
                    d="M2.625-5.297q.856.002 1.39.578.547.579.548 1.516h-3.5v.14q0 .598.234 1.141.234.535.656.875.435.328.969.328 1.062.001 1.484-1.187l.157.093c-.118.606-.36 1.086-.735 1.438A1.84 1.84 0 0 1 2.5.156Q1.92.154 1.422-.14.919-.45.609-1.047.312-1.656.313-2.5q0-.825.28-1.453c.196-.426.47-.754.813-.985q.528-.358 1.219-.359m-.312.39q-.471 0-.813.376-.346.363-.406.984h2.328c-.024-.406-.125-.734-.313-.984q-.281-.375-.796-.375m0 0"
                    transform="translate(22.354 9.08)" />
            </g>
            <g style="fill:#fff;fill-opacity:1">
                <path style="stroke:none"
                    d="M2.016-7.984v6.812c0 .375.05.633.156.766q.17.204.594.203V0H.25v-.203q.31 0 .484-.063a.46.46 0 0 0 .282-.265q.093-.219.093-.64v-5.266c0-.5-.18-.75-.53-.75a.5.5 0 0 0-.25.062L.25-7.312l1.563-.672Zm0 0"
                    transform="translate(27.069 9.08)" />
            </g>
            <g style="fill:#fff;fill-opacity:1">
                <path style="stroke:none"
                    d="M2.016-7.984v6.812c0 .375.05.633.156.766q.17.204.594.203V0H.25v-.203q.31 0 .484-.063a.46.46 0 0 0 .282-.265q.093-.219.093-.64v-5.266c0-.5-.18-.75-.53-.75a.5.5 0 0 0-.25.062L.25-7.312l1.563-.672Zm0 0"
                    transform="translate(30.09 9.08)" />
            </g>
            <g transform="translate(33.11 9.08)" style="fill:#fff;fill-opacity:1" />
            <g style="fill:#fff;fill-opacity:1">
                <path style="stroke:none"
                    d="M1.953-5.297v1.063q.95-1.062 1.735-1.063c.343 0 .624.102.843.297.219.188.367.465.453.828q.843-1.125 1.844-1.125c.477 0 .82.18 1.031.531.22.344.329.743.329 1.188v2.39c0 .293.023.508.078.641q.091.205.265.281.186.064.5.063V0H6.406v-.203q.34 0 .516-.063c.125-.039.21-.129.266-.265q.093-.216.093-.672v-2.469a1.02 1.02 0 0 0-.234-.672q-.234-.28-.656-.281c-.243 0-.485.063-.735.188q-.376.188-.625.5l.032.656v2.094q0 .44.093.64.092.205.266.281.17.064.5.063V0h-2.64v-.203q.34 0 .515-.063c.125-.039.21-.129.265-.265q.094-.218.094-.656v-2.407q0-.387-.234-.703-.223-.328-.656-.328-.3.001-.641.172-.344.158-.672.516v2.75q-.002.58.172.78.186.205.578.204h.078V0H.171v-.203q.341 0 .517-.063c.125-.039.21-.129.265-.265q.077-.218.078-.656v-2.641a.9.9 0 0 0-.14-.516Q.763-4.56.484-4.562a1 1 0 0 0-.312.046l-.078-.187 1.672-.594Zm0 0"
                    transform="translate(35.896 9.08)" />
            </g>
            <g style="fill:#fff;fill-opacity:1">
                <path style="stroke:none"
                    d="M2.625-5.297q.856.002 1.39.578.547.579.548 1.516h-3.5v.14q0 .598.234 1.141.234.535.656.875.435.328.969.328 1.062.001 1.484-1.187l.157.093c-.118.606-.36 1.086-.735 1.438A1.84 1.84 0 0 1 2.5.156Q1.92.154 1.422-.14.919-.45.609-1.047.312-1.656.313-2.5q0-.825.28-1.453c.196-.426.47-.754.813-.985q.528-.358 1.219-.359m-.312.39q-.471 0-.813.376-.346.363-.406.984h2.328c-.024-.406-.125-.734-.313-.984q-.281-.375-.796-.375m0 0"
                    transform="translate(45.069 9.08)" />
            </g>
            <g transform="translate(49.95 9.08)" style="fill:#fff;fill-opacity:1" />
            <g style="fill:#fff;fill-opacity:1">
                <path style="stroke:none"
                    d="M2-4.203h.031q.36-.498.828-.797c.313-.195.618-.297.922-.297q.656.001 1 .5.342.504.344 1.219v2.39c0 .282.023.497.078.641q.092.205.266.281.17.064.5.063V0H3.39v-.203a1.4 1.4 0 0 0 .468-.063.47.47 0 0 0 .266-.265q.094-.218.094-.656V-3.72a.92.92 0 0 0-.235-.625q-.234-.264-.656-.265-.346.002-.656.156-.298.157-.672.531v2.735c0 .292.023.511.078.656a.46.46 0 0 0 .281.265q.187.064.532.063V0H.28v-.203a1.4 1.4 0 0 0 .47-.063Q.918-.34 1-.562q.094-.217.094-.625v-5.235q-.002-.468-.157-.625a.47.47 0 0 0-.359-.156.6.6 0 0 0-.297.078L.22-7.312l1.594-.672H2Zm0 0"
                    transform="translate(52.737 9.08)" />
            </g>
            <g style="fill:#fff;fill-opacity:1">
                <path style="stroke:none"
                    d="M3.172-5.297q.655 0 1.234.36.577.345.907.937.341.582.343 1.25 0 .785-.375 1.453-.363.658-.984 1.063a2.42 2.42 0 0 1-2.562.047 2.7 2.7 0 0 1-.907-.954A2.63 2.63 0 0 1 .5-2.437c0-.508.117-.985.36-1.422q.375-.656.984-1.047a2.5 2.5 0 0 1 1.328-.39M1.5-2.89q-.001.657.203 1.266.217.611.61 1 .387.392.921.39.639 0 1.032-.562c.257-.375.39-.867.39-1.484q-.001-.732-.218-1.328-.223-.61-.625-.953a1.4 1.4 0 0 0-.922-.344q-.628 0-1.016.547-.375.55-.375 1.468m0 0"
                    transform="translate(58.89 9.08)" />
            </g>
            <g style="fill:#fff;fill-opacity:1">
                <path style="stroke:none"
                    d="M2.156-4.969q-.469.018-.469.375-.001.188.125.469L2.86-1.25l1.079-2.406-.266-.672q-.157-.387-.297-.516-.141-.124-.516-.125v-.203h2.36v.203q-.626.001-.625.407 0 .19.062.343l1.094 2.89.906-2.374.094-.235q.095-.233.14-.39a1 1 0 0 0 .048-.234c0-.157-.047-.258-.141-.313q-.142-.075-.453-.094v-.203h1.531v.203a.5.5 0 0 0-.36.219q-.14.189-.374.813L5.594.14h-.219l-1.25-3.297L2.656.14h-.219l-1.468-4a7 7 0 0 0-.281-.672.9.9 0 0 0-.22-.328.5.5 0 0 0-.327-.11v-.203h2.015Zm0 0"
                    transform="translate(64.741 9.08)" />
            </g>
            <g transform="translate(72.755 9.08)" style="fill:#fff;fill-opacity:1" />
            <g style="fill:#fff;fill-opacity:1">
                <path style="stroke:none"
                    d="M1.844-6.812h.187v1.64h1.172v.344H2.031v3.594a.9.9 0 0 0 .156.515q.17.235.47.235a.7.7 0 0 0 .359-.094q.154-.094.343-.328h.22q-.299.532-.626.797-.329.264-.781.265a.96.96 0 0 1-.781-.36q-.282-.356-.282-.983v-3.641H.33v-.219q.56-.232.952-.687.387-.451.563-1.078m0 0"
                    transform="translate(75.541 9.08)" />
            </g>
            <g style="fill:#fff;fill-opacity:1">
                <path style="stroke:none"
                    d="M3.172-5.297q.655 0 1.234.36.577.345.907.937.341.582.343 1.25 0 .785-.375 1.453-.363.658-.984 1.063a2.42 2.42 0 0 1-2.562.047 2.7 2.7 0 0 1-.907-.954A2.63 2.63 0 0 1 .5-2.437c0-.508.117-.985.36-1.422q.375-.656.984-1.047a2.5 2.5 0 0 1 1.328-.39M1.5-2.89q-.001.657.203 1.266.217.611.61 1 .387.392.921.39.639 0 1.032-.562c.257-.375.39-.867.39-1.484q-.001-.732-.218-1.328-.223-.61-.625-.953a1.4 1.4 0 0 0-.922-.344q-.628 0-1.016.547-.375.55-.375 1.468m0 0"
                    transform="translate(79.253 9.08)" />
            </g>
            <g transform="translate(85.405 9.08)" style="fill:#fff;fill-opacity:1" />
            <g style="fill:#fff;fill-opacity:1">
                <path style="stroke:none"
                    d="M2.813-5.297q.466.001.874.172.422.174.657.453.248.269.25.578a.44.44 0 0 1-.157.328.5.5 0 0 1-.375.141q-.548 0-.593-.61a.9.9 0 0 0-.235-.5q-.187-.217-.609-.218c-.45 0-.809.18-1.078.531q-.391.518-.39 1.375-.001 1.05.484 1.672.498.626 1.312.625.591 0 1-.328.406-.341.594-.922l.172.078C4.57-1.297 4.3-.789 3.906-.406q-.597.562-1.36.562c-.429 0-.82-.117-1.171-.343a2.3 2.3 0 0 1-.812-.954 3.1 3.1 0 0 1-.297-1.375c0-.53.101-1.004.312-1.421q.328-.638.906-1 .591-.36 1.329-.36m0 0"
                    transform="translate(88.192 9.08)" />
            </g>
            <g style="fill:#fff;fill-opacity:1">
                <path style="stroke:none"
                    d="M2.063-4.25h.015c.195-.332.406-.586.625-.766q.342-.28.766-.28.311 0 .5.187a.62.62 0 0 1 .187.453.47.47 0 0 1-.156.36.45.45 0 0 1-.328.14.5.5 0 0 1-.266-.063 1.6 1.6 0 0 1-.203-.156l-.078-.062a.4.4 0 0 0-.11-.094.3.3 0 0 0-.124-.032.58.58 0 0 0-.453.22 3.5 3.5 0 0 0-.376.562v2.594q0 .438.094.656.093.205.297.265.2.064.594.063V0H.297v-.203h.062q.407 0 .594-.203.188-.201.188-.735v-2.53c0-.352-.04-.583-.11-.688q-.11-.155-.39-.157a.55.55 0 0 0-.266.063l-.078-.188 1.562-.656h.204Zm0 0"
                    transform="translate(93.074 9.08)" />
            </g>
            <g style="fill:#fff;fill-opacity:1">
                <path style="stroke:none"
                    d="M2.656-5.297q1.671.002 1.672 1.344V-1q0 .298.094.39.093.094.234.094a.55.55 0 0 0 .313-.093c.093-.063.234-.18.422-.36v.282q-.423.468-.703.656a.94.94 0 0 1-.547.187.7.7 0 0 1-.532-.218c-.125-.157-.187-.383-.187-.688q-.485.47-.906.688a1.96 1.96 0 0 1-.907.218c-.336 0-.609-.12-.828-.36a1.33 1.33 0 0 1-.328-.905q0-.89.938-1.375.903-.482 2.03-.875v-.313q-.002-.45-.062-.719a.72.72 0 0 0-.28-.421q-.224-.171-.657-.172-.44.001-.656.218a.7.7 0 0 0-.203.516l.015.297a.427.427 0 0 1-.437.437.5.5 0 0 1-.36-.125c-.086-.082-.125-.195-.125-.343q0-.563.516-.938.528-.375 1.484-.375M1.391-1.39q0 .376.234.641.246.268.61.266.56.002 1.187-.547v-2.032c-.524.22-.922.407-1.203.563s-.492.324-.625.5a.93.93 0 0 0-.203.61m0 0"
                    transform="translate(97.287 9.08)" />
            </g>
            <g style="fill:#fff;fill-opacity:1">
                <path style="stroke:none"
                    d="M2.813-5.297q.466.001.874.172.422.174.657.453.248.269.25.578a.44.44 0 0 1-.157.328.5.5 0 0 1-.375.141q-.548 0-.593-.61a.9.9 0 0 0-.235-.5q-.187-.217-.609-.218c-.45 0-.809.18-1.078.531q-.391.518-.39 1.375-.001 1.05.484 1.672.498.626 1.312.625.591 0 1-.328.406-.341.594-.922l.172.078C4.57-1.297 4.3-.789 3.906-.406q-.597.562-1.36.562c-.429 0-.82-.117-1.171-.343a2.3 2.3 0 0 1-.812-.954 3.1 3.1 0 0 1-.297-1.375c0-.53.101-1.004.312-1.421q.328-.638.906-1 .591-.36 1.329-.36m0 0"
                    transform="translate(102.86 9.08)" />
            </g>
            <g style="fill:#fff;fill-opacity:1">
                <path style="stroke:none"
                    d="M2.047-7.984v5.093L3.64-4.406c.132-.125.203-.235.203-.328 0-.063-.04-.114-.11-.157a.5.5 0 0 0-.296-.078v-.203h2.28v.203H5.64q-.534 0-.891.188-.345.187-.797.61l-1.031.984 1.39 1.812q.388.504.641.75.263.25.484.344.236.08.516.078V0H3.47v-.203q.359-.014.36-.203 0-.2-.235-.453L2.078-2.844h-.031v1.656q0 .424.094.641.091.205.265.281.17.064.516.063V0H.297v-.203q.31 0 .484-.063a.47.47 0 0 0 .266-.28q.093-.202.094-.641V-6.5q-.001-.387-.125-.562-.13-.171-.422-.172a.6.6 0 0 0-.125.015l-.11.032-.062-.188 1.562-.61Zm0 0"
                    transform="translate(107.741 9.08)" />
            </g>
            <g transform="translate(113.894 9.08)" style="fill:#fff;fill-opacity:1" />
            <g style="fill:#fff;fill-opacity:1">
                <path style="stroke:none"
                    d="M2.656-5.297q1.671.002 1.672 1.344V-1q0 .298.094.39.093.094.234.094a.55.55 0 0 0 .313-.093c.093-.063.234-.18.422-.36v.282q-.423.468-.703.656a.94.94 0 0 1-.547.187.7.7 0 0 1-.532-.218c-.125-.157-.187-.383-.187-.688q-.485.47-.906.688a1.96 1.96 0 0 1-.907.218c-.336 0-.609-.12-.828-.36a1.33 1.33 0 0 1-.328-.905q0-.89.938-1.375.903-.482 2.03-.875v-.313q-.002-.45-.062-.719a.72.72 0 0 0-.28-.421q-.224-.171-.657-.172-.44.001-.656.218a.7.7 0 0 0-.203.516l.015.297a.427.427 0 0 1-.437.437.5.5 0 0 1-.36-.125c-.086-.082-.125-.195-.125-.343q0-.563.516-.938.528-.375 1.484-.375M1.391-1.39q0 .376.234.641.246.268.61.266.56.002 1.187-.547v-2.032c-.524.22-.922.407-1.203.563s-.492.324-.625.5a.93.93 0 0 0-.203.61m0 0"
                    transform="translate(116.68 9.08)" />
            </g>
            <g style="fill:#fff;fill-opacity:1">
                <path style="stroke:none"
                    d="M2-4.203q.574-.623.938-.86.374-.234.812-.234.498.001.797.266c.195.18.336.39.422.64q.14.375.14.75v2.454q-.002.58.172.78.186.19.625.204V0h-2.61v-.203q.36.002.548-.078a.47.47 0 0 0 .265-.281c.063-.133.094-.344.094-.625v-2.5a1.04 1.04 0 0 0-.234-.657c-.156-.195-.375-.297-.656-.297q-.347 0-.657.188-.316.187-.656.562v2.704q0 .58.188.78.186.19.656.204V0H.28v-.203q.342-.029.5-.11a.5.5 0 0 0 .235-.28q.06-.201.062-.548v-2.78a.9.9 0 0 0-.11-.438.39.39 0 0 0-.359-.203.44.44 0 0 0-.203.046l-.125.047-.078-.203 1.61-.625H2Zm0 0"
                    transform="translate(122.253 9.08)" />
            </g>
            <g transform="translate(128.41 9.08)" style="fill:#fff;fill-opacity:1" />
            <g style="fill:#fff;fill-opacity:1">
                <path style="stroke:none"
                    d="M1.516-8.016q.247.001.406.172a.51.51 0 0 1 .172.39.57.57 0 0 1-.172.423.55.55 0 0 1-.406.156.58.58 0 0 1-.407-.156.6.6 0 0 1-.156-.422q-.001-.233.156-.39a.56.56 0 0 1 .407-.173M2-1.156q-.002.55.172.75c.125.125.32.195.594.203V0H.25v-.203q.469 0 .656-.203.188-.218.188-.781v-2.688a.8.8 0 0 0-.14-.484c-.087-.133-.22-.203-.407-.203a.4.4 0 0 0-.219.062L.25-4.703l1.563-.594H2Zm0 0"
                    transform="translate(131.197 9.08)" />
            </g>
            <g style="fill:#fff;fill-opacity:1">
                <path style="stroke:none"
                    d="M2-4.203q.574-.623.938-.86.374-.234.812-.234.498.001.797.266c.195.18.336.39.422.64q.14.375.14.75v2.454q-.002.58.172.78.186.19.625.204V0h-2.61v-.203q.36.002.548-.078a.47.47 0 0 0 .265-.281c.063-.133.094-.344.094-.625v-2.5a1.04 1.04 0 0 0-.234-.657c-.156-.195-.375-.297-.656-.297q-.347 0-.657.188-.316.187-.656.562v2.704q0 .58.188.78.186.19.656.204V0H.28v-.203q.342-.029.5-.11a.5.5 0 0 0 .235-.28q.06-.201.062-.548v-2.78a.9.9 0 0 0-.11-.438.39.39 0 0 0-.359-.203.44.44 0 0 0-.203.046l-.125.047-.078-.203 1.61-.625H2Zm0 0"
                    transform="translate(134.217 9.08)" />
            </g>
            <g style="fill:#fff;fill-opacity:1">
                <path style="stroke:none"
                    d="M1.844-6.812h.187v1.64h1.172v.344H2.031v3.594a.9.9 0 0 0 .156.515q.17.235.47.235a.7.7 0 0 0 .359-.094q.154-.094.343-.328h.22q-.299.532-.626.797-.329.264-.781.265a.96.96 0 0 1-.781-.36q-.282-.356-.282-.983v-3.641H.33v-.219q.56-.232.952-.687.387-.451.563-1.078m0 0"
                    transform="translate(140.37 9.08)" />
            </g>
            <g style="fill:#fff;fill-opacity:1">
                <path style="stroke:none"
                    d="M2.625-5.297q.856.002 1.39.578.547.579.548 1.516h-3.5v.14q0 .598.234 1.141.234.535.656.875.435.328.969.328 1.062.001 1.484-1.187l.157.093c-.118.606-.36 1.086-.735 1.438A1.84 1.84 0 0 1 2.5.156Q1.92.154 1.422-.14.919-.45.609-1.047.312-1.656.313-2.5q0-.825.28-1.453c.196-.426.47-.754.813-.985q.528-.358 1.219-.359m-.312.39q-.471 0-.813.376-.346.363-.406.984h2.328c-.024-.406-.125-.734-.313-.984q-.281-.375-.796-.375m0 0"
                    transform="translate(144.081 9.08)" />
            </g>
            <g style="fill:#fff;fill-opacity:1">
                <path style="stroke:none"
                    d="M2.063-4.25h.015c.195-.332.406-.586.625-.766q.342-.28.766-.28.311 0 .5.187a.62.62 0 0 1 .187.453.47.47 0 0 1-.156.36.45.45 0 0 1-.328.14.5.5 0 0 1-.266-.063 1.6 1.6 0 0 1-.203-.156l-.078-.062a.4.4 0 0 0-.11-.094.3.3 0 0 0-.124-.032.58.58 0 0 0-.453.22 3.5 3.5 0 0 0-.376.562v2.594q0 .438.094.656.093.205.297.265.2.064.594.063V0H.297v-.203h.062q.407 0 .594-.203.188-.201.188-.735v-2.53c0-.352-.04-.583-.11-.688q-.11-.155-.39-.157a.55.55 0 0 0-.266.063l-.078-.188 1.562-.656h.204Zm0 0"
                    transform="translate(148.963 9.08)" />
            </g>
            <g style="fill:#fff;fill-opacity:1">
                <path style="stroke:none"
                    d="M2.469-4.969q-.298.019-.438.125c-.086.074-.125.184-.125.328 0 .118.016.23.047.344q.061.175.11.297c.039.086.066.14.078.172l1 2.437 1.187-2.937c.07-.188.11-.32.11-.406q-.001-.186-.125-.266-.128-.075-.438-.094v-.203h1.547v.203q-.282.017-.422.203a2.7 2.7 0 0 0-.266.563L3 .14h-.219L1.453-3.094Q1.11-3.936.922-4.28q-.174-.36-.344-.517a.72.72 0 0 0-.437-.172v-.203h2.328Zm0 0"
                    transform="translate(153.254 9.08)" />
            </g>
            <g style="fill:#fff;fill-opacity:1">
                <path style="stroke:none"
                    d="M1.516-8.016q.247.001.406.172a.51.51 0 0 1 .172.39.57.57 0 0 1-.172.423.55.55 0 0 1-.406.156.58.58 0 0 1-.407-.156.6.6 0 0 1-.156-.422q-.001-.233.156-.39a.56.56 0 0 1 .407-.173M2-1.156q-.002.55.172.75c.125.125.32.195.594.203V0H.25v-.203q.469 0 .656-.203.188-.218.188-.781v-2.688a.8.8 0 0 0-.14-.484c-.087-.133-.22-.203-.407-.203a.4.4 0 0 0-.219.062L.25-4.703l1.563-.594H2Zm0 0"
                    transform="translate(158.827 9.08)" />
            </g>
            <g style="fill:#fff;fill-opacity:1">
                <path style="stroke:none"
                    d="M2.625-5.297q.856.002 1.39.578.547.579.548 1.516h-3.5v.14q0 .598.234 1.141.234.535.656.875.435.328.969.328 1.062.001 1.484-1.187l.157.093c-.118.606-.36 1.086-.735 1.438A1.84 1.84 0 0 1 2.5.156Q1.92.154 1.422-.14.919-.45.609-1.047.312-1.656.313-2.5q0-.825.28-1.453c.196-.426.47-.754.813-.985q.528-.358 1.219-.359m-.312.39q-.471 0-.813.376-.346.363-.406.984h2.328c-.024-.406-.125-.734-.313-.984q-.281-.375-.796-.375m0 0"
                    transform="translate(161.847 9.08)" />
            </g>
            <g style="fill:#fff;fill-opacity:1">
                <path style="stroke:none"
                    d="M2.156-4.969q-.469.018-.469.375-.001.188.125.469L2.86-1.25l1.079-2.406-.266-.672q-.157-.387-.297-.516-.141-.124-.516-.125v-.203h2.36v.203q-.626.001-.625.407 0 .19.062.343l1.094 2.89.906-2.374.094-.235q.095-.233.14-.39a1 1 0 0 0 .048-.234c0-.157-.047-.258-.141-.313q-.142-.075-.453-.094v-.203h1.531v.203a.5.5 0 0 0-.36.219q-.14.189-.374.813L5.594.14h-.219l-1.25-3.297L2.656.14h-.219l-1.468-4a7 7 0 0 0-.281-.672.9.9 0 0 0-.22-.328.5.5 0 0 0-.327-.11v-.203h2.015Zm0 0"
                    transform="translate(166.573 9.08)" />
            </g>
            <g transform="translate(174.587 9.08)" style="fill:#fff;fill-opacity:1" />
            <g style="fill:#fff;fill-opacity:1">
                <path style="stroke:none"
                    d="M2.172-7.828q.516 0 .937.234.436.236.688.64.264.411.265.891 0 .611-.234 1.063-.234.44-.703.984l-.234.297a4.5 4.5 0 0 0-.5.813q-.158.363-.157.937v.157h-.203L2-2.172c0-.52.148-1.098.453-1.734l.094-.219q.263-.546.39-.922c.083-.25.126-.523.126-.828 0-.477-.118-.863-.344-1.156q-.33-.452-.86-.453a.95.95 0 0 0-.625.234q-.28.234-.28.516c0 .074.054.214.171.422q.012.034.094.203a.7.7 0 0 1 .093.312.46.46 0 0 1-.125.313q-.129.14-.28.14-.27.001-.47-.25a.93.93 0 0 1-.187-.578Q.249-6.624.5-7c.176-.25.41-.445.703-.594q.452-.234.969-.234m-.016 6.75q.246 0 .422.187a.56.56 0 0 1 .188.422.6.6 0 0 1-.188.438.56.56 0 0 1-.422.187.613.613 0 0 1-.625-.625q-.002-.246.172-.422a.6.6 0 0 1 .453-.187m0 0"
                    transform="translate(177.373 9.08)" />
            </g>
        </g>
        <mask id="k">
            <g filter="url(#m)">
                <path style="fill:#000;fill-opacity:.64;stroke:none" d="M0 0h351.75v385.5H0z" />
            </g>
        </mask>
    </g>
    <g style="fill:#ff3131;fill-opacity:1">
        <path style="stroke:none"
            d="M2.5-6.812V0H.86v-6.812Zm.234-1.97a.86.86 0 0 1-.093.391.98.98 0 0 1-.562.547 1 1 0 0 1-.407.078 1 1 0 0 1-.406-.078 1 1 0 0 1-.328-.218 1 1 0 0 1-.22-.329 1 1 0 0 1-.077-.39c0-.145.023-.281.078-.406a.98.98 0 0 1 .547-.563.9.9 0 0 1 .406-.094.9.9 0 0 1 .406.094c.133.055.25.125.344.219s.164.21.219.344a.9.9 0 0 1 .093.406m0 0"
            transform="translate(297.874 50.126)" />
    </g>
    <g style="fill:#ff3131;fill-opacity:1">
        <path style="stroke:none"
            d="M5.078-5.062a1.66 1.66 0 0 0-.61-.485 1.8 1.8 0 0 0-.702-.14c-.25 0-.477.046-.672.14a1.4 1.4 0 0 0-.516.422 2 2 0 0 0-.312.719q-.111.439-.11 1.031c0 .398.031.734.094 1.016.063.273.148.496.266.672q.187.25.437.375.263.11.578.109.514 0 .875-.203.357-.217.672-.61Zm1.64-4.797V0h-1q-.328 0-.405-.297l-.141-.656c-.281.312-.602.57-.953.766q-.533.28-1.235.28-.562 0-1.03-.218a2.4 2.4 0 0 1-.798-.672Q.83-1.247.641-1.89a5.4 5.4 0 0 1-.188-1.484q0-.762.203-1.406.218-.657.594-1.125.387-.48.922-.75a2.6 2.6 0 0 1 1.203-.282q.574 0 .984.188.404.175.72.484v-3.593Zm0 0"
            transform="translate(301.243 50.126)" />
    </g>
    <g style="fill:#ff3131;fill-opacity:1">
        <path style="stroke:none" d="M2.469-9.86V0H.829v-9.86Zm0 0"
            transform="translate(308.77 50.126)" />
    </g>
    <g style="fill:#ff3131;fill-opacity:1">
        <path style="stroke:none"
            d="M5.188-4.187q0-.313-.094-.594a1.2 1.2 0 0 0-.266-.485 1.2 1.2 0 0 0-.453-.343 1.5 1.5 0 0 0-.64-.125q-.705 0-1.11.406-.41.409-.516 1.14Zm-3.125.984q.046.534.187.922.154.376.39.625.235.252.563.375c.219.074.461.11.735.11.257 0 .484-.032.671-.095a4 4 0 0 0 .516-.203q.217-.107.375-.203a.66.66 0 0 1 .313-.094.37.37 0 0 1 .312.157l.469.593a2.7 2.7 0 0 1-.61.532q-.344.22-.718.359a3.6 3.6 0 0 1-.75.172Q4.14.094 3.78.094q-.703 0-1.312-.235a3 3 0 0 1-1.063-.687 3.4 3.4 0 0 1-.718-1.14q-.251-.687-.25-1.579-.002-.703.218-1.312c.156-.407.375-.758.657-1.063q.419-.45 1.015-.719a3.4 3.4 0 0 1 1.375-.265q.638.002 1.188.203.544.205.937.61.387.393.61.968.234.564.234 1.297 0 .376-.094.5-.081.127-.297.125Zm0 0"
            transform="translate(312.066 50.126)" />
    </g>
    <g style="fill:#ff3131;fill-opacity:1">
        <path style="stroke:none"
            d="M1.484-2.344q0-.528.188-1.015a2.5 2.5 0 0 1 .547-.828q.34-.341.828-.547.48-.201 1.031-.203.546.002 1.016.203.48.205.828.547.357.346.562.828.219.487.22 1.015-.001.55-.22 1.031a2.5 2.5 0 0 1-.562.813q-.347.344-.828.531a2.6 2.6 0 0 1-1.016.203Q3.528.232 3.047.031A2.3 2.3 0 0 1 2.219-.5q-.346-.342-.547-.812a2.8 2.8 0 0 1-.188-1.032m0 0"
            transform="translate(283.072 47.138)" />
    </g>
    <g clip-path="url(#n)">
        <g clip-path="url(#o)">
            <path style="stroke:none;fill-rule:nonzero;fill:#232323;fill-opacity:1"
                d="M238.145 323.805h99.41v44.18h-99.41Zm0 0" />
        </g>
    </g>
    <g style="fill:#fff;fill-opacity:1">
        <path style="stroke:none" d="M7.094-1.156V0H1.297v-10.203h1.375v9.047Zm0 0"
            transform="translate(266.158 350.638)" />
    </g>
    <g style="fill:#fff;fill-opacity:1">
        <path style="stroke:none"
            d="M4.047-7.328q.78.001 1.406.266.638.27 1.094.75.451.486.687 1.171.235.69.235 1.532 0 .861-.235 1.547Q7-1.388 6.547-.907a3.1 3.1 0 0 1-1.094.75 3.8 3.8 0 0 1-1.406.25 4 4 0 0 1-1.438-.25 3 3 0 0 1-1.093-.75 3.5 3.5 0 0 1-.688-1.156A4.8 4.8 0 0 1 .594-3.61c0-.563.078-1.07.234-1.532a3.5 3.5 0 0 1 .688-1.171q.45-.48 1.093-.75a3.7 3.7 0 0 1 1.438-.266m0 6.437q1.061 0 1.578-.703.53-.715.531-2c0-.863-.18-1.535-.531-2.015-.344-.477-.871-.72-1.578-.72q-.55 0-.953.188a2 2 0 0 0-.672.532q-.27.344-.39.859a4.8 4.8 0 0 0-.126 1.156q0 1.285.516 2 .528.703 1.625.703m0 0"
            transform="translate(272.947 350.638)" />
    </g>
    <g style="fill:#fff;fill-opacity:1">
        <path style="stroke:none"
            d="M3.516-3.516c.257 0 .484-.035.672-.109a1.23 1.23 0 0 0 .781-.766c.07-.175.11-.367.11-.578q-.002-.668-.407-1.062-.394-.388-1.156-.39-.768.002-1.172.39c-.274.261-.406.617-.406 1.062q-.001.316.109.578c.07.18.172.336.297.47.133.124.297.226.484.296q.294.11.688.11M5.796.391q-.002-.27-.155-.422a.9.9 0 0 0-.391-.266 2.4 2.4 0 0 0-.594-.125 8 8 0 0 0-.703-.062c-.25-.008-.508-.02-.765-.032q-.377-.03-.735-.078-.392.188-.656.469a.95.95 0 0 0-.25.656c0 .156.039.301.125.438q.123.217.375.375.264.152.656.234c.258.063.563.094.906.094q.514 0 .922-.094.406-.094.688-.266.28-.174.422-.406a.93.93 0 0 0 .156-.515m1.298-7.313v.469c0 .156-.102.258-.297.297l-.828.11c.164.312.25.655.25 1.03q-.002.534-.203.97a2.3 2.3 0 0 1-.563.734q-.362.298-.86.468a3.6 3.6 0 0 1-1.077.156 4 4 0 0 1-.953-.109 1.4 1.4 0 0 0-.36.297.56.56 0 0 0-.11.328q0 .251.204.39.216.13.562.188.341.05.782.063.434.017.89.047.452.034.89.109c.29.055.552.14.782.266q.341.175.547.484.218.314.219.813 0 .45-.235.89-.236.436-.671.766-.424.34-1.063.547a4.6 4.6 0 0 1-1.406.203c-.531 0-.996-.055-1.39-.156a3.2 3.2 0 0 1-.985-.422 1.7 1.7 0 0 1-.594-.61A1.5 1.5 0 0 1 .438.688q0-.534.328-.891c.226-.25.535-.445.922-.594a1.4 1.4 0 0 1-.5-.39Q1-1.421 1-1.828q0-.153.047-.313.06-.168.172-.343.122-.172.297-.313a1.7 1.7 0 0 1 .406-.265 2.1 2.1 0 0 1-.844-.797Q.78-4.36.781-5.016q0-.515.203-.937.199-.435.563-.734.373-.312.875-.47a3.4 3.4 0 0 1 1.094-.171q.466.002.875.11.405.095.734.296Zm0 0"
            transform="translate(280.981 350.638)" />
    </g>
    <g transform="translate(288.382 350.638)" style="fill:#fff;fill-opacity:1" />
    <g style="fill:#fff;fill-opacity:1">
        <path style="stroke:none"
            d="M10.719-5.094q0 1.143-.36 2.11a4.7 4.7 0 0 1-1.03 1.64q-.657.691-1.595 1.078A5.4 5.4 0 0 1 5.688.11Q4.562.11 3.64-.266a4.7 4.7 0 0 1-1.594-1.078 4.75 4.75 0 0 1-1.016-1.64 6 6 0 0 1-.36-2.11q-.001-1.138.36-2.093a4.8 4.8 0 0 1 1.016-1.657A4.5 4.5 0 0 1 3.64-9.922a5.2 5.2 0 0 1 2.047-.39q1.124.002 2.046.39.938.375 1.594 1.078.668.69 1.031 1.656.36.956.36 2.094m-1.406 0q-.001-.937-.266-1.687a3.5 3.5 0 0 0-.719-1.266 3.2 3.2 0 0 0-1.14-.797 3.9 3.9 0 0 0-1.5-.281q-.816 0-1.485.281-.674.281-1.14.797a3.7 3.7 0 0 0-.735 1.266q-.251.75-.25 1.687-.001.938.25 1.688.265.736.735 1.25.466.516 1.14.797c.445.18.942.265 1.484.265q.826.002 1.5-.265a3.2 3.2 0 0 0 1.141-.797q.468-.514.719-1.25.264-.75.265-1.688m0 0"
            transform="translate(292.026 350.638)" />
    </g>
    <g style="fill:#fff;fill-opacity:1">
        <path style="stroke:none"
            d="M6.938-7.203V0h-.766c-.18 0-.29-.086-.328-.266l-.11-.78a3.7 3.7 0 0 1-1.062.843 2.8 2.8 0 0 1-1.328.312q-.597 0-1.047-.187a2.2 2.2 0 0 1-.766-.547 2.4 2.4 0 0 1-.453-.86 4.3 4.3 0 0 1-.14-1.124v-4.594h1.265v4.594q0 .814.375 1.265c.25.305.629.453 1.14.453q.562.002 1.048-.265a3.9 3.9 0 0 0 .906-.75v-5.297Zm0 0"
            transform="translate(303.312 350.638)" />
    </g>
    <g style="fill:#fff;fill-opacity:1">
        <path style="stroke:none"
            d="M3.219.11q-.86 0-1.328-.47c-.305-.32-.453-.78-.453-1.374v-4.422h-.86a.28.28 0 0 1-.187-.063c-.055-.039-.079-.11-.079-.203v-.516l1.172-.14.297-2.234a.25.25 0 0 1 .094-.172.32.32 0 0 1 .203-.063h.64v2.485h2.079v.906H2.719v4.328c0 .312.07.543.219.687a.75.75 0 0 0 .562.22q.201 0 .344-.048.154-.06.25-.125.106-.06.187-.11c.051-.038.094-.062.125-.062q.105.001.188.125l.36.594q-.316.315-.782.485a2.8 2.8 0 0 1-.953.171m0 0"
            transform="translate(311.247 350.638)" />
    </g>
    <g style="fill:#5da6ff;fill-opacity:1">
        <path style="stroke:none"
            d="m6.266-3.531-1.5-3.86a9 9 0 0 1-.141-.406q-.065-.233-.14-.484a8 8 0 0 1-.282.89L2.72-3.53ZM8.938 0h-.985a.45.45 0 0 1-.281-.078.5.5 0 0 1-.156-.234l-.891-2.282H2.359L1.47-.312a.54.54 0 0 1-.157.218.42.42 0 0 1-.28.094H.046l3.797-9.5H5.14Zm0 0"
            transform="translate(61.25 226.982)" />
    </g>
    <g style="fill:#5da6ff;fill-opacity:1">
        <path style="stroke:none" d="M2.5 0H1.219v-9.5H2.5Zm0 0"
            transform="translate(70.23 226.982)" />
    </g>
    <g mask="url(#p)" transform="translate(61 240)">
        <g clip-path="url(#q)">
            <g style="fill:#fff;fill-opacity:1" clip-path="url(#r)">
                <path style="stroke:none"
                    d="M7.156-5.922h-.218q-.16-1.232-1.344-1.234H4.312v6.11q0 .502.282.671.293.174.828.172V0H2v-.203q.574 0 .844-.203.264-.201.265-.719v-6.031H1.75q-.534 0-.875.312-.345.3-.39.922H.28l.047-1.734h6.766Zm0 0"
                    transform="translate(.25 8.612)" />
            </g>
            <g style="fill:#fff;fill-opacity:1">
                <path style="stroke:none"
                    d="M2.063-4.25h.015c.195-.332.406-.586.625-.766q.342-.28.766-.28.311 0 .5.187a.62.62 0 0 1 .187.453.47.47 0 0 1-.156.36.45.45 0 0 1-.328.14.5.5 0 0 1-.266-.063 1.6 1.6 0 0 1-.203-.156l-.078-.062a.4.4 0 0 0-.11-.094.3.3 0 0 0-.124-.032.58.58 0 0 0-.453.22 3.5 3.5 0 0 0-.376.562v2.594q0 .438.094.656.093.205.297.265.2.064.594.063V0H.297v-.203h.062q.407 0 .594-.203.188-.201.188-.735v-2.53c0-.352-.04-.583-.11-.688q-.11-.155-.39-.157a.55.55 0 0 0-.266.063l-.078-.188 1.562-.656h.204Zm0 0"
                    transform="translate(6.715 8.612)" />
            </g>
            <g style="fill:#fff;fill-opacity:1">
                <path style="stroke:none"
                    d="M2.484-4.969q-.328 0-.468.094c-.094.055-.141.156-.141.313 0 .148.023.273.078.375q.077.159.078.171l1.219 2.72 1.11-2.97q.076-.262.077-.375 0-.17-.125-.234-.11-.075-.39-.094v-.203h1.484v.203a.54.54 0 0 0-.36.188 1.4 1.4 0 0 0-.25.453L3.063.359a6.6 6.6 0 0 1-.734 1.407c-.281.394-.68.593-1.187.593q-.331 0-.532-.171a.55.55 0 0 1-.203-.438q0-.222.156-.375.153-.14.422-.14.153 0 .282.046.139.06.156.078.234.094.328.094c.195 0 .375-.133.531-.39Q2.528.67 2.828-.11l-1.61-3.578a11 11 0 0 0-.359-.735 1.1 1.1 0 0 0-.28-.375.63.63 0 0 0-.407-.172v-.203h2.312Zm0 0"
                    transform="translate(11.006 8.612)" />
            </g>
            <g style="fill:#fff;fill-opacity:1">
                <path style="stroke:none"
                    d="M1.406-1.11q.388 0 .64.329.266.315.267.797c0 .437-.137.804-.407 1.109q-.41.452-1.218.734v-.203q.639-.221.921-.625.296-.409.297-.812A.27.27 0 0 0 1.86.047a.15.15 0 0 0-.125-.063.5.5 0 0 0-.187.079.44.44 0 0 1-.266.093.57.57 0 0 1-.422-.172.56.56 0 0 1-.171-.421Q.687-.718.89-.907a.74.74 0 0 1 .515-.202m0 0"
                    transform="translate(15.61 8.612)" />
            </g>
            <g transform="translate(18.63 8.612)" style="fill:#fff;fill-opacity:1" />
            <g style="fill:#fff;fill-opacity:1">
                <path style="stroke:none"
                    d="M2.047-1.469q-.001.41.25.657a.8.8 0 0 0 .594.25q.326.002.672-.172.34-.172.656-.5v-3.094q0-.64-.75-.64h-.11v-.204h1.782v3.969q-.001.206.109.406a.41.41 0 0 0 .375.203c.094 0 .219-.023.375-.078v.203l-1.562.61h-.22V-.953h-.015Q3.296.159 2.47.157q-.441-.001-.735-.22a1.4 1.4 0 0 1-.453-.546 1.8 1.8 0 0 1-.14-.688v-2.937q-.002-.437-.203-.578-.188-.155-.61-.157H.203v-.203h1.844Zm0 0"
                    transform="translate(21.416 8.612)" />
            </g>
            <g style="fill:#fff;fill-opacity:1">
                <path style="stroke:none"
                    d="M2.094-5.297c.219 0 .437.04.656.11q.234.08.375.078.107 0 .219-.063h.203v1.578h-.203c-.063-.414-.211-.75-.438-1q-.346-.388-.828-.39-.393.002-.64.203a.59.59 0 0 0-.25.5c0 .18.039.328.125.453q.139.175.39.328.246.157.797.438.685.362 1.047.718.375.361.375.969 0 .534-.281.875-.27.346-.657.5-.377.154-.718.156Q1.92.154 1.359 0a1.5 1.5 0 0 0-.343-.078Q.873-.078.813 0H.578v-1.734h.188q.076.69.5 1.125.42.421 1 .422c.238 0 .441-.07.609-.22a.75.75 0 0 0 .25-.562q0-.386-.219-.61a2.1 2.1 0 0 0-.5-.39c-.18-.101-.297-.172-.36-.203a8 8 0 0 0-.312-.172 10 10 0 0 1-.64-.406 1.6 1.6 0 0 1-.407-.437Q.53-3.47.532-3.891q0-.622.438-1.015.45-.388 1.125-.39m0 0"
                    transform="translate(27.569 8.612)" />
            </g>
            <g style="fill:#fff;fill-opacity:1" clip-path="url(#s)">
                <path style="stroke:none"
                    d="M1.516-8.016q.247.001.406.172a.51.51 0 0 1 .172.39.57.57 0 0 1-.172.423.55.55 0 0 1-.406.156.58.58 0 0 1-.407-.156.6.6 0 0 1-.156-.422q-.001-.233.156-.39a.56.56 0 0 1 .407-.173M2-1.156q-.002.55.172.75c.125.125.32.195.594.203V0H.25v-.203q.469 0 .656-.203.188-.218.188-.781v-2.688a.8.8 0 0 0-.14-.484c-.087-.133-.22-.203-.407-.203a.4.4 0 0 0-.219.062L.25-4.703l1.563-.594H2Zm0 0"
                    transform="translate(31.86 8.612)" />
            </g>
            <g style="fill:#fff;fill-opacity:1">
                <path style="stroke:none"
                    d="M2-4.203q.574-.623.938-.86.374-.234.812-.234.498.001.797.266c.195.18.336.39.422.64q.14.375.14.75v2.454q-.002.58.172.78.186.19.625.204V0h-2.61v-.203q.36.002.548-.078a.47.47 0 0 0 .265-.281c.063-.133.094-.344.094-.625v-2.5a1.04 1.04 0 0 0-.234-.657c-.156-.195-.375-.297-.656-.297q-.347 0-.657.188-.316.187-.656.562v2.704q0 .58.188.78.186.19.656.204V0H.28v-.203q.342-.029.5-.11a.5.5 0 0 0 .235-.28q.06-.201.062-.548v-2.78a.9.9 0 0 0-.11-.438.39.39 0 0 0-.359-.203.44.44 0 0 0-.203.046l-.125.047-.078-.203 1.61-.625H2Zm0 0"
                    transform="translate(34.88 8.612)" />
            </g>
            <g style="fill:#fff;fill-opacity:1">
                <path style="stroke:none"
                    d="M2.828-5.297q.622 0 1.156.328h1.204q.152 0 .187.047.03.047.031.234c0 .118-.011.188-.031.22-.012.023-.055.03-.125.03h-.844q.154.237.219.454.062.204.063.484c0 .344-.086.652-.25.922a1.63 1.63 0 0 1-.688.64 2.15 2.15 0 0 1-.984.22c-.243 0-.485-.036-.735-.11q-.454.409-.453.672-.001.14.156.234.172.094.688.094h1.265q.668.002 1.172.297.499.281.5.844c0 .351-.136.687-.406 1-.262.32-.617.578-1.062.765a3.58 3.58 0 0 1-2.438.125 2.3 2.3 0 0 1-.797-.39q-.298-.236-.297-.5 0-.207.188-.5.2-.298.875-.954Q.859-.31.859-.687q0-.294.235-.61.234-.312.656-.64a1.7 1.7 0 0 1-.703-.641 1.74 1.74 0 0 1-.234-.89c0-.344.085-.65.265-.923q.263-.421.719-.656.468-.248 1.031-.25m-1.062 1.36q-.001.422.109.874.105.44.375.75A.85.85 0 0 0 2.938-2q.357.001.578-.344.234-.357.234-.89-.001-.34-.125-.75a1.9 1.9 0 0 0-.39-.703.83.83 0 0 0-.657-.297q-.33.002-.578.297-.234.28-.234.75M3.453.015h-.406c-.336 0-.61-.008-.828-.016a1.9 1.9 0 0 1-.547-.094 3.2 3.2 0 0 0-.375.516.9.9 0 0 0-.125.453q-.002.388.547.594.543.217 1.328.218.561 0 1-.14.45-.141.703-.406.265-.252.266-.563 0-.363-.375-.469Q4.263.016 3.453.016m0 0"
                    transform="translate(41.033 8.612)" />
            </g>
            <g transform="translate(46.606 8.612)" style="fill:#fff;fill-opacity:1" />
            <g style="fill:#fff;fill-opacity:1" clip-path="url(#t)">
                <path style="stroke:none"
                    d="M3.906-7.453q-.47 0-.719.094a.58.58 0 0 0-.343.297q-.094.221-.094.625v5.328q-.001.377.125.578.124.189.36.25c.163.043.39.07.671.078V0H.391v-.203q.435-.013.672-.078a.55.55 0 0 0 .359-.25q.124-.2.125-.594v-5.312c0-.27-.04-.477-.11-.625a.54.54 0 0 0-.343-.297Q.859-7.435.39-7.453v-.203h3.515Zm0 0"
                    transform="translate(49.392 8.612)" />
            </g>
            <g style="fill:#fff;fill-opacity:1">
                <path style="stroke:none"
                    d="M2-4.203q.574-.623.938-.86.374-.234.812-.234.498.001.797.266c.195.18.336.39.422.64q.14.375.14.75v2.454q-.002.58.172.78.186.19.625.204V0h-2.61v-.203q.36.002.548-.078a.47.47 0 0 0 .265-.281c.063-.133.094-.344.094-.625v-2.5a1.04 1.04 0 0 0-.234-.657c-.156-.195-.375-.297-.656-.297q-.347 0-.657.188-.316.187-.656.562v2.704q0 .58.188.78.186.19.656.204V0H.28v-.203q.342-.029.5-.11a.5.5 0 0 0 .235-.28q.06-.201.062-.548v-2.78a.9.9 0 0 0-.11-.438.39.39 0 0 0-.359-.203.44.44 0 0 0-.203.046l-.125.047-.078-.203 1.61-.625H2Zm0 0"
                    transform="translate(53.683 8.612)" />
            </g>
            <g style="fill:#fff;fill-opacity:1">
                <path style="stroke:none"
                    d="M1.844-6.812h.187v1.64h1.172v.344H2.031v3.594a.9.9 0 0 0 .156.515q.17.235.47.235a.7.7 0 0 0 .359-.094q.154-.094.343-.328h.22q-.299.532-.626.797-.329.264-.781.265a.96.96 0 0 1-.781-.36q-.282-.356-.282-.983v-3.641H.33v-.219q.56-.232.952-.687.387-.451.563-1.078m0 0"
                    transform="translate(59.836 8.612)" />
            </g>
            <g style="fill:#fff;fill-opacity:1">
                <path style="stroke:none"
                    d="M2.625-5.297q.856.002 1.39.578.547.579.548 1.516h-3.5v.14q0 .598.234 1.141.234.535.656.875.435.328.969.328 1.062.001 1.484-1.187l.157.093c-.118.606-.36 1.086-.735 1.438A1.84 1.84 0 0 1 2.5.156Q1.92.154 1.422-.14.919-.45.609-1.047.312-1.656.313-2.5q0-.825.28-1.453c.196-.426.47-.754.813-.985q.528-.358 1.219-.359m-.312.39q-.471 0-.813.376-.346.363-.406.984h2.328c-.024-.406-.125-.734-.313-.984q-.281-.375-.796-.375m0 0"
                    transform="translate(63.547 8.612)" />
            </g>
            <g style="fill:#fff;fill-opacity:1">
                <path style="stroke:none"
                    d="M2.063-4.25h.015c.195-.332.406-.586.625-.766q.342-.28.766-.28.311 0 .5.187a.62.62 0 0 1 .187.453.47.47 0 0 1-.156.36.45.45 0 0 1-.328.14.5.5 0 0 1-.266-.063 1.6 1.6 0 0 1-.203-.156l-.078-.062a.4.4 0 0 0-.11-.094.3.3 0 0 0-.124-.032.58.58 0 0 0-.453.22 3.5 3.5 0 0 0-.376.562v2.594q0 .438.094.656.093.205.297.265.2.064.594.063V0H.297v-.203h.062q.407 0 .594-.203.188-.201.188-.735v-2.53c0-.352-.04-.583-.11-.688q-.11-.155-.39-.157a.55.55 0 0 0-.266.063l-.078-.188 1.562-.656h.204Zm0 0"
                    transform="translate(68.429 8.612)" />
            </g>
            <g style="fill:#fff;fill-opacity:1">
                <path style="stroke:none"
                    d="M2.469-4.969q-.298.019-.438.125c-.086.074-.125.184-.125.328 0 .118.016.23.047.344q.061.175.11.297c.039.086.066.14.078.172l1 2.437 1.187-2.937c.07-.188.11-.32.11-.406q-.001-.186-.125-.266-.128-.075-.438-.094v-.203h1.547v.203q-.282.017-.422.203a2.7 2.7 0 0 0-.266.563L3 .14h-.219L1.453-3.094Q1.11-3.936.922-4.28q-.174-.36-.344-.517a.72.72 0 0 0-.437-.172v-.203h2.328Zm0 0"
                    transform="translate(72.72 8.612)" />
            </g>
            <g style="fill:#fff;fill-opacity:1" clip-path="url(#u)">
                <path style="stroke:none"
                    d="M1.516-8.016q.247.001.406.172a.51.51 0 0 1 .172.39.57.57 0 0 1-.172.423.55.55 0 0 1-.406.156.58.58 0 0 1-.407-.156.6.6 0 0 1-.156-.422q-.001-.233.156-.39a.56.56 0 0 1 .407-.173M2-1.156q-.002.55.172.75c.125.125.32.195.594.203V0H.25v-.203q.469 0 .656-.203.188-.218.188-.781v-2.688a.8.8 0 0 0-.14-.484c-.087-.133-.22-.203-.407-.203a.4.4 0 0 0-.219.062L.25-4.703l1.563-.594H2Zm0 0"
                    transform="translate(78.293 8.612)" />
            </g>
            <g style="fill:#fff;fill-opacity:1">
                <path style="stroke:none"
                    d="M2.625-5.297q.856.002 1.39.578.547.579.548 1.516h-3.5v.14q0 .598.234 1.141.234.535.656.875.435.328.969.328 1.062.001 1.484-1.187l.157.093c-.118.606-.36 1.086-.735 1.438A1.84 1.84 0 0 1 2.5.156Q1.92.154 1.422-.14.919-.45.609-1.047.312-1.656.313-2.5q0-.825.28-1.453c.196-.426.47-.754.813-.985q.528-.358 1.219-.359m-.312.39q-.471 0-.813.376-.346.363-.406.984h2.328c-.024-.406-.125-.734-.313-.984q-.281-.375-.796-.375m0 0"
                    transform="translate(81.313 8.612)" />
            </g>
            <g style="fill:#fff;fill-opacity:1">
                <path style="stroke:none"
                    d="M2.156-4.969q-.469.018-.469.375-.001.188.125.469L2.86-1.25l1.079-2.406-.266-.672q-.157-.387-.297-.516-.141-.124-.516-.125v-.203h2.36v.203q-.626.001-.625.407 0 .19.062.343l1.094 2.89.906-2.374.094-.235q.095-.233.14-.39a1 1 0 0 0 .048-.234c0-.157-.047-.258-.141-.313q-.142-.075-.453-.094v-.203h1.531v.203a.5.5 0 0 0-.36.219q-.14.189-.374.813L5.594.14h-.219l-1.25-3.297L2.656.14h-.219l-1.468-4a7 7 0 0 0-.281-.672.9.9 0 0 0-.22-.328.5.5 0 0 0-.327-.11v-.203h2.015Zm0 0"
                    transform="translate(86.04 8.612)" />
            </g>
            <g style="fill:#fff;fill-opacity:1" clip-path="url(#v)">
                <path style="stroke:none"
                    d="M3.734-7.453q-.766 0-.765.422c0 .148.101.36.312.64l1.235 1.72 1.562-1.876q.218-.264.219-.469a.36.36 0 0 0-.188-.328c-.117-.07-.308-.11-.578-.11v-.202h2.64v.203h-.124q-.393.002-.703.25-.316.236-.844.875L4.797-4.266l2.281 3.172q.388.55.672.719.294.174.688.172V0H5.047v-.203q.75.002.75-.406c0-.164-.102-.368-.297-.61L4-3.312 2.281-1.25q-.221.27-.297.39a.5.5 0 0 0-.062.25q0 .235.187.329.2.08.547.078V0H.141v-.203q.327 0 .656-.203.34-.201.89-.86l2.047-2.437-1.921-2.64q-.347-.468-.594-.688a1.26 1.26 0 0 0-.469-.313 1.9 1.9 0 0 0-.61-.11v-.202h3.594Zm0 0"
                    transform="translate(94.053 8.612)" />
            </g>
            <g style="fill:#fff;fill-opacity:1">
                <path style="stroke:none"
                    d="M1.406-1.11q.388 0 .64.329.266.315.267.797c0 .437-.137.804-.407 1.109q-.41.452-1.218.734v-.203q.639-.221.921-.625.296-.409.297-.812A.27.27 0 0 0 1.86.047a.15.15 0 0 0-.125-.063.5.5 0 0 0-.187.079.44.44 0 0 1-.266.093.57.57 0 0 1-.422-.172.56.56 0 0 1-.171-.421Q.687-.718.89-.907a.74.74 0 0 1 .515-.202m0 0"
                    transform="translate(102.646 8.612)" />
            </g>
            <g transform="translate(105.667 8.612)" style="fill:#fff;fill-opacity:1" />
            <g style="fill:#fff;fill-opacity:1" clip-path="url(#w)">
                <path style="stroke:none"
                    d="M1.516-8.016q.247.001.406.172a.51.51 0 0 1 .172.39.57.57 0 0 1-.172.423.55.55 0 0 1-.406.156.58.58 0 0 1-.407-.156.6.6 0 0 1-.156-.422q-.001-.233.156-.39a.56.56 0 0 1 .407-.173M2-1.156q-.002.55.172.75c.125.125.32.195.594.203V0H.25v-.203q.469 0 .656-.203.188-.218.188-.781v-2.688a.8.8 0 0 0-.14-.484c-.087-.133-.22-.203-.407-.203a.4.4 0 0 0-.219.062L.25-4.703l1.563-.594H2Zm0 0"
                    transform="translate(108.453 8.612)" />
            </g>
            <g style="fill:#fff;fill-opacity:1">
                <path style="stroke:none"
                    d="M1.844-6.812h.187v1.64h1.172v.344H2.031v3.594a.9.9 0 0 0 .156.515q.17.235.47.235a.7.7 0 0 0 .359-.094q.154-.094.343-.328h.22q-.299.532-.626.797-.329.264-.781.265a.96.96 0 0 1-.781-.36q-.282-.356-.282-.983v-3.641H.33v-.219q.56-.232.952-.687.387-.451.563-1.078m0 0"
                    transform="translate(111.474 8.612)" />
            </g>
            <g transform="translate(115.185 8.612)" style="fill:#fff;fill-opacity:1" />
            <g style="fill:#fff;fill-opacity:1">
                <path style="stroke:none"
                    d="M3.172-5.297q.655 0 1.234.36.577.345.907.937.341.582.343 1.25 0 .785-.375 1.453-.363.658-.984 1.063a2.42 2.42 0 0 1-2.562.047 2.7 2.7 0 0 1-.907-.954A2.63 2.63 0 0 1 .5-2.437c0-.508.117-.985.36-1.422q.375-.656.984-1.047a2.5 2.5 0 0 1 1.328-.39M1.5-2.89q-.001.657.203 1.266.217.611.61 1 .387.392.921.39.639 0 1.032-.562c.257-.375.39-.867.39-1.484q-.001-.732-.218-1.328-.223-.61-.625-.953a1.4 1.4 0 0 0-.922-.344q-.628 0-1.016.547-.375.55-.375 1.468m0 0"
                    transform="translate(117.972 8.612)" />
            </g>
            <g style="fill:#fff;fill-opacity:1" clip-path="url(#x)">
                <path style="stroke:none"
                    d="M3.156-7.984q.359.001.688.125.328.128.515.343c.133.149.204.297.204.454a.43.43 0 0 1-.141.312.4.4 0 0 1-.297.125.45.45 0 0 1-.312-.11 2 2 0 0 1-.266-.327 2 2 0 0 0-.344-.391q-.157-.14-.437-.14a.66.66 0 0 0-.532.25c-.136.155-.203.46-.203.906v1.265h1.047v.344H2.031v3.64q-.002.44.078.657a.46.46 0 0 0 .282.265c.125.043.304.063.547.063V0H.265v-.203c.218 0 .382-.02.5-.063a.5.5 0 0 0 .25-.28q.093-.202.093-.641v-3.641H.391v-.344h.718v-.531q0-.687.297-1.203.295-.527.766-.797.468-.282.984-.281m0 0"
                    transform="translate(124.124 8.612)" />
            </g>
            <g style="fill:#fff;fill-opacity:1" clip-path="url(#y)">
                <path style="stroke:none"
                    d="M3.156-7.984q.359.001.688.125.328.128.515.343c.133.149.204.297.204.454a.43.43 0 0 1-.141.312.4.4 0 0 1-.297.125.45.45 0 0 1-.312-.11 2 2 0 0 1-.266-.327 2 2 0 0 0-.344-.391q-.157-.14-.437-.14a.66.66 0 0 0-.532.25c-.136.155-.203.46-.203.906v1.265h1.047v.344H2.031v3.64q-.002.44.078.657a.46.46 0 0 0 .282.265c.125.043.304.063.547.063V0H.265v-.203c.218 0 .382-.02.5-.063a.5.5 0 0 0 .25-.28q.093-.202.093-.641v-3.641H.391v-.344h.718v-.531q0-.687.297-1.203.295-.527.766-.797.468-.282.984-.281m0 0"
                    transform="translate(127.512 8.612)" />
            </g>
            <g style="fill:#fff;fill-opacity:1">
                <path style="stroke:none"
                    d="M2.625-5.297q.856.002 1.39.578.547.579.548 1.516h-3.5v.14q0 .598.234 1.141.234.535.656.875.435.328.969.328 1.062.001 1.484-1.187l.157.093c-.118.606-.36 1.086-.735 1.438A1.84 1.84 0 0 1 2.5.156Q1.92.154 1.422-.14.919-.45.609-1.047.312-1.656.313-2.5q0-.825.28-1.453c.196-.426.47-.754.813-.985q.528-.358 1.219-.359m-.312.39q-.471 0-.813.376-.346.363-.406.984h2.328c-.024-.406-.125-.734-.313-.984q-.281-.375-.796-.375m0 0"
                    transform="translate(131.224 8.612)" />
            </g>
            <g style="fill:#fff;fill-opacity:1">
                <path style="stroke:none"
                    d="M2.063-4.25h.015c.195-.332.406-.586.625-.766q.342-.28.766-.28.311 0 .5.187a.62.62 0 0 1 .187.453.47.47 0 0 1-.156.36.45.45 0 0 1-.328.14.5.5 0 0 1-.266-.063 1.6 1.6 0 0 1-.203-.156l-.078-.062a.4.4 0 0 0-.11-.094.3.3 0 0 0-.124-.032.58.58 0 0 0-.453.22 3.5 3.5 0 0 0-.376.562v2.594q0 .438.094.656.093.205.297.265.2.064.594.063V0H.297v-.203h.062q.407 0 .594-.203.188-.201.188-.735v-2.53c0-.352-.04-.583-.11-.688q-.11-.155-.39-.157a.55.55 0 0 0-.266.063l-.078-.188 1.562-.656h.204Zm0 0"
                    transform="translate(136.106 8.612)" />
            </g>
            <g style="fill:#fff;fill-opacity:1">
                <path style="stroke:none"
                    d="M2.094-5.297c.219 0 .437.04.656.11q.234.08.375.078.107 0 .219-.063h.203v1.578h-.203c-.063-.414-.211-.75-.438-1q-.346-.388-.828-.39-.393.002-.64.203a.59.59 0 0 0-.25.5c0 .18.039.328.125.453q.139.175.39.328.246.157.797.438.685.362 1.047.718.375.361.375.969 0 .534-.281.875-.27.346-.657.5-.377.154-.718.156Q1.92.154 1.359 0a1.5 1.5 0 0 0-.343-.078Q.873-.078.813 0H.578v-1.734h.188q.076.69.5 1.125.42.421 1 .422c.238 0 .441-.07.609-.22a.75.75 0 0 0 .25-.562q0-.386-.219-.61a2.1 2.1 0 0 0-.5-.39c-.18-.101-.297-.172-.36-.203a8 8 0 0 0-.312-.172 10 10 0 0 1-.64-.406 1.6 1.6 0 0 1-.407-.437Q.53-3.47.532-3.891q0-.622.438-1.015.45-.388 1.125-.39m0 0"
                    transform="translate(140.397 8.612)" />
            </g>
            <g transform="translate(144.688 8.612)" style="fill:#fff;fill-opacity:1" />
            <g style="fill:#fff;fill-opacity:1" clip-path="url(#z)">
                <path style="stroke:none"
                    d="M2.016-7.984v6.812c0 .375.05.633.156.766q.17.204.594.203V0H.25v-.203q.31 0 .484-.063a.46.46 0 0 0 .282-.265q.093-.219.093-.64v-5.266c0-.5-.18-.75-.53-.75a.5.5 0 0 0-.25.062L.25-7.312l1.563-.672Zm0 0"
                    transform="translate(147.474 8.612)" />
            </g>
            <g style="fill:#fff;fill-opacity:1">
                <path style="stroke:none"
                    d="M3.172-5.297q.655 0 1.234.36.577.345.907.937.341.582.343 1.25 0 .785-.375 1.453-.363.658-.984 1.063a2.42 2.42 0 0 1-2.562.047 2.7 2.7 0 0 1-.907-.954A2.63 2.63 0 0 1 .5-2.437c0-.508.117-.985.36-1.422q.375-.656.984-1.047a2.5 2.5 0 0 1 1.328-.39M1.5-2.89q-.001.657.203 1.266.217.611.61 1 .387.392.921.39.639 0 1.032-.562c.257-.375.39-.867.39-1.484q-.001-.732-.218-1.328-.223-.61-.625-.953a1.4 1.4 0 0 0-.922-.344q-.628 0-1.016.547-.375.55-.375 1.468m0 0"
                    transform="translate(150.495 8.612)" />
            </g>
            <g style="fill:#fff;fill-opacity:1">
                <path style="stroke:none"
                    d="M1.844-6.812h.187v1.64h1.172v.344H2.031v3.594a.9.9 0 0 0 .156.515q.17.235.47.235a.7.7 0 0 0 .359-.094q.154-.094.343-.328h.22q-.299.532-.626.797-.329.264-.781.265a.96.96 0 0 1-.781-.36q-.282-.356-.282-.983v-3.641H.33v-.219q.56-.232.952-.687.387-.451.563-1.078m0 0"
                    transform="translate(156.647 8.612)" />
            </g>
            <g style="fill:#fff;fill-opacity:1">
                <path style="stroke:none"
                    d="M2.094-5.297c.219 0 .437.04.656.11q.234.08.375.078.107 0 .219-.063h.203v1.578h-.203c-.063-.414-.211-.75-.438-1q-.346-.388-.828-.39-.393.002-.64.203a.59.59 0 0 0-.25.5c0 .18.039.328.125.453q.139.175.39.328.246.157.797.438.685.362 1.047.718.375.361.375.969 0 .534-.281.875-.27.346-.657.5-.377.154-.718.156Q1.92.154 1.359 0a1.5 1.5 0 0 0-.343-.078Q.873-.078.813 0H.578v-1.734h.188q.076.69.5 1.125.42.421 1 .422c.238 0 .441-.07.609-.22a.75.75 0 0 0 .25-.562q0-.386-.219-.61a2.1 2.1 0 0 0-.5-.39c-.18-.101-.297-.172-.36-.203a8 8 0 0 0-.312-.172 10 10 0 0 1-.64-.406 1.6 1.6 0 0 1-.407-.437Q.53-3.47.532-3.891q0-.622.438-1.015.45-.388 1.125-.39m0 0"
                    transform="translate(160.359 8.612)" />
            </g>
            <g transform="translate(164.65 8.612)" style="fill:#fff;fill-opacity:1" />
            <g style="fill:#fff;fill-opacity:1">
                <path style="stroke:none"
                    d="M3.172-5.297q.655 0 1.234.36.577.345.907.937.341.582.343 1.25 0 .785-.375 1.453-.363.658-.984 1.063a2.42 2.42 0 0 1-2.562.047 2.7 2.7 0 0 1-.907-.954A2.63 2.63 0 0 1 .5-2.437c0-.508.117-.985.36-1.422q.375-.656.984-1.047a2.5 2.5 0 0 1 1.328-.39M1.5-2.89q-.001.657.203 1.266.217.611.61 1 .387.392.921.39.639 0 1.032-.562c.257-.375.39-.867.39-1.484q-.001-.732-.218-1.328-.223-.61-.625-.953a1.4 1.4 0 0 0-.922-.344q-.628 0-1.016.547-.375.55-.375 1.468m0 0"
                    transform="translate(167.436 8.612)" />
            </g>
            <g style="fill:#fff;fill-opacity:1" clip-path="url(#A)">
                <path style="stroke:none"
                    d="M3.156-7.984q.359.001.688.125.328.128.515.343c.133.149.204.297.204.454a.43.43 0 0 1-.141.312.4.4 0 0 1-.297.125.45.45 0 0 1-.312-.11 2 2 0 0 1-.266-.327 2 2 0 0 0-.344-.391q-.157-.14-.437-.14a.66.66 0 0 0-.532.25c-.136.155-.203.46-.203.906v1.265h1.047v.344H2.031v3.64q-.002.44.078.657a.46.46 0 0 0 .282.265c.125.043.304.063.547.063V0H.265v-.203c.218 0 .382-.02.5-.063a.5.5 0 0 0 .25-.28q.093-.202.093-.641v-3.641H.391v-.344h.718v-.531q0-.687.297-1.203.295-.527.766-.797.468-.282.984-.281m0 0"
                    transform="translate(173.589 8.612)" />
            </g>
            <g style="fill:#fff;fill-opacity:1" clip-path="url(#B)">
                <path style="stroke:none"
                    d="M3.156-7.984q.359.001.688.125.328.128.515.343c.133.149.204.297.204.454a.43.43 0 0 1-.141.312.4.4 0 0 1-.297.125.45.45 0 0 1-.312-.11 2 2 0 0 1-.266-.327 2 2 0 0 0-.344-.391q-.157-.14-.437-.14a.66.66 0 0 0-.532.25c-.136.155-.203.46-.203.906v1.265h1.047v.344H2.031v3.64q-.002.44.078.657a.46.46 0 0 0 .282.265c.125.043.304.063.547.063V0H.265v-.203c.218 0 .382-.02.5-.063a.5.5 0 0 0 .25-.28q.093-.202.093-.641v-3.641H.391v-.344h.718v-.531q0-.687.297-1.203.295-.527.766-.797.468-.282.984-.281m0 0"
                    transform="translate(.25 23.473)" />
            </g>
            <g style="fill:#fff;fill-opacity:1">
                <path style="stroke:none"
                    d="M2.625-5.297q.856.002 1.39.578.547.579.548 1.516h-3.5v.14q0 .598.234 1.141.234.535.656.875.435.328.969.328 1.062.001 1.484-1.187l.157.093c-.118.606-.36 1.086-.735 1.438A1.84 1.84 0 0 1 2.5.156Q1.92.154 1.422-.14.919-.45.609-1.047.312-1.656.313-2.5q0-.825.28-1.453c.196-.426.47-.754.813-.985q.528-.358 1.219-.359m-.312.39q-.471 0-.813.376-.346.363-.406.984h2.328c-.024-.406-.125-.734-.313-.984q-.281-.375-.796-.375m0 0"
                    transform="translate(3.962 23.473)" />
            </g>
            <g style="fill:#fff;fill-opacity:1">
                <path style="stroke:none"
                    d="M2.656-5.297q1.671.002 1.672 1.344V-1q0 .298.094.39.093.094.234.094a.55.55 0 0 0 .313-.093c.093-.063.234-.18.422-.36v.282q-.423.468-.703.656a.94.94 0 0 1-.547.187.7.7 0 0 1-.532-.218c-.125-.157-.187-.383-.187-.688q-.485.47-.906.688a1.96 1.96 0 0 1-.907.218c-.336 0-.609-.12-.828-.36a1.33 1.33 0 0 1-.328-.905q0-.89.938-1.375.903-.482 2.03-.875v-.313q-.002-.45-.062-.719a.72.72 0 0 0-.28-.421q-.224-.171-.657-.172-.44.001-.656.218a.7.7 0 0 0-.203.516l.015.297a.427.427 0 0 1-.437.437.5.5 0 0 1-.36-.125c-.086-.082-.125-.195-.125-.343q0-.563.516-.938.528-.375 1.484-.375M1.391-1.39q0 .376.234.641.246.268.61.266.56.002 1.187-.547v-2.032c-.524.22-.922.407-1.203.563s-.492.324-.625.5a.93.93 0 0 0-.203.61m0 0"
                    transform="translate(8.844 23.473)" />
            </g>
            <g style="fill:#fff;fill-opacity:1">
                <path style="stroke:none"
                    d="M1.844-6.812h.187v1.64h1.172v.344H2.031v3.594a.9.9 0 0 0 .156.515q.17.235.47.235a.7.7 0 0 0 .359-.094q.154-.094.343-.328h.22q-.299.532-.626.797-.329.264-.781.265a.96.96 0 0 1-.781-.36q-.282-.356-.282-.983v-3.641H.33v-.219q.56-.232.952-.687.387-.451.563-1.078m0 0"
                    transform="translate(14.094 23.473)" />
            </g>
            <g style="fill:#fff;fill-opacity:1">
                <path style="stroke:none"
                    d="M2.047-1.469q-.001.41.25.657a.8.8 0 0 0 .594.25q.326.002.672-.172.34-.172.656-.5v-3.094q0-.64-.75-.64h-.11v-.204h1.782v3.969q-.001.206.109.406a.41.41 0 0 0 .375.203c.094 0 .219-.023.375-.078v.203l-1.562.61h-.22V-.953h-.015Q3.296.159 2.47.157q-.441-.001-.735-.22a1.4 1.4 0 0 1-.453-.546 1.8 1.8 0 0 1-.14-.688v-2.937q-.002-.437-.203-.578-.188-.155-.61-.157H.203v-.203h1.844Zm0 0"
                    transform="translate(17.805 23.473)" />
            </g>
            <g style="fill:#fff;fill-opacity:1">
                <path style="stroke:none"
                    d="M2.063-4.25h.015c.195-.332.406-.586.625-.766q.342-.28.766-.28.311 0 .5.187a.62.62 0 0 1 .187.453.47.47 0 0 1-.156.36.45.45 0 0 1-.328.14.5.5 0 0 1-.266-.063 1.6 1.6 0 0 1-.203-.156l-.078-.062a.4.4 0 0 0-.11-.094.3.3 0 0 0-.124-.032.58.58 0 0 0-.453.22 3.5 3.5 0 0 0-.376.562v2.594q0 .438.094.656.093.205.297.265.2.064.594.063V0H.297v-.203h.062q.407 0 .594-.203.188-.201.188-.735v-2.53c0-.352-.04-.583-.11-.688q-.11-.155-.39-.157a.55.55 0 0 0-.266.063l-.078-.188 1.562-.656h.204Zm0 0"
                    transform="translate(23.958 23.473)" />
            </g>
            <g style="fill:#fff;fill-opacity:1">
                <path style="stroke:none"
                    d="M2.625-5.297q.856.002 1.39.578.547.579.548 1.516h-3.5v.14q0 .598.234 1.141.234.535.656.875.435.328.969.328 1.062.001 1.484-1.187l.157.093c-.118.606-.36 1.086-.735 1.438A1.84 1.84 0 0 1 2.5.156Q1.92.154 1.422-.14.919-.45.609-1.047.312-1.656.313-2.5q0-.825.28-1.453c.196-.426.47-.754.813-.985q.528-.358 1.219-.359m-.312.39q-.471 0-.813.376-.346.363-.406.984h2.328c-.024-.406-.125-.734-.313-.984q-.281-.375-.796-.375m0 0"
                    transform="translate(28.104 23.473)" />
            </g>
            <g style="fill:#fff;fill-opacity:1">
                <path style="stroke:none"
                    d="M2.094-5.297c.219 0 .437.04.656.11q.234.08.375.078.107 0 .219-.063h.203v1.578h-.203c-.063-.414-.211-.75-.438-1q-.346-.388-.828-.39-.393.002-.64.203a.59.59 0 0 0-.25.5c0 .18.039.328.125.453q.139.175.39.328.246.157.797.438.685.362 1.047.718.375.361.375.969 0 .534-.281.875-.27.346-.657.5-.377.154-.718.156Q1.92.154 1.359 0a1.5 1.5 0 0 0-.343-.078Q.873-.078.813 0H.578v-1.734h.188q.076.69.5 1.125.42.421 1 .422c.238 0 .441-.07.609-.22a.75.75 0 0 0 .25-.562q0-.386-.219-.61a2.1 2.1 0 0 0-.5-.39c-.18-.101-.297-.172-.36-.203a8 8 0 0 0-.312-.172 10 10 0 0 1-.64-.406 1.6 1.6 0 0 1-.407-.437Q.53-3.47.532-3.891q0-.622.438-1.015.45-.388 1.125-.39m0 0"
                    transform="translate(32.986 23.473)" />
            </g>
            <g style="fill:#fff;fill-opacity:1">
                <path style="stroke:none"
                    d="M1.516-1.078q.246 0 .422.187a.56.56 0 0 1 .187.422.6.6 0 0 1-.187.438.56.56 0 0 1-.422.187.6.6 0 0 1-.438-.187.6.6 0 0 1-.187-.438q0-.246.187-.422a.6.6 0 0 1 .438-.187m0 0"
                    transform="translate(36.563 23.473)" />
            </g>
        </g>
        <mask id="p">
            <g filter="url(#m)">
                <path style="fill:#000;fill-opacity:.64;stroke:none" d="M0 0h351.75v385.5H0z" />
            </g>
        </mask>
    </g>
</svg>