<?xml version="1.0" encoding="UTF-8" standalone="no"?><!DOCTYPE svg PUBLIC "-//W3C//DTD SVG 1.1//EN" "http://www.w3.org/Graphics/SVG/1.1/DTD/svg11.dtd"><svg width="100%" height="100%" viewBox="0 0 459 427" version="1.1" xmlns="http://www.w3.org/2000/svg" xmlns:xlink="http://www.w3.org/1999/xlink" xml:space="preserve" xmlns:serif="http://www.serif.com/" style="fill-rule:evenodd;clip-rule:evenodd;stroke-linejoin:round;stroke-miterlimit:2;"><path d="M75.013,263.004c4.21,5.72 10.44,12.62 19.32,18.64c5.35,3.63 13.28,8.89 25.01,11.01c9.48,1.72 17.47,0.67 22.42,-0.38c0.19,3.64 0.8,8.9 2.74,14.91c1.51,4.7 3.37,8.41 5.23,11.67c7.11,12.47 16.92,22.97 20.24,26.49c11.93,12.63 19.72,20.89 32.43,31.11c13.5,10.85 24.66,17.58 33.7,22.98c5.27,3.15 19,11.16 35.34,18.04c6.19,2.61 11.87,4.68 18.45,6.44c5.6,1.5 10.41,2.39 13.96,2.94c5.9,-0.29 17.89,-1.67 30.42,-9.32c10.62,-6.48 16.9,-14.57 20.07,-19.34c11.25,-3.89 29.65,-11.81 45.71,-27.26c12.59,-12.12 17.4,-22.76 18.43,-25.12c2.66,-6.09 3.98,-11.52 4.69,-15.4c2.11,-1.75 4.92,-4.42 7.54,-8.2c0.81,-1.17 3.52,-5.2 5.57,-11.51c3.51,-10.82 2.46,-20.28 1.78,-25.89c-0.61,-5.04 -2.02,-12.29 -5.56,-20.52c3.18,-1.91 7.9,-5.23 12.3,-10.57c5.79,-7.02 8.08,-13.97 10.02,-20.03c1.36,-4.25 3.28,-10.27 3.61,-18.27c0.2,-4.92 0.89,-21.63 -10.62,-36.09c-2.65,-3.33 -7.54,-8.55 -15.61,-12.8c-0.08,-1.46 -0.15,-2.93 -0.23,-4.39c0.53,-0.6 7.71,-9 4.74,-19.18c-0.44,-1.51 -2.65,-8.37 -9.61,-11.65c-3.6,-1.7 -6.96,-1.73 -8.75,-1.61c-0.7,-1.62 -1.39,-3.25 -2.09,-4.87c-0.51,-3.15 -1.44,-7.51 -3.21,-12.49c-0.65,-1.83 -2.59,-7.06 -7.62,-15.41c-2.51,-4.17 -6.99,-11.51 -14.46,-19.82c-7.56,-8.42 -20.43,-20.31 -39.22,-28.93c-6.31,-2.89 -11.8,-4.74 -15.69,-5.89c2.78,-1.75 5.67,-3.5 8.69,-5.24c4.42,-2.55 8.73,-4.87 12.9,-6.97c0.23,-0.3 0.56,-0.85 0.66,-1.59c0.22,-1.7 -0.97,-2.93 -1.14,-3.1c-4.37,-3.37 -11.5,-8.01 -21.24,-10.91c-4.29,-1.28 -20.25,-6.04 -34.66,-0.91c-7.45,2.65 -15.59,3.76 -22.41,7.74c-0.17,0.1 -1.13,0.68 -1.4,0.42c-0.15,-0.14 -0.05,-0.49 0.05,-0.73c2.96,-3.3 6.03,-7.15 9,-11.57c1.24,-1.86 2.38,-3.68 3.42,-5.46c0.69,-0.93 0.86,-2.06 0.4,-2.81c-0.47,-0.75 -1.47,-0.98 -1.87,-1.07c-0.43,-0.1 -0.79,-0.1 -1.05,-0.09c-2.52,0.1 -6.1,0.37 -10.33,1.11c-2.03,0.36 -9.19,1.69 -21.69,7.13c-18.53,8.07 -28.68,16.42 -30.64,18.06c-3.2,2.68 -5.28,4.84 -6.6,6.3c-4.08,4.52 -6.76,8.82 -8.43,11.88c-15.63,5.51 -27.16,12.62 -34.65,18c-10.78,7.75 -17.48,15.01 -19.12,16.81c-1.89,2.08 -8.04,9.01 -14.29,19.56c-5.03,8.5 -11.86,22.28 -15.78,41.12c-3.24,-4.95 -9,-12.42 -18.27,-19.02c-8.18,-5.82 -16.01,-8.79 -21.39,-10.35c-6.01,-1.16 -10.9,-1.52 -14.16,-1.63c-4.44,-0.16 -7.17,0.08 -17.89,0.67c-5.62,0.31 -10.12,0.54 -12.76,0.67c-7.67,-0.05 -13.14,-1.77 -16.77,-3.39c-6.19,-2.76 -11.73,-5.24 -14.85,-7.52c-0.29,-0.21 -1.89,-0.91 -5.08,-2.3c-0.52,-0.23 -1.41,-0.6 -2.19,-0.21c-0.56,0.28 -0.84,0.83 -0.97,1.18c-0.68,2.29 -1.37,5.38 -1.52,9.07c-0.16,3.78 0.28,6.99 0.79,9.36c0.96,7.34 4.6,27.49 21.19,43.56c12.13,11.75 26.07,16.37 31.37,18.07c6.58,2.1 12.34,3.06 16.56,3.53c-2.07,2.92 -4.49,6.91 -6.48,11.97c-2.14,5.43 -3.1,10.33 -3.54,14.04c-2.92,5.58 -8.54,14.19 -18.49,20.52c-9.48,6.03 -19.44,7.78 -24.79,8.73c-2.52,0.44 -4.65,0.69 -6.13,0.84c-1.15,0.09 -2.15,0.79 -2.6,1.82c-0.5,1.14 -0.23,2.5 0.67,3.41c2.86,3.9 13.23,17.04 32.26,21.89c16.1,4.1 29.32,-0.06 34.21,-1.87l-0.04,-0.01Z" style="fill:#210c01;fill-rule:nonzero;"/><path d="M25.283,245.914c4.49,-0.87 11.08,-2.69 18.15,-6.8c8.07,-4.68 13.34,-10.34 16.35,-14.13c0.59,4.12 1.56,8.87 3.15,14.04c1.85,6.01 4.1,11.11 6.24,15.24c-4.03,1.31 -10.93,2.97 -19.42,2.03c-12.49,-1.38 -21,-7.54 -24.47,-10.38Z" style="fill:#416800;fill-rule:nonzero;"/><path d="M27.433,247.574c2.07,0.25 4.7,0.37 7.72,0c4.75,-0.59 8.46,-2.14 10.86,-3.4c3.56,-1.94 5.97,-4.17 7.42,-5.74c1.84,-1.98 3.85,-4.19 4.85,-7.7c0.54,-1.88 0.62,-3.52 0.6,-4.63c-3.39,4.03 -9.32,10.01 -18.33,14.59c-5.78,2.93 -11.14,4.43 -15.26,5.23c0.71,0.55 1.43,1.1 2.14,1.65Z" style="fill:#94ef00;fill-rule:nonzero;"/><path d="M143.093,280.814c-4.12,1.04 -10.76,2.2 -18.76,1.14c-12.85,-1.7 -21.52,-8.11 -26.63,-11.98c-3.79,-2.87 -10.32,-8.46 -15.74,-16.83c-13.04,-20.15 -10.45,-42.26 -9.38,-49.09c1.12,-4.64 3.38,-11.04 8.16,-17.36c2.79,-3.69 7.91,-10.46 17.28,-13.67c5.03,-1.73 9.51,-1.82 12.37,-1.65c3.62,0.48 12.67,2.18 21.16,9.43c8.87,7.57 11.89,16.73 12.86,20.22c0.54,3.43 0.98,7.25 1.19,11.41c0.21,4.02 0.17,7.74 0,11.11c-2.24,-3.89 -5.44,-8.64 -9.92,-13.49c-4.06,-4.38 -8.09,-7.69 -11.52,-10.12c-4.55,-3.01 -8.73,-4.48 -11.61,-5.23c-3.33,-0.88 -6.46,-1.7 -10.34,-1c-5.51,1 -9.2,4.48 -10.98,6.49c-1.82,2.49 -2.65,4.78 -3.05,6.25c-0.83,2.99 -0.71,5.53 -0.59,8.1c0.1,2.11 0.35,3.85 0.57,5.05c0.73,-3.19 2.57,-8.79 7.49,-12.98c1.14,-0.97 2.71,-2.28 5.14,-3.04c5.48,-1.72 10.46,0.9 11.85,1.7c2.17,1.08 4.96,2.75 7.79,5.28c2.26,2.03 3.95,4.06 5.17,5.78c-1.59,0.49 -4.22,1.58 -6.33,4.06c-1.75,2.05 -2.4,4.19 -2.95,5.97c-0.68,2.19 -0.89,4.11 -0.96,5.47c-0.1,3.26 0.11,10.26 4.06,17.84c3.69,7.08 8.81,11.14 11.48,12.98c1.83,1.41 4.14,2.96 6.96,4.39c2.47,1.25 4.78,2.14 6.77,2.77c-0.34,1.42 -0.65,2.95 -0.9,4.59c-0.36,2.31 -0.55,4.48 -0.64,6.44l0,-0.03Z" style="fill:#c2824d;fill-rule:nonzero;"/><path d="M88.173,219.564c2.36,-2.77 5.24,-5.79 8.73,-8.82c2.32,-2.01 4.58,-3.74 6.72,-5.23c-0.6,6.33 -0.86,18.3 4.54,31.72c7.42,18.45 20.95,28.26 26.28,31.72c-5.26,-0.24 -12.49,-1.18 -20.55,-4.18c-5.23,-1.95 -9.53,-4.29 -12.9,-6.45c-2.84,-3.6 -6.19,-8.69 -8.72,-15.29c-1.26,-3.29 -2.1,-6.37 -2.66,-9.11c-0.4,-1.99 -0.75,-4.17 -1.01,-6.51c-0.31,-2.83 -0.43,-5.47 -0.43,-7.86l0,0.01Z" style="fill:#ce9256;fill-rule:nonzero;"/><path d="M102.673,269.824c-4.34,-2.87 -23.37,-16.15 -27.76,-40.57c-1.93,-10.74 -0.35,-19.87 1.21,-25.67c1.42,-4.48 4.27,-11.44 10.13,-18.3c1.2,-1.41 2.42,-2.68 3.62,-3.83c5.29,-5.05 12.64,-7.38 19.86,-6.2c0.05,0 0.1,0.02 0.16,0.03c8.61,1.45 14.4,5.9 16.95,8.13c2.64,2.32 5.43,5 8.25,8.06c3.91,4.26 7.11,8.42 9.71,12.21c0.27,3.12 0.42,6.53 0.35,10.21c-0.04,2.27 -0.17,4.44 -0.35,6.48c-3.27,-4.39 -7.42,-9.31 -12.62,-14.28c-4.09,-3.92 -8.1,-7.16 -11.78,-9.83c-1.69,-1.32 -6.17,-4.46 -12.71,-4.9c-5.07,-0.34 -9,1.11 -10.96,1.98c-1.18,0.54 -3.9,1.99 -5.93,5.11c-1.66,2.57 -2.06,5.05 -2.18,6.33c-1.01,6.95 -1.59,16.28 -0.05,27.08c2.48,17.45 9.32,30.45 14.08,37.95l0.02,0.01Z" style="fill:#f0b376;fill-rule:nonzero;"/><path d="M150.893,243.194c-0.13,-0.67 -0.39,-1.61 -0.96,-2.61c-0.86,-1.51 -1.98,-2.41 -2.65,-2.87c-2.61,-2.12 -5.22,-4.24 -7.82,-6.36c-1.34,-0.94 -3,-1.96 -4.97,-2.89c-1.5,-0.7 -2.91,-1.23 -4.18,-1.63c-0.39,0.5 -1,1.36 -1.52,2.52c-0.97,2.17 -1.6,5.32 0.83,15.27c0.49,2 1.23,4.8 2.3,8.12c1.16,2.61 3.11,6.21 6.36,9.83c2.65,2.95 5.34,5 7.48,6.38c0.24,-1.69 0.82,-4.26 2.37,-7.01c1.12,-2 2.41,-3.48 3.44,-4.49c-0.15,9.5 0.82,25.77 8.66,43.79c6.95,15.98 16.13,26.03 21.92,32.26c14.23,15.31 29.83,24.8 42.43,30.66c-5.26,-6.1 -12.16,-14.97 -18.81,-26.57c-5.66,-9.87 -11.76,-20.54 -14.94,-35.8c-1.57,-7.55 -3.08,-19.41 -0.97,-34.19c0.9,-4.62 3.14,-12.96 9.36,-21.47c5.97,-8.17 12.87,-12.77 16.92,-15.06c-4.5,-1.39 -10.96,-3.44 -18.68,-6.16c-11.33,-3.98 -17,-5.97 -23.14,-9.11c-5.52,-2.82 -13.25,-7.43 -21.62,-14.95c-0.61,14.11 -1.22,28.22 -1.82,42.34l0.01,0Z" style="fill:#4a2610;fill-rule:nonzero;"/><path d="M193.973,229.984c-2.82,1.33 -14.96,7.44 -20.94,22.03c-5.82,14.17 -1.87,26.69 -0.81,29.73c0.39,1.17 1.45,2 2.65,2.08c1.1,0.07 2.16,-0.49 2.75,-1.44c0.13,-5.43 0.93,-13.08 3.92,-21.71c3.71,-10.72 9.22,-18.38 13.11,-22.97c0.18,-0.22 1.92,-2.4 1.15,-5.04c-0.42,-1.46 -1.4,-2.32 -1.83,-2.66l0,-0.02Z" style="fill:#5b2b12;fill-rule:nonzero;"/><path d="M11.033,112.634c0.51,5.85 2.66,21.33 14.65,35.65c14.85,17.74 34.52,21.39 39.68,22.19c3.76,0.68 10.24,1.33 17.8,-0.69c4.7,-1.25 8.39,-3.15 11,-4.78c0.96,-0.31 1.91,-0.62 2.87,-0.93l-2.56,-1.79c-0.33,-0.27 -0.9,-0.8 -1.3,-1.66c-0.33,-0.71 -0.42,-1.35 -0.44,-1.76c-1.37,-1.13 -3.44,-2.72 -6.12,-4.35c-4.79,-2.92 -8.9,-4.38 -12.72,-5.7c-2.59,-0.9 -6.12,-2 -10.43,-2.95c1.76,-0.14 4.27,-0.23 7.26,0.02c1.97,0.17 4.13,0.48 8.34,1.52c2.36,0.58 7.53,1.92 15.48,4.74c2.26,0.8 5.39,1.95 9.1,3.46c2.37,-0.47 3.92,-1.36 4.88,-2.06c1.94,-1.42 2.42,-2.74 4.58,-4.77c1.58,-1.48 3.08,-2.42 4.06,-2.97c-2.56,-4.29 -8.01,-12.14 -17.83,-18.35c-11.66,-7.38 -23.01,-8.35 -28.08,-8.47c-5.2,0.66 -10.77,1.19 -16.69,1.49c-4.87,0.25 -9.52,0.34 -13.92,0.29c-4.44,-0.2 -10.15,-0.89 -16.54,-2.77c-5.25,-1.55 -9.63,-3.52 -13.07,-5.36Z" style="fill:#416800;fill-rule:nonzero;"/><path d="M117.153,145.794c-0.94,0.53 -2.39,1.43 -3.91,2.83l-5.26,-3.57l-9.41,-6.28l-60.08,-5.47l-20.89,-13.84l-6.12,-3.04c-0.22,-1.51 -0.36,-2.79 -0.45,-3.79c3.44,1.84 7.82,3.8 13.07,5.35c6.39,1.89 12.09,2.57 16.54,2.77c4.4,0.04 9.05,-0.04 13.92,-0.29c5.92,-0.31 11.49,-0.83 16.69,-1.49c5.07,0.12 16.42,1.09 28.08,8.47c9.82,6.21 15.27,14.05 17.83,18.35l-0.01,0Z" style="fill:#94ef00;fill-rule:nonzero;"/><path d="M17.603,119.464c0.84,4.9 2.86,12.66 8.2,20.63c8.97,13.4 21.58,18.81 26.52,20.63c2.37,1.16 7.33,3.21 13.91,3.03c6.6,-0.18 11.47,-2.52 13.76,-3.82c-2.56,-2.12 -5.48,-4.29 -8.78,-6.41c-7.17,-4.59 -14.04,-7.54 -19.8,-9.48c10.44,-0.25 20.87,-0.5 31.31,-0.75c2.31,0.19 4.73,0.46 7.24,0.84c5.71,0.86 10.85,2.11 15.38,3.5c6.08,1.78 7.64,1.56 7.91,1.01c0.53,-1.09 -3.59,-4.34 -10.57,-9.84c-2.04,-1.61 -3.06,-2.41 -3.98,-3.06c-3.82,-2.71 -10.21,-6.52 -18.9,-8.62c-6.7,-1.62 -12.52,-1.68 -16.65,-1.4c-3.18,0.1 -7.45,0.16 -12.49,-0.03c-4.38,-0.16 -9,-0.33 -14.29,-1.13c-4.7,-0.71 -11.19,-2.1 -18.75,-5.08l-0.02,-0.02Z" style="fill:#6fb300;fill-rule:nonzero;"/><path d="M120.583,154.944c-0.73,0.79 -1.54,1.77 -2.33,2.95c-0.7,1.06 -1.25,2.07 -1.66,2.96c0.63,0.47 1.41,0.99 2.36,1.46c1.34,0.67 2.58,1.04 3.56,1.25c-0.4,-1.08 -0.78,-2.3 -1.11,-3.64c-0.44,-1.83 -0.69,-3.51 -0.82,-4.98Z" style="fill:#e2a161;fill-rule:nonzero;"/><path d="M138.593,149.934c0.18,-9.92 1.83,-23.2 8.03,-37.3c18.25,-41.47 60.6,-55.37 69.04,-57.95c1.45,-2.67 3.96,-6.9 7.79,-11.53c10.53,-12.76 23.03,-18.98 31.24,-22.96c3.53,-1.71 8.77,-4.03 15.44,-6.17c-2.49,3.44 -5.4,8.14 -7.83,14.08c-2.38,5.8 -3.6,11.06 -4.25,15.18c8.22,-4.76 15.38,-8.17 20.69,-10.49c9.28,-4.06 18.06,-7.83 30.14,-9.63c9.84,-1.47 15.31,-0.65 17.88,-0.16c5.95,1.14 10.57,3.3 13.61,5.01c-3.52,2.57 -7.15,5.13 -10.91,7.67c-12.54,8.49 -24.84,15.7 -36.62,21.84c7.14,-2.16 14.29,-4.32 21.43,-6.48c5.03,-0.26 12.55,-0.12 21.22,2.16c11.13,2.94 18.43,7.9 27.32,13.94c6.69,4.55 15.15,10.4 23.7,20.64c6.11,7.32 10.08,14.26 12.57,19.28c-5.11,-3.22 -14.07,-7.73 -25.54,-7.81c-19.36,-0.13 -37.74,12.39 -48.26,31.93c-1.51,-2.25 -3.73,-5.27 -6.8,-8.52c-1.54,-1.63 -7.08,-7.34 -17.17,-13.09c-13.91,-7.93 -26.93,-10.52 -31.09,-11.26c-13.85,-2.46 -35.26,-6.25 -54.73,6.05c-14.73,9.32 -21.44,23.49 -24.32,31.28c-7.12,1.3 -14.63,2.92 -22.47,4.93c-10.95,2.82 -21,6.01 -30.1,9.33l-0.01,0.03Z" style="fill:#74391b;fill-rule:nonzero;"/><path d="M399.073,107.074c-3.12,-1.97 -7.67,-4.41 -13.34,-6.03c-8,-9.34 -15.61,-16.19 -21.36,-20.88c-8.9,-7.26 -19.26,-15.57 -34.84,-21.36c-8.81,-3.27 -16.71,-4.78 -22.66,-5.51c2.47,-0.75 4.93,-1.49 7.4,-2.24c5.03,-0.26 12.55,-0.12 21.22,2.16c11.13,2.94 18.43,7.9 27.32,13.94c6.69,4.55 15.15,10.4 23.7,20.64c6.11,7.32 10.08,14.26 12.57,19.28l-0.01,0Z" style="fill:#ae683c;fill-rule:nonzero;"/><path d="M257.953,18.674c-4.44,2.62 -10.46,6.85 -16.19,13.42c-8.04,9.23 -11.7,18.7 -13.41,24.41c-7.18,1.48 -17.7,4.52 -28.99,11.21c-12.33,7.31 -20.49,15.95 -25.27,21.88c-1.19,1.27 -12.98,14.32 -9.21,31.27c2.17,9.77 8.39,15.76 10.97,17.98c-2.35,0.55 -4.73,1.13 -7.14,1.75c-10.95,2.81 -21,6.01 -30.1,9.32c0.18,-9.91 1.83,-23.19 8.03,-37.3c18.25,-41.46 60.6,-55.37 69.04,-57.95c1.45,-2.67 3.96,-6.89 7.79,-11.53c10.53,-12.76 23.03,-18.98 31.24,-22.96c0.96,-0.46 2.05,-0.97 3.25,-1.51l-0.01,0.01Z" style="fill:#49260f;fill-rule:nonzero;"/><path d="M200.883,134.924c1.65,-4.16 5.52,-12.26 13.87,-19.28c6.84,-5.75 13.76,-8.31 17.88,-9.49c6.29,-1.23 14.59,-2.15 24.23,-1.34c11.69,0.98 20.18,4.06 25.7,6.11c6.88,2.55 13.94,5.24 21.67,11.23c5.56,4.31 9.44,8.75 11.94,12.01c-24.53,-0.84 -50.07,-1.08 -76.56,-0.55c-13.17,0.26 -26.09,0.71 -38.74,1.31l0.01,0Z" style="fill:#fec579;fill-rule:nonzero;"/><path d="M239.443,105.094c-3.66,2.05 -7.6,4.53 -11.67,7.54c-3.56,2.63 -6.71,5.29 -9.45,7.83c-2.55,2.36 -4.49,5.31 -5.59,8.6c0,0.02 -0.01,0.04 -0.02,0.06c-0.63,1.93 -1.05,3.73 -1.32,5.33c-3.52,0.14 -7.02,0.29 -10.51,0.46c1.65,-4.16 5.52,-12.26 13.87,-19.28c6.84,-5.75 13.76,-8.31 17.88,-9.49c2.06,-0.4 4.34,-0.77 6.81,-1.06l0,0.01Z" style="fill:#eaa65e;fill-rule:nonzero;"/><path d="M316.183,134.154c-3.38,-0.12 -6.78,-0.22 -10.2,-0.31c-1.8,-2.12 -4,-4.42 -6.64,-6.73c-2.47,-2.15 -4.87,-3.91 -7.05,-5.34c-3.85,-2.34 -8.4,-4.79 -13.64,-7.06c-5.5,-2.38 -10.62,-4.08 -15.13,-5.3c-5.4,-0.85 -11.04,-1.63 -16.91,-2.29c-4.36,-0.49 -8.61,-0.89 -12.75,-1.22c6.13,-1.11 13.98,-1.86 23,-1.11c11.69,0.98 20.18,4.06 25.7,6.11c6.88,2.55 13.94,5.24 21.67,11.23c5.56,4.31 9.44,8.75 11.94,12.01l0.01,0.01Z" style="fill:#fddda6;fill-rule:nonzero;"/><path d="M332.963,134.154c2.43,-4.49 9.03,-15.18 22.27,-21.68c7.1,-3.48 13.68,-4.57 18.16,-4.91c3.6,0.16 12.06,1.01 20.64,6.79c9.06,6.11 13.04,14.21 14.44,17.5c-12.41,1.29 -25.76,2.22 -39.96,2.59c-12.52,0.33 -24.4,0.18 -35.55,-0.3l0,0.01Z" style="fill:#fec579;fill-rule:nonzero;"/><path d="M408.473,131.864c-3.08,0.32 -6.21,0.62 -9.4,0.89c-0.94,-2.61 -2.92,-7.07 -7.03,-11.36c-4.36,-4.54 -9.03,-6.73 -11.66,-7.74c-2.77,-1.29 -6.9,-2.81 -12.08,-3.32c-3.23,-0.32 -6.07,-0.16 -8.35,0.14c2.1,-0.77 4.57,-1.51 7.39,-2.07c2.27,-0.45 4.32,-0.69 6.05,-0.83c3.6,0.16 12.06,1.01 20.64,6.79c9.07,6.11 13.04,14.21 14.44,17.5Z" style="fill:#fddea8;fill-rule:nonzero;"/><path d="M132.483,169.644c7.85,2.34 14.47,4.23 19.54,5.65c7.82,2.19 9.6,2.61 11.85,3.01c3.88,0.69 6.33,0.85 10.85,1.91c3.14,0.73 5.66,1.53 7.32,2.09c-1.23,-0.68 -3.18,-1.72 -5.62,-2.86c-7.62,-3.58 -13.29,-5.06 -24.52,-8.17c-3.55,-0.99 -9.5,-2.65 -17.14,-4.84c1.42,-0.29 2.88,-0.57 4.38,-0.82c4.15,-0.69 8.09,-1.1 11.78,-1.32c2.73,0.13 4.95,0.29 6.47,0.4c3.26,0.24 4.53,0.4 6.59,0.4c2.46,0 4.46,-0.23 5.75,-0.42c-1.43,-0.04 -3.68,-0.15 -6.43,-0.42c-3.57,-0.36 -5.32,-0.73 -8.99,-1.2c-1.91,-0.24 -4.74,-0.56 -8.24,-0.78c-2.13,0.01 -4.34,-0.02 -6.64,-0.11c-3.22,-0.13 -6.28,-0.37 -9.16,-0.68c1.65,-0.88 4.2,-2.18 7.43,-3.51c2.78,-1.14 4.96,-1.87 6.4,-2.33c18,-5.82 28.37,-8.11 28.37,-8.11c5.65,-1.25 12.7,-2.59 20.9,-3.66c5.13,-0.44 13.19,-1.08 23.07,-1.6c26.17,-1.38 43.67,-0.81 74.98,-0.24c33.09,0.6 49.64,0.9 61.5,0.71c28.45,-0.46 51.52,-2.29 66.49,-3.74c0.5,0.04 4.25,0.4 6.57,3.76c2.13,3.09 1.45,6.38 1.33,6.92c-0.23,0.97 -0.7,2.49 -1.7,4.12c-1.11,1.81 -2,2.34 -2.87,3.99c-0.5,0.94 -1.08,2.45 -1.17,4.64c-0.16,1.64 -0.3,3.29 -0.44,4.95c-0.24,2.83 -0.45,5.62 -0.63,8.38c-0.7,1.73 -1.78,3.9 -3.41,6.18c-1.8,2.5 -3.69,4.33 -5.22,5.59c1.18,0 2.73,-0.12 4.46,-0.6c2.86,-0.8 4.89,-2.2 6.06,-3.17c-0.34,3.32 -0.46,6.03 -0.51,7.88c-0.13,4.82 0.15,6.65 -0.49,9.56c-0.66,3.02 -1.91,5.32 -2.84,6.78c-2.41,3.44 -6.36,7.94 -12.43,11.2c-17.78,9.53 -37.2,-0.52 -39.34,-1.67c-2.25,-1.21 -4.05,-2.22 -5.22,-2.88c-3,-1.7 -4.05,-2.36 -5.86,-2.93c-1.8,-0.56 -3.36,-0.72 -4.38,-0.77c-1.17,0.04 -2.77,0.21 -4.58,0.78c-2.02,0.64 -3.56,1.56 -4.58,2.27c-0.65,-0.1 -1.75,-0.28 -3.1,-0.54c-3.51,-0.68 -4.55,-1.12 -6.34,-1.01c-0.82,0.05 -2.08,0.24 -3.61,0.93c-2.21,0.61 -5.54,1.52 -9.61,2.57c-8.26,2.13 -9.69,2.3 -14.26,3.5c-11.25,2.97 -11.82,4.41 -19.67,6.18c-3.5,0.79 -8.85,1.74 -15.7,1.88c-20.23,0.06 -36.5,-2.45 -47.82,-4.87c-16.37,-3.5 -26.36,-7.66 -29.82,-9.15c-7.32,-3.17 -13.2,-6.46 -17.43,-9.04c-7.29,-4.6 -15.29,-10.25 -23.55,-17.15c-7.24,-6.04 -13.48,-12.04 -18.8,-17.66l0.03,0.02Z" style="fill:#c61f0f;fill-opacity:0.13;fill-rule:nonzero;"/><path d="M427.343,149.654c-0.23,0.97 -0.7,2.49 -1.7,4.12c-1.11,1.81 -2,2.34 -2.87,3.99c-0.49,0.94 -1.08,2.44 -1.17,4.64c-0.15,1.64 -0.3,3.29 -0.44,4.95c-0.24,2.83 -0.45,5.62 -0.64,8.38c-0.63,1.54 -1.55,3.44 -2.9,5.45c-0.16,0.24 -0.33,0.48 -0.51,0.73c-1.8,2.5 -3.69,4.33 -5.22,5.59c1.18,0 2.73,-0.11 4.46,-0.6c2.85,-0.8 4.89,-2.2 6.06,-3.17c-0.23,2.32 -0.37,4.34 -0.44,5.98c-0.03,0.71 -0.05,1.34 -0.07,1.9c-0.13,4.82 0.15,6.65 -0.49,9.56c-0.66,3.02 -1.9,5.32 -2.84,6.78c-2.07,2.96 -5.29,6.71 -10.01,9.77c-0.77,0.5 -1.57,0.97 -2.42,1.43c-17.78,9.54 -37.2,-0.51 -39.34,-1.67c-2.25,-1.21 -4.05,-2.22 -5.22,-2.88c-3,-1.7 -4.05,-2.36 -5.86,-2.93c-1.8,-0.56 -3.36,-0.72 -4.38,-0.77c-1.17,0.03 -2.77,0.21 -4.58,0.78c-2.02,0.64 -3.56,1.55 -4.58,2.28c-0.65,-0.1 -1.75,-0.28 -3.1,-0.54c-3.51,-0.68 -4.55,-1.12 -6.34,-1.01c-0.82,0.05 -2.08,0.24 -3.61,0.93c-2.21,0.61 -5.54,1.52 -9.61,2.57c-8.26,2.13 -9.69,2.3 -14.25,3.5c-11.25,2.97 -11.82,4.41 -19.67,6.18c-3.5,0.79 -8.85,1.74 -15.69,1.88c-20.23,0.06 -36.5,-2.45 -47.82,-4.87c-16.37,-3.5 -26.36,-7.66 -29.82,-9.15c-7.32,-3.17 -13.2,-6.45 -17.43,-9.04c-7.29,-4.6 -15.29,-10.25 -23.55,-17.15c-7.24,-6.04 -13.48,-12.04 -18.8,-17.66c7.85,2.34 14.47,4.23 19.54,5.65c7.82,2.2 9.6,2.61 11.85,3.01c3.88,0.69 6.33,0.85 10.85,1.9c3.14,0.73 5.66,1.53 7.32,2.09c-1.23,-0.68 -3.18,-1.72 -5.62,-2.86c-7.62,-3.58 -13.29,-5.06 -24.52,-8.18c-3.55,-0.98 -9.5,-2.65 -17.14,-4.84c1.42,-0.29 2.87,-0.57 4.38,-0.82c4.15,-0.69 8.09,-1.1 11.78,-1.32c2.73,0.13 4.95,0.29 6.47,0.4c3.26,0.24 4.53,0.4 6.59,0.4c2.46,0 4.46,-0.23 5.75,-0.42c-1.43,-0.04 -3.68,-0.15 -6.43,-0.42c-3.58,-0.36 -5.33,-0.73 -8.99,-1.2c-1.91,-0.24 -4.74,-0.56 -8.24,-0.78c-2.13,0.01 -4.34,-0.02 -6.64,-0.11c-3.22,-0.13 -6.28,-0.37 -9.16,-0.68c1.65,-0.88 4.2,-2.18 7.43,-3.51c2.77,-1.15 4.96,-1.87 6.4,-2.33c2.11,-0.68 4.12,-1.32 6.01,-1.9c14.28,-4.42 22.37,-6.21 22.37,-6.21c5.65,-1.25 12.7,-2.59 20.9,-3.66c5.13,-0.44 13.19,-1.08 23.07,-1.6c26.17,-1.38 43.67,-0.81 74.98,-0.24c33.09,0.6 49.64,0.9 61.51,0.71c28.45,-0.46 51.52,-2.29 66.49,-3.74c0.49,0.04 4.25,0.4 6.57,3.76c2.13,3.09 1.45,6.38 1.33,6.92l0,0.03Z" style="fill:#c61f0f;fill-opacity:0.13;fill-rule:nonzero;"/><path d="M427.343,149.654c-0.23,0.97 -0.7,2.49 -1.7,4.12c-1.11,1.81 -2,2.34 -2.87,3.99c-0.49,0.94 -1.08,2.44 -1.17,4.64c-0.15,1.64 -0.3,3.29 -0.44,4.95c-0.24,2.83 -0.45,5.62 -0.64,8.38c-0.63,1.54 -1.55,3.44 -2.9,5.45c-0.16,0.24 -0.33,0.48 -0.51,0.73c-1.8,2.5 -3.69,4.33 -5.22,5.59c1.18,0 2.73,-0.11 4.46,-0.6c2.85,-0.8 4.89,-2.2 6.06,-3.17c-0.23,2.32 -0.37,4.34 -0.44,5.98c-0.03,0.71 -0.05,1.34 -0.07,1.9c-0.13,4.82 0.15,6.65 -0.49,9.56c-0.66,3.02 -1.9,5.32 -2.84,6.78c-1.52,2.18 -3.67,4.79 -6.58,7.23c-1.04,0.88 -2.18,1.73 -3.43,2.54c-0.77,0.5 -1.57,0.97 -2.42,1.43c-17.78,9.54 -37.2,-0.51 -39.34,-1.67c-2.25,-1.21 -4.05,-2.22 -5.22,-2.88c-3,-1.7 -4.05,-2.36 -5.86,-2.93c-1.8,-0.56 -3.36,-0.72 -4.38,-0.77c-1.17,0.03 -2.77,0.21 -4.58,0.78c-2.02,0.64 -3.56,1.55 -4.58,2.28c-0.65,-0.1 -1.75,-0.28 -3.1,-0.54c-3.51,-0.68 -4.55,-1.12 -6.34,-1.01c-0.82,0.05 -2.08,0.24 -3.61,0.93c-2.21,0.61 -5.54,1.52 -9.61,2.57c-8.26,2.13 -9.69,2.3 -14.25,3.5c-11.25,2.97 -11.82,4.41 -19.67,6.18c-3.5,0.79 -8.85,1.74 -15.69,1.88c-20.23,0.06 -36.5,-2.45 -47.82,-4.87c-16.37,-3.5 -26.36,-7.66 -29.82,-9.15c-7.32,-3.17 -13.2,-6.45 -17.43,-9.04c-7.29,-4.6 -15.29,-10.25 -23.55,-17.15c-7.24,-6.04 -13.48,-12.04 -18.8,-17.66c7.85,2.34 14.47,4.23 19.54,5.65c7.82,2.2 9.6,2.61 11.85,3.01c3.88,0.69 6.33,0.85 10.85,1.9c3.14,0.73 5.66,1.53 7.32,2.09c-1.23,-0.68 -3.18,-1.72 -5.62,-2.86c-7.62,-3.58 -13.29,-5.06 -24.52,-8.18c-3.55,-0.98 -9.5,-2.65 -17.14,-4.84c1.42,-0.29 2.87,-0.57 4.38,-0.82c4.15,-0.69 8.09,-1.1 11.78,-1.32c2.73,0.13 4.95,0.29 6.47,0.4c3.26,0.24 4.53,0.4 6.59,0.4c2.46,0 4.46,-0.23 5.75,-0.42c-1.43,-0.04 -3.68,-0.15 -6.43,-0.42c-3.58,-0.36 -5.33,-0.73 -8.99,-1.2c-1.91,-0.24 -4.74,-0.56 -8.24,-0.78c-2.13,0.01 -4.34,-0.02 -6.64,-0.11c-3.22,-0.13 -6.28,-0.37 -9.16,-0.68c1.65,-0.88 4.2,-2.18 7.43,-3.51c2.77,-1.15 4.96,-1.87 6.4,-2.33c2.11,-0.68 4.12,-1.32 6.01,-1.9c14.28,-4.42 22.37,-6.21 22.37,-6.21c5.65,-1.25 12.7,-2.59 20.9,-3.66c3.94,-0.34 9.6,-0.79 16.48,-1.22c2.09,-0.13 4.29,-0.26 6.59,-0.38c26.17,-1.38 43.67,-0.81 74.98,-0.24c33.09,0.6 49.64,0.9 61.51,0.71c28.45,-0.46 51.52,-2.29 66.49,-3.74c0.49,0.04 4.25,0.4 6.57,3.76c2.13,3.09 1.45,6.38 1.33,6.92l0,0.03Z" style="fill:#6fb300;fill-rule:nonzero;"/><path d="M419.613,244.594c1.53,-3.24 3.17,-7.47 4.33,-12.57c1.23,-5.44 1.53,-10.24 1.5,-13.97c2.35,-2.89 3.76,-5.55 4.6,-7.45c3.44,-7.73 3.07,-15.11 2.8,-19.35c-0.11,-1.75 -0.29,-3.19 -0.43,-4.16c0.77,-2.31 1.54,-4.61 2.31,-6.92c3.15,3.28 8.85,10.12 11.59,20.44c2.43,9.16 1.35,16.59 0.6,21.38c-0.67,4.32 -2.24,13.68 -9.02,23.22c-3.28,4.62 -6.77,7.87 -9.38,9.98c-2.97,-3.53 -5.94,-7.07 -8.91,-10.6l0.01,0Z" style="fill:#ca8d54;fill-rule:nonzero;"/><path d="M446.913,221.994c-0.67,4.32 -2.24,13.68 -9.02,23.22c-1.52,2.15 -3.09,4 -4.6,5.57c4.1,-6.95 12.63,-24.35 7.97,-45.09c-1.88,-8.38 -5.4,-14.96 -8.52,-19.59c0.66,-1.98 1.33,-3.96 1.98,-5.94c3.16,3.28 8.85,10.12 11.59,20.44c2.43,9.16 1.35,16.59 0.6,21.38l0,0.01Z" style="fill:#f9c085;fill-rule:nonzero;"/><path d="M389.773,232.224l16.08,8.88c1.44,-1.03 4.43,-3.47 6.23,-7.75c1.19,-2.83 1.41,-5.38 1.41,-7c-3.32,1.43 -7.37,2.89 -12.09,4.03c-4.32,1.04 -8.25,1.57 -11.63,1.84Z" style="fill:#48220d;fill-rule:nonzero;"/><path d="M413.493,226.364c0,1.61 -0.21,4.16 -1.41,7c-1.8,4.27 -4.79,6.72 -6.23,7.75l-2.59,-1.43c1,-1.33 2.16,-3.18 3.03,-5.56c0.77,-2.09 1.11,-3.99 1.25,-5.49c2.18,-0.73 4.17,-1.5 5.95,-2.27Z" style="fill:#884624;fill-rule:nonzero;"/><path d="M425.083,304.224c-0.89,2.5 -2.03,5.22 -3.51,8.06c-3.36,6.44 -7.35,11.32 -10.75,14.82c-0.53,2.71 -1.29,5.71 -2.39,8.89c-2.17,6.27 -4.99,11.31 -7.55,15.12c-4.81,6.77 -13.5,17.09 -27.36,25.49c-1.02,0.62 -2.04,1.21 -3.05,1.77c-19.43,10.76 -37.89,11.67 -46.43,11.57c-10.59,-0.36 -26.35,-2.16 -43.96,-9.16c-22.63,-8.99 -37.68,-22.34 -45.82,-30.75c-6.6,-5.95 -16.55,-16.44 -24.1,-32.17c-9.3,-19.41 -10.29,-37.09 -10.14,-46.55c0.3,-2.71 0.95,-6.65 2.47,-11.21c1.59,-4.75 4.19,-12.51 11.37,-18.82c2.07,-1.82 5.56,-4.43 10.73,-6.38c10.79,1.33 22.39,2.37 34.73,2.96c13.26,0.63 25.73,0.66 37.31,0.29c3.13,2.54 6.25,5.09 9.37,7.63c-2.99,-9.16 -0.74,-18.66 5.14,-23.14c1.12,-0.85 2.38,-1.53 3.74,-2.04c8.56,-3.16 21.16,0.58 27.57,12.2c2.39,-7.62 7.96,-13.26 13.66,-13.61c7.94,-0.48 17.74,9.22 16.58,23.35c0.81,-0.74 1.85,-1.87 2.75,-3.46c1.21,-2.13 1.61,-4.13 1.76,-5.37c1.58,0.22 3.98,0.65 6.78,1.59c7.48,2.5 12.3,6.74 17.66,11.54c2.83,2.54 6.55,5.92 10.6,11.21c3.27,4.29 7.74,10.14 10.31,18.98c1.65,5.69 2.01,10.89 1.88,15.06c-0.86,0.94 -2.22,2.33 -4.02,3.85c-5.67,4.78 -11.95,7.58 -26.28,11.22c-6.36,1.61 -14.54,3.45 -24.23,5.02c-14.68,1.47 -27.09,1.23 -36.33,0.6c-11.97,-0.82 -23.69,-1.7 -38.08,-6.59c-9.92,-3.37 -17.68,-7.48 -22.95,-10.64c-4.86,-2.9 -11.91,-7.92 -18.38,-16.04c-4.99,-6.25 -8.03,-12.33 -9.89,-16.92c1.92,-0.63 4.28,-1.24 7,-1.57c4.04,-0.5 7.53,-0.24 10.12,0.16c-2.16,-1.8 -8.53,-6.62 -17.96,-7.14c-6.9,-0.38 -12.22,1.72 -14.83,2.96c-1.6,1.1 -3.83,2.98 -5.48,5.96c-4.3,7.75 -0.88,16.05 -0.34,17.28c0.2,-1.95 0.93,-6.38 4.26,-10.62c2.42,-3.09 5.19,-4.78 6.86,-5.63c0.91,2.88 2.18,6.12 3.98,9.52c4.03,7.63 9.06,12.99 12.96,16.45c5.91,5.19 14.78,12.07 26.69,18.07c23.78,11.99 45.04,13.18 58.87,13.8c38.33,1.74 69.76,-9.12 88.66,-17.62l0.02,0.01Z" style="fill-opacity:0.07;fill-rule:nonzero;"/><path d="M336.423,321.854c-13.84,-0.63 -35.1,-1.81 -58.87,-13.8c-11.91,-6 -20.79,-12.88 -26.69,-18.07c-3.9,-3.46 -8.93,-8.81 -12.96,-16.45c-1.8,-3.4 -3.07,-6.64 -3.98,-9.52c-1.67,0.85 -4.44,2.54 -6.86,5.63c-3.33,4.25 -4.06,8.68 -4.26,10.62c-0.53,-1.23 -3.96,-9.53 0.34,-17.28c1.65,-2.97 3.88,-4.86 5.48,-5.96c2.61,-1.25 7.93,-3.34 14.83,-2.96c9.43,0.52 15.8,5.35 17.96,7.14c-2.6,-0.4 -6.08,-0.66 -10.12,-0.16c-2.73,0.34 -5.08,0.94 -7,1.57c1.86,4.59 4.9,10.67 9.89,16.92c6.47,8.11 13.52,13.13 18.38,16.04c5.27,3.16 13.03,7.27 22.95,10.64c14.39,4.89 26.11,5.77 38.08,6.59c9.24,0.63 21.65,0.88 36.33,-0.6c9.68,-1.57 17.87,-3.41 24.23,-5.02c14.33,-3.63 20.62,-6.44 26.28,-11.22c1.8,-1.52 3.16,-2.91 4.02,-3.85c0.12,-4.17 -0.23,-9.37 -1.88,-15.06c-2.56,-8.84 -7.03,-14.69 -10.31,-18.98c-4.05,-5.3 -7.77,-8.67 -10.6,-11.21c-5.36,-4.81 -10.17,-9.04 -17.66,-11.54c-2.79,-0.93 -5.19,-1.37 -6.78,-1.59c-0.15,1.24 -0.55,3.24 -1.76,5.37c-0.9,1.59 -1.95,2.72 -2.75,3.46c1.16,-14.13 -8.64,-23.84 -16.58,-23.35c-5.7,0.35 -11.27,5.99 -13.66,13.61c-6.41,-11.62 -19.02,-15.36 -27.57,-12.2c-1.37,0.5 -2.63,1.19 -3.74,2.04c-5.88,4.48 -8.13,13.98 -5.14,23.14c-3.13,-2.54 -6.25,-5.09 -9.37,-7.63c-11.57,0.38 -24.05,0.35 -37.31,-0.29c-12.34,-0.59 -23.94,-1.63 -34.73,-2.96c-5.17,1.95 -8.66,4.56 -10.73,6.38c-7.18,6.31 -9.78,14.06 -11.37,18.82c-1.53,4.55 -2.17,8.5 -2.47,11.21c-0.15,9.46 0.84,27.14 10.14,46.55c7.54,15.74 17.49,26.22 24.1,32.17c8.14,8.41 23.19,21.75 45.82,30.75c17.61,7 33.37,8.8 43.96,9.16c8.53,0.1 27,-0.8 46.43,-11.57c1.01,-0.56 2.03,-1.15 3.05,-1.77c13.86,-8.4 22.54,-18.72 27.36,-25.49c2.55,-3.8 5.37,-8.85 7.55,-15.12c1.1,-3.19 1.86,-6.18 2.39,-8.89c3.4,-3.5 7.39,-8.38 10.75,-14.82c1.48,-2.84 2.63,-5.56 3.51,-8.06c-18.9,8.5 -50.33,19.36 -88.66,17.62l-0.02,-0.01Zm17.82,-73.89c0.51,-5.9 0.98,-7.96 2.33,-10c0.73,-1.1 1.55,-1.97 2.33,-2.63c1.61,-1.38 4.02,-1.42 5.59,0c0.06,0.06 0.13,0.12 0.19,0.18c0.74,0.76 1.09,1.62 1.23,2.38c0.17,0.89 0.07,1.8 -0.22,2.65c-0.33,0.97 -0.84,2.27 -1.58,3.72c-1.44,2.81 -2.81,4.31 -6.99,9.54c-0.79,0.98 -1.99,2.5 -3.47,4.38c0.12,-4.04 0.36,-7.5 0.6,-10.23l-0.01,0.01Zm-38.7,-15.44c1.37,-0.29 3.13,-0.49 5.14,-0.3c5.33,0.48 9,3.35 10.51,4.68c2.22,2.13 5.63,5.95 8,11.65c1.71,4.12 2.31,7.84 2.52,10.5c-6.91,-4.82 -13.82,-9.65 -20.73,-14.47c-2.41,-1.68 -4.22,-4.13 -5.01,-6.96c-0.03,-0.12 -0.07,-0.25 -0.1,-0.38c-0.48,-1.92 -0.44,-3.58 -0.32,-4.72l-0.01,0Z" style="fill-opacity:0.07;fill-rule:nonzero;"/><path d="M417.573,307.434c-19.2,7.77 -47.52,15.94 -81.15,14.41c-13.84,-0.63 -35.1,-1.81 -58.87,-13.8c-11.91,-6 -20.79,-12.88 -26.69,-18.07c-3.9,-3.46 -8.93,-8.81 -12.96,-16.45c-1.8,-3.4 -3.07,-6.64 -3.98,-9.52c-1.67,0.85 -4.44,2.54 -6.86,5.63c-3.33,4.25 -4.06,8.68 -4.26,10.62c-0.53,-1.23 -3.96,-9.53 0.34,-17.28c1.65,-2.97 3.88,-4.86 5.48,-5.96c2.61,-1.25 7.93,-3.34 14.83,-2.96c9.43,0.52 15.8,5.35 17.96,7.14c-2.6,-0.4 -6.08,-0.66 -10.12,-0.16c-2.73,0.34 -5.08,0.94 -7,1.57c1.86,4.59 4.9,10.67 9.89,16.92c6.47,8.11 13.52,13.13 18.38,16.04c5.27,3.16 13.03,7.27 22.95,10.64c14.39,4.89 26.11,5.77 38.08,6.59c9.24,0.63 21.65,0.88 36.33,-0.6c9.68,-1.57 17.87,-3.41 24.23,-5.02c12.11,-3.07 18.47,-5.55 23.57,-9.12c0.94,-0.66 1.83,-1.35 2.71,-2.09c1.8,-1.52 3.16,-2.91 4.02,-3.85c0.12,-4.17 -0.23,-9.37 -1.88,-15.06c-2.56,-8.84 -7.03,-14.69 -10.31,-18.98c-4.05,-5.3 -7.77,-8.67 -10.6,-11.21c-5.36,-4.81 -10.17,-9.04 -17.66,-11.54c-1.7,-0.57 -3.25,-0.95 -4.56,-1.21c-0.85,-0.17 -1.59,-0.29 -2.21,-0.38c-0.15,1.24 -0.55,3.24 -1.76,5.37c-0.9,1.59 -1.95,2.72 -2.75,3.46c1.16,-14.13 -8.64,-23.84 -16.58,-23.35c-5.7,0.35 -11.27,5.99 -13.66,13.61c-6.41,-11.62 -19.02,-15.36 -27.57,-12.2c-1.37,0.5 -2.63,1.19 -3.74,2.04c-5.88,4.48 -8.13,13.98 -5.14,23.14c-3.13,-2.54 -6.25,-5.09 -9.37,-7.63c-11.57,0.38 -24.05,0.35 -37.31,-0.29c-12.34,-0.59 -23.94,-1.63 -34.73,-2.96c-5.17,1.95 -8.66,4.56 -10.73,6.38c-7.18,6.31 -9.78,14.06 -11.37,18.82c-1.53,4.55 -2.17,8.5 -2.47,11.21c-0.15,9.46 0.84,27.14 10.14,46.55c7.54,15.74 17.49,26.22 24.1,32.17c8.14,8.41 23.19,21.75 45.82,30.75c17.61,7 33.37,8.8 43.96,9.16c8.53,0.1 27,-0.8 46.43,-11.57c0.02,0 0.04,-0.02 0.05,-0.03c1,-0.55 2,-1.13 3,-1.74c13.86,-8.4 22.54,-18.72 27.36,-25.49c2.55,-3.8 5.37,-8.85 7.55,-15.12c1.1,-3.19 1.86,-6.18 2.39,-8.89c3.4,-3.5 7.39,-8.38 10.75,-14.82c1.48,-2.84 2.63,-5.56 3.51,-8.06c-2.32,1.04 -4.83,2.12 -7.51,3.21l-0.03,-0.02Zm-63.33,-59.47c0.51,-5.9 0.98,-7.96 2.33,-10c0.73,-1.1 1.55,-1.97 2.33,-2.63c1.61,-1.38 4.02,-1.42 5.59,0c0.06,0.06 0.13,0.12 0.19,0.18c0.74,0.76 1.09,1.62 1.23,2.38c0.17,0.89 0.07,1.8 -0.22,2.65c-0.33,0.97 -0.84,2.27 -1.58,3.72c-1.44,2.81 -2.81,4.31 -6.99,9.54c-0.79,0.98 -1.99,2.5 -3.47,4.38c0.12,-4.04 0.36,-7.5 0.6,-10.23l-0.01,0.01Zm-38.7,-15.44c1.37,-0.29 3.13,-0.49 5.14,-0.3c5.33,0.48 9,3.35 10.51,4.68c2.22,2.13 5.63,5.95 8,11.65c1.71,4.12 2.31,7.84 2.52,10.5c-6.91,-4.82 -13.82,-9.65 -20.73,-14.47c-2.41,-1.68 -4.22,-4.13 -5.01,-6.96c-0.03,-0.12 -0.07,-0.25 -0.1,-0.38c-0.48,-1.92 -0.44,-3.58 -0.32,-4.72l-0.01,0Z" style="fill:#f7c081;fill-rule:nonzero;"/><path d="M333.483,233.364c-1.98,-1.66 -4.04,-2.84 -5.95,-3.7c-2.67,-1.19 -5.73,-1.17 -8.35,0.11c-0.02,0.01 -0.04,0.02 -0.07,0.03c-1.72,0.86 -2.89,1.95 -3.58,2.72c1.37,-0.29 3.13,-0.49 5.14,-0.3c5.33,0.48 9,3.35 10.51,4.68c2.22,2.13 5.63,5.95 8,11.65c1.21,2.9 1.86,5.61 2.22,7.88c0.45,0.41 0.89,0.82 1.33,1.23c0.22,0.21 0.59,0.05 0.59,-0.25c0.07,-3.72 -0.38,-16.14 -9.84,-24.06l0,0.01Zm25.05,41.12c-1.25,-4 -2.62,-7.65 -4.02,-10.96c-0.34,-0.8 -0.25,-1.73 0.25,-2.44c1.62,-2.31 3.3,-5.05 4.87,-8.25c0.83,-1.7 1.53,-3.33 2.13,-4.89c-1.06,1.41 -2.48,3.13 -4.66,5.86c-0.79,0.98 -1.99,2.5 -3.47,4.38c0.12,-4.04 0.36,-7.5 0.6,-10.23c0.51,-5.9 0.98,-7.96 2.33,-10c0.73,-1.1 1.55,-1.97 2.33,-2.63c0.28,-0.24 0.59,-0.44 0.91,-0.6c-0.05,-0.21 -0.11,-0.43 -0.17,-0.64c-0.1,-0.39 -0.53,-0.59 -0.9,-0.43c-1.15,0.53 -2.62,1.41 -3.84,2.91c-1.99,2.46 -2.27,5.3 -2.32,15c-0.01,2.8 -0.01,6.1 0.03,9.8c0.12,1.65 0.39,4.31 1.02,7.53c1.13,5.71 2.56,8.69 4.69,15.66c0.68,2.22 1.66,5.58 2.67,9.79c0.19,-0.99 0.34,-2.07 0.44,-3.23c0.18,-2.27 0.1,-4.3 -0.09,-6.02c-0.71,-3.31 -1.63,-6.87 -2.8,-10.61Z" style="fill:#cf9056;fill-rule:nonzero;"/><path d="M250.853,289.974c0.67,0.59 1.38,1.2 2.13,1.83c-3.37,-2.2 -6.99,-4.88 -10.66,-8.13c-6.07,-5.38 -10.63,-10.84 -13.98,-15.53c2.06,-2.17 4.2,-3.44 5.57,-4.14c0.91,2.88 2.18,6.12 3.98,9.52c4.03,7.63 9.06,12.99 12.96,16.45Z" style="fill:#cf9257;fill-rule:nonzero;"/><path d="M369.903,312.214c-14.68,1.47 -27.09,1.23 -36.33,0.6c-11.97,-0.82 -23.69,-1.7 -38.08,-6.59c-9.92,-3.37 -17.68,-7.48 -22.95,-10.64c-4.86,-2.9 -11.91,-7.92 -18.38,-16.04c-4.99,-6.25 -8.03,-12.33 -9.89,-16.92c1.92,-0.63 4.28,-1.24 7,-1.57c4.04,-0.5 7.53,-0.24 10.12,0.16c-4.59,0.71 -9.18,1.41 -13.77,2.12c10.39,14.3 21.35,22.78 28.72,27.58c21.62,14.1 43.59,16.95 62.97,19.46c12.69,1.65 23.31,1.91 30.57,1.84l0.02,0Z" style="fill:#cf9257;fill-rule:nonzero;"/><path d="M394.653,350.094c-8.07,9.43 -16.13,18.85 -24.19,28.28c-19.43,10.76 -37.89,11.67 -46.43,11.57c-10.59,-0.36 -26.35,-2.16 -43.96,-9.16c-22.63,-8.99 -37.68,-22.34 -45.82,-30.75c-6.6,-5.95 -16.55,-16.44 -24.1,-32.17c-9.3,-19.41 -10.29,-37.09 -10.14,-46.55c0.3,-2.71 0.95,-6.65 2.47,-11.21c1.59,-4.75 4.19,-12.51 11.37,-18.82c2.07,-1.82 5.56,-4.43 10.73,-6.38c10.79,1.33 22.39,2.37 34.73,2.96c13.26,0.63 25.73,0.66 37.31,0.29c3.13,2.54 6.25,5.09 9.37,7.63c-2.99,-9.16 -0.74,-18.66 5.14,-23.14c1.12,-0.85 2.38,-1.53 3.74,-2.04c-1.41,1.48 -2.9,3.35 -4.21,5.66c-1.22,2.15 -2,4.19 -2.51,5.9c-0.49,2.18 -1.1,6.24 0.08,11.06c1.56,6.41 5.34,10.4 7,11.96c-10.15,-4.91 -23.72,-9.81 -40.22,-11.25c-0.97,-0.08 -3.75,-0.32 -10.95,-0.5c-11.12,-0.3 -25.45,-0.3 -42.38,0.65c-2.14,4.3 -4.83,10.81 -6.08,19.03c-3.91,25.61 9.34,46.19 16.45,57.24c14.89,23.13 34.81,35.31 46.12,41.02c7.65,4.57 19.57,10.45 35.15,13.62c12.96,2.63 24.16,2.51 32.23,1.79c6.8,-1.32 16.52,-4 27.07,-9.81c10.1,-5.56 17.33,-12.01 22.03,-16.9l0,0.02Z" style="fill-opacity:0.07;fill-rule:nonzero;"/><path d="M301.803,330.724c10.07,2.8 24.16,5.6 41.11,5.56c16.59,-0.04 30.41,-2.79 40.35,-5.56c-2.48,2.92 -6.14,6.54 -11.23,9.7c-10.18,6.3 -20.23,7.12 -25.24,7.17c-6.27,0.23 -17.87,-0.25 -30.27,-6.48c-6.46,-3.25 -11.31,-7.14 -14.72,-10.39Z" style="fill:#d89d61;fill-rule:nonzero;"/><path d="M250.853,289.974c0.67,0.59 1.38,1.2 2.13,1.83c-3.37,-2.2 -6.99,-4.88 -10.66,-8.13c-6.07,-5.38 -10.63,-10.84 -13.98,-15.53c2.06,-2.17 4.2,-3.44 5.57,-4.14c0.91,2.88 2.18,6.12 3.98,9.52c4.03,7.63 9.06,12.99 12.96,16.45Z" style="fill:#cf9257;fill-rule:nonzero;"/><path d="M369.903,312.214c-14.68,1.47 -27.09,1.23 -36.33,0.6c-11.97,-0.82 -23.69,-1.7 -38.08,-6.59c-9.92,-3.37 -17.68,-7.48 -22.95,-10.64c-4.86,-2.9 -11.91,-7.92 -18.38,-16.04c-4.99,-6.25 -8.03,-12.33 -9.89,-16.92c1.92,-0.63 4.28,-1.24 7,-1.57c4.04,-0.5 7.53,-0.24 10.12,0.16c-4.59,0.71 -9.18,1.41 -13.77,2.12c10.39,14.3 21.35,22.78 28.72,27.58c21.62,14.1 43.59,16.95 62.97,19.46c12.69,1.65 23.31,1.91 30.57,1.84l0.02,0Z" style="fill:#cf9257;fill-rule:nonzero;"/><path d="M343.333,257.414c0,0.31 -0.37,0.46 -0.59,0.25c-0.45,-0.41 -0.89,-0.82 -1.33,-1.23c-0.35,-2.27 -1.01,-4.98 -2.22,-7.88c-2.37,-5.7 -5.78,-9.52 -8,-11.65c-1.51,-1.34 -5.18,-4.2 -10.51,-4.68c-2.01,-0.18 -3.77,0.02 -5.14,0.3c0.69,-0.76 1.86,-1.86 3.58,-2.72c0.02,-0.01 0.04,-0.02 0.07,-0.03c2.62,-1.28 5.68,-1.3 8.35,-0.11c1.91,0.85 3.96,2.04 5.95,3.7c9.46,7.91 9.91,20.34 9.84,24.06l0,-0.01Z" style="fill:#cf9056;fill-rule:nonzero;"/><path d="M361.333,285.104c0.19,1.72 0.28,3.75 0.09,6.02c-0.1,1.16 -0.25,2.24 -0.44,3.23c-1.01,-4.2 -1.99,-7.57 -2.67,-9.79c-2.13,-6.98 -3.56,-9.95 -4.69,-15.66c-0.64,-3.22 -0.9,-5.88 -1.02,-7.53c-0.05,-3.7 -0.05,-7 -0.03,-9.8c0.05,-9.7 0.33,-12.54 2.32,-15c1.22,-1.5 2.69,-2.38 3.84,-2.91c0.37,-0.17 0.8,0.03 0.9,0.43c0.05,0.21 0.11,0.43 0.17,0.64c-0.32,0.16 -0.63,0.36 -0.91,0.6c-0.77,0.66 -1.6,1.53 -2.33,2.63c-1.35,2.04 -1.82,4.1 -2.33,10c-0.24,2.73 -0.48,6.19 -0.6,10.23c1.48,-1.88 2.68,-3.4 3.47,-4.38c2.19,-2.73 3.6,-4.44 4.66,-5.86c-0.6,1.55 -1.3,3.19 -2.13,4.89c-1.56,3.19 -3.25,5.94 -4.87,8.25c-0.5,0.72 -0.59,1.64 -0.25,2.44c1.39,3.31 2.77,6.96 4.02,10.96c1.17,3.75 2.09,7.31 2.8,10.61Z" style="fill:#cf9056;fill-rule:nonzero;"/><path d="M424.433,292.124c-0.86,0.94 -2.22,2.33 -4.02,3.85c-0.88,0.74 -1.78,1.44 -2.71,2.09c-1.27,-10.07 -5.16,-28.15 -18.59,-45.38c-6.6,-8.46 -13.74,-14.45 -19.69,-18.58c1.31,0.26 2.86,0.64 4.56,1.21c7.48,2.5 12.3,6.74 17.66,11.54c2.83,2.54 6.55,5.92 10.6,11.21c3.27,4.29 7.74,10.14 10.31,18.98c1.65,5.69 2.01,10.89 1.88,15.06l0,0.02Z" style="fill:#ffd6a2;fill-rule:nonzero;"/><path d="M425.083,304.224c-0.89,2.5 -2.03,5.22 -3.51,8.06c-3.36,6.44 -7.35,11.32 -10.75,14.82c-0.53,2.71 -1.29,5.71 -2.39,8.89c-2.17,6.27 -4.99,11.31 -7.55,15.12c-4.81,6.77 -13.5,17.09 -27.36,25.49c-1,0.61 -2,1.19 -3,1.74c8.03,-7.59 17.08,-17.42 25.76,-29.82c5.71,-8.15 10.28,-16 13.93,-23.16c2.45,-5.98 4.91,-11.96 7.36,-17.93c2.69,-1.09 5.19,-2.16 7.51,-3.21Z" style="fill:#ffd6a2;fill-rule:nonzero;"/><path d="M297.483,209.164l24.55,-3.65c0.76,-0.11 1.53,-0.2 2.3,-0.25c2.07,-0.15 4.15,-0.29 6.23,-0.43c11.28,-0.77 22.47,-1.45 33.59,-2.04c0.19,-0.01 0.26,-0.26 0.1,-0.36c-0.75,-0.48 -1.58,-0.96 -2.48,-1.41c-2.73,-1.37 -5.35,-2.1 -7.57,-2.49c-0.86,-0.15 -1.73,-0.25 -2.6,-0.28c-6.52,-0.29 -13.74,-0.25 -21.53,0.33c-5.38,0.4 -10.42,1.02 -15.09,1.77c1.68,0.32 3.37,0.65 5.05,0.97c-3.13,0.87 -6.34,1.82 -9.62,2.85c-4.55,1.44 -8.9,2.95 -13.04,4.5c-0.29,0.11 -0.17,0.54 0.13,0.49l-0.02,0Z" style="fill:#2e4a00;fill-rule:nonzero;"/><path d="M411.993,215.214c-1.04,0.88 -2.18,1.73 -3.43,2.54c-0.77,0.5 -1.57,0.97 -2.42,1.43c-17.78,9.54 -37.2,-0.51 -39.34,-1.67c-2.25,-1.21 -4.05,-2.22 -5.22,-2.88c-3,-1.7 -4.05,-2.36 -5.86,-2.93c-1.8,-0.56 -3.36,-0.72 -4.38,-0.77c-1.17,0.03 -2.77,0.21 -4.58,0.78c-2.02,0.64 -3.56,1.55 -4.58,2.28c-0.65,-0.1 -1.75,-0.28 -3.1,-0.54c-3.51,-0.68 -4.55,-1.12 -6.34,-1.01c-0.82,0.05 -2.08,0.24 -3.61,0.93c-2.21,0.61 -5.54,1.52 -9.61,2.57c-8.26,2.13 -9.69,2.3 -14.25,3.5c-11.25,2.97 -11.82,4.41 -19.67,6.18c-3.5,0.79 -8.85,1.74 -15.69,1.88c-20.23,0.06 -36.5,-2.45 -47.82,-4.87c-16.37,-3.5 -26.36,-7.66 -29.82,-9.15c-7.32,-3.17 -13.2,-6.45 -17.43,-9.04c-7.29,-4.6 -15.29,-10.25 -23.55,-17.15c-7.24,-6.04 -13.48,-12.04 -18.8,-17.66c7.85,2.34 14.47,4.23 19.54,5.65c7.82,2.2 9.6,2.61 11.85,3.01c3.88,0.69 6.33,0.85 10.85,1.9c3.14,0.73 5.66,1.53 7.32,2.09c-1.23,-0.68 -3.18,-1.72 -5.62,-2.86c-7.62,-3.58 -13.29,-5.06 -24.52,-8.18c-3.55,-0.98 -9.5,-2.65 -17.14,-4.84c1.42,-0.29 2.87,-0.57 4.38,-0.82c4.15,-0.69 8.09,-1.1 11.78,-1.32c2.73,0.13 4.95,0.29 6.47,0.4c3.26,0.24 4.53,0.4 6.59,0.4c2.46,0 4.46,-0.23 5.75,-0.42c-1.43,-0.04 -3.68,-0.15 -6.43,-0.42c-3.58,-0.36 -5.33,-0.73 -8.99,-1.2c-1.91,-0.24 -4.74,-0.56 -8.24,-0.78c-2.13,0.01 -4.34,-0.02 -6.64,-0.11c-3.22,-0.13 -6.28,-0.37 -9.16,-0.68c1.65,-0.88 4.2,-2.18 7.43,-3.51c2.77,-1.15 4.96,-1.87 6.4,-2.33c2.11,-0.68 4.12,-1.32 6.01,-1.9c14.28,-4.42 22.37,-6.21 22.37,-6.21c5.65,-1.25 12.7,-2.59 20.9,-3.66c3.94,-0.34 9.6,-0.79 16.48,-1.22c-1.03,1.79 -1.89,4.03 -2.09,6.69c-0.2,2.73 0.37,4.99 0.91,6.48c0.71,1.33 1.87,3.16 3.7,4.98c1.9,1.88 3.81,3.04 5.19,3.74c-0.86,0.29 -5.79,2.06 -8.04,7.25c-1.41,3.25 -1.07,6.22 -0.85,7.5c0.87,2.18 2.52,5.67 5.61,9.05c3.63,3.97 8.1,6.54 25.39,12.17c4.09,1.33 9.7,3.1 16.48,5.03c-6.26,0.26 -13.15,0.24 -20.56,-0.25c-5.15,-0.34 -10.01,-0.88 -14.54,-1.53c-4.76,-0.72 -10.04,-1.79 -15.68,-3.38c-4.1,-1.15 -7.87,-2.43 -11.3,-3.75c2.87,2.63 6.2,5.38 10,8.1c6.18,4.42 12.13,7.67 17.32,10.08c8,3.54 22.44,8.68 41.07,8.56c16.42,-0.1 29.35,-4.25 37.11,-7.42c4.68,-1.39 9.72,-2.73 15.09,-3.93c5.25,-1.17 10.26,-2.1 15,-2.82c3.78,0.3 7.55,0.6 11.33,0.9c1.87,-0.58 3.88,-1.14 6.01,-1.65c1.98,-0.47 3.89,-0.85 5.69,-1.16c1.95,0.53 4.14,1.25 6.45,2.25c3.5,1.51 6.38,3.24 8.63,4.83c3.68,1.77 10.05,4.22 18.25,4.4c12.5,0.27 21.63,-4.91 25.26,-7.24c0.23,1.24 0.46,2.47 0.69,3.71Z" style="fill:#416800;fill-rule:nonzero;"/><path d="M419.613,188.704c0.15,-0.04 0.98,-0.22 1.71,0.29c0.36,0.25 0.55,0.56 0.65,0.74c-0.01,0.36 -0.06,1.54 -0.07,1.9c-0.13,4.82 0.15,6.65 -0.49,9.56c-0.66,3.02 -1.9,5.32 -2.84,6.78c-2.07,2.96 -5.29,6.71 -10.01,9.77l2.63,-10.01c0.36,-2.1 0.64,-4.44 0.78,-6.99c0.19,-3.69 0.03,-7.01 -0.29,-9.85c1.36,-0.27 2.82,-0.61 4.34,-1.05c1.27,-0.36 2.46,-0.75 3.58,-1.15l0.01,0.01Z" style="fill:#94ef00;fill-rule:nonzero;"/><path d="M427.343,149.654c-0.23,0.97 -0.7,2.49 -1.7,4.12c-1.11,1.81 -2,2.34 -2.87,3.99c-0.49,0.94 -1.08,2.44 -1.17,4.64c-0.15,1.64 -0.3,3.29 -0.44,4.95c-0.24,2.83 -0.45,5.62 -0.64,8.38c-0.63,1.54 -1.55,3.44 -2.9,5.45c-0.68,-0.01 -1.77,-0.13 -2.95,-0.69c-1.98,-0.93 -2.96,-2.51 -3.31,-3.14c-0.42,-3.9 -0.6,-8.85 0.03,-14.51c0.74,-6.57 2.34,-12.01 3.87,-16.05c-17.83,0.36 -35.66,0.73 -53.49,1.09c-19.49,0.04 -35.14,-0.12 -45.12,-0.25c-38.94,-0.52 -57.12,-1.53 -91.61,-1.3c-12.77,0.08 -23.05,0.31 -29.04,0.46c-8.27,0.44 -17.36,1.35 -27.11,2.99c-6.69,1.12 -12.95,2.46 -18.76,3.92c7.46,-2.07 22.37,-6.21 22.37,-6.21c5.65,-1.25 12.7,-2.59 20.9,-3.66c5.13,-0.44 13.19,-1.08 23.07,-1.6c26.17,-1.38 43.67,-0.81 74.98,-0.24c33.09,0.6 49.64,0.9 61.51,0.71c28.45,-0.46 51.52,-2.29 66.49,-3.74c0.49,0.04 4.25,0.4 6.57,3.76c2.13,3.09 1.45,6.38 1.33,6.92l-0.01,0.01Z" style="fill:#94ef00;fill-rule:nonzero;"/><path d="M394.653,350.094c1,0.85 -3.32,7.95 -7.47,13.2c-5.87,7.43 -12.22,12.2 -16.72,15.08c-8.62,4.41 -24.99,12.29 -46.43,11.57c-10.59,-0.36 -26.35,-2.16 -43.96,-9.16c-22.63,-8.99 -37.68,-22.34 -45.82,-30.75c-6.6,-5.95 -16.55,-16.44 -24.1,-32.17c-9.3,-19.41 -10.29,-37.09 -10.14,-46.55c0.3,-2.71 0.95,-6.65 2.47,-11.21c1.59,-4.75 4.19,-12.51 11.37,-18.82c2.07,-1.82 5.56,-4.43 10.73,-6.38c10.79,1.33 22.39,2.37 34.73,2.96c13.26,0.63 25.73,0.66 37.31,0.29c3.13,2.54 6.25,5.09 9.37,7.63c-2.99,-9.16 -0.74,-18.66 5.14,-23.14c1.12,-0.85 2.38,-1.53 3.74,-2.04c-1.41,1.48 -2.9,3.35 -4.21,5.66c-1.22,2.15 -2,4.19 -2.51,5.9c-0.49,2.18 -1.1,6.24 0.08,11.06c1.56,6.41 5.34,10.4 7,11.96c-10.15,-4.91 -23.72,-9.81 -40.22,-11.25c-0.97,-0.08 -3.75,-0.32 -10.95,-0.5c-11.12,-0.3 -25.45,-0.3 -42.38,0.65c-2.14,4.3 -4.83,10.81 -6.08,19.03c-3.91,25.61 9.34,46.19 16.45,57.24c14.89,23.13 34.81,35.31 46.12,41.02c7.65,4.57 19.57,10.45 35.15,13.62c12.96,2.63 24.16,2.51 32.23,1.79c6.8,-1.32 16.52,-4 27.07,-9.81c13.34,-7.35 20.78,-17.95 22.03,-16.9l0,0.02Z" style="fill:#c7864f;fill-rule:nonzero;"/></svg>