<?xml version="1.0" encoding="UTF-8" standalone="no"?>
<!DOCTYPE svg PUBLIC "-//W3C//DTD SVG 1.1//EN" "http://www.w3.org/Graphics/SVG/1.1/DTD/svg11.dtd">
<svg width="100%" height="100%" viewBox="0 0 107 28" version="1.1" xmlns="http://www.w3.org/2000/svg" xmlns:xlink="http://www.w3.org/1999/xlink" xml:space="preserve" xmlns:serif="http://www.serif.com/" style="fill-rule:evenodd;clip-rule:evenodd;stroke-linejoin:round;stroke-miterlimit:2;">
    <g transform="matrix(1,0,0,1,-94.4882,-35.4331)">
        <g id="Blind-logo-copy-01.svg" serif:id="Blind logo copy-01.svg" transform="matrix(0.0654286,0,0,0.0654286,147.638,49.3975)">
            <g transform="matrix(1,0,0,1,-812.33,-213.43)">
                <clipPath id="_clip1">
                    <rect x="0" y="0" width="1624.66" height="426.86"/>
                </clipPath>
                <g clip-path="url(#_clip1)">
                    <path d="M767.81,294.11C767.81,323.79 759,348.43 741.38,368.02C725.31,385.89 707.01,394.82 686.48,394.82L520.92,394.82L520.92,49.05L671.96,49.05C692.68,49.05 711.07,58.13 727.15,76.28C744.58,96.16 753.29,120.95 753.29,150.62C753.29,173.68 748.54,194.13 739.06,212C758.23,231.31 767.82,258.68 767.82,294.12L767.81,294.11ZM677.77,161.64C677.77,154.79 676.03,148.79 672.54,143.64C669.05,138.49 664.99,135.92 660.34,135.92L602.25,135.92L602.25,187.35L660.34,187.35C664.99,187.35 669.05,184.78 672.54,179.64C676.03,174.5 677.77,168.5 677.77,161.63L677.77,161.64ZM680.67,282.23C680.67,275.37 678.93,269.38 675.44,264.23C671.95,259.08 667.89,256.51 663.24,256.51L602.24,256.51L602.24,307.94L663.24,307.94C667.89,307.94 671.95,305.37 675.44,300.23C678.93,295.09 680.67,289.09 680.67,282.23Z" style="fill:rgb(118,190,0);fill-rule:nonzero;"/>
                    <path d="M869.47,307.69L869.47,49.04L782.34,49.04L782.34,394.82L1000.18,394.82L1000.18,307.69L869.47,307.69Z" style="fill:rgb(118,190,0);fill-rule:nonzero;"/>
                    <path d="M1014.7,394.82L1101.84,394.82L1101.84,307.29L1014.7,307.29L1014.7,394.82ZM1014.7,49.05L1014.7,281.41L1101.84,281.41L1101.84,49.05L1014.7,49.05Z" style="fill:rgb(118,190,0);fill-rule:nonzero;"/>
                    <rect x="1014.7" y="307.29" width="87.14" height="87.53" style="fill:rgb(63,102,0);fill-rule:nonzero;"/>
                    <path d="M1363.25,281.41L1276.11,281.41C1275.14,256.43 1269.04,234.55 1257.81,215.77C1244.45,192.92 1226.34,180.91 1203.49,179.75L1203.49,281.41L1116.35,281.41L1116.35,49.05L1117.51,49.05C1150.04,49.05 1179.67,54.67 1206.39,65.9C1236.6,78.49 1259.83,97.08 1276.1,121.67L1276.1,49.05L1363.24,49.05L1363.24,281.42L1363.25,281.41Z" style="fill:rgb(118,190,0);fill-rule:nonzero;"/>
                    <path d="M1624.66,165.23C1624.66,197.76 1612.07,225.45 1586.9,248.3C1562.69,270.37 1534.13,281.41 1501.21,281.41L1377.77,281.41L1377.77,49.05L1501.21,49.05C1534.13,49.05 1562.69,60.09 1586.9,82.16C1612.07,105.01 1624.66,132.7 1624.66,165.23ZM1545.94,165.23C1545.94,153.42 1541.4,143.21 1532.33,134.59C1523.26,125.98 1512.84,121.66 1501.07,121.66L1459.09,121.66L1459.09,208.8L1501.07,208.8C1513.03,208.8 1523.5,204.49 1532.48,195.87C1541.45,187.26 1545.94,177.04 1545.94,165.23Z" style="fill:rgb(118,190,0);fill-rule:nonzero;"/>
                    <g>
                        <path d="M1182.33,394.82L1158.02,394.82L1135.21,340.4L1134.73,340.4C1134.97,343.59 1135.16,346.56 1135.3,349.29C1135.44,352.02 1135.54,354.5 1135.6,356.71C1135.66,358.93 1135.69,360.87 1135.69,362.55L1135.69,394.82L1116.35,394.82L1116.35,307.29L1140.48,307.29L1163.17,360.22L1163.65,360.22C1163.49,357.27 1163.35,354.51 1163.23,351.96C1163.11,349.41 1163.01,347.05 1162.93,344.9C1162.85,342.74 1162.81,340.79 1162.81,339.03L1162.81,307.3L1182.33,307.3L1182.33,394.83L1182.33,394.82Z" style="fill:rgb(63,102,0);fill-rule:nonzero;"/>
                        <path d="M1228.13,394.82L1207.41,394.82L1207.41,325.31L1191.6,325.31L1191.6,307.29L1243.81,307.29L1243.81,325.31L1228.12,325.31L1228.12,394.82L1228.13,394.82Z" style="fill:rgb(63,102,0);fill-rule:nonzero;"/>
                        <path d="M1295.31,394.82L1253.16,394.82L1253.16,307.29L1295.31,307.29L1295.31,324.95L1274,324.95L1274,340.76L1293.76,340.76L1293.76,358.42L1274,358.42L1274,376.92L1295.31,376.92L1295.31,394.82Z" style="fill:rgb(63,102,0);fill-rule:nonzero;"/>
                        <path d="M1330.87,307.29C1337.66,307.29 1343.3,308.25 1347.81,310.16C1352.32,312.08 1355.69,314.94 1357.93,318.75C1360.16,322.56 1361.28,327.36 1361.28,333.15C1361.28,336.54 1360.84,339.68 1359.96,342.55C1359.08,345.42 1357.76,348.04 1356.01,350.39C1354.25,352.75 1352.04,354.84 1349.36,356.68L1367.62,394.82L1344.69,394.82L1330.98,361.95L1328.29,361.95L1328.29,394.82L1307.45,394.82L1307.45,307.29L1330.87,307.29ZM1330.63,324.71L1328.29,324.71L1328.29,345.78L1330.51,345.78C1333.62,345.78 1335.96,344.82 1337.51,342.91C1339.07,340.99 1339.85,338.1 1339.85,334.23C1339.85,331.04 1339.08,328.65 1337.54,327.08C1336,325.5 1333.7,324.71 1330.63,324.71Z" style="fill:rgb(63,102,0);fill-rule:nonzero;"/>
                        <path d="M1435.71,307.29L1413.38,394.82L1389.13,394.82L1367.04,307.29L1388.89,307.29L1397.69,350.46C1398.09,352.38 1398.54,354.73 1399.04,357.52C1399.54,360.31 1399.99,363.09 1400.39,365.84C1400.79,368.59 1401.07,370.85 1401.23,372.61C1401.47,370.85 1401.8,368.61 1402.22,365.87C1402.64,363.14 1403.1,360.38 1403.6,357.61C1404.1,354.84 1404.55,352.49 1404.95,350.58L1413.87,307.29L1435.72,307.29L1435.71,307.29Z" style="fill:rgb(63,102,0);fill-rule:nonzero;"/>
                        <rect x="1442.95" y="307.29" width="20.84" height="87.53" style="fill:rgb(63,102,0);fill-rule:nonzero;"/>
                        <path d="M1520.42,394.82L1478.27,394.82L1478.27,307.29L1520.42,307.29L1520.42,324.95L1499.11,324.95L1499.11,340.76L1518.87,340.76L1518.87,358.42L1499.11,358.42L1499.11,376.92L1520.42,376.92L1520.42,394.82Z" style="fill:rgb(63,102,0);fill-rule:nonzero;"/>
                        <path d="M1624.66,307.29L1608.08,394.82L1584.19,394.82L1578.2,362.07C1577.84,360.19 1577.5,358.28 1577.18,356.32C1576.86,354.36 1576.57,352.38 1576.31,350.36C1576.05,348.34 1575.8,346.32 1575.56,344.28C1575.32,342.24 1575.12,340.21 1574.96,338.17C1574.84,339.81 1574.68,341.62 1574.48,343.62C1574.28,345.62 1574.04,347.68 1573.76,349.82C1573.48,351.96 1573.19,354.06 1572.89,356.14C1572.59,358.22 1572.26,360.15 1571.9,361.95L1565.79,394.82L1542.14,394.82L1525.32,307.29L1545.68,307.29L1551.91,345.43C1552.15,346.91 1552.42,348.64 1552.72,350.64C1553.02,352.64 1553.31,354.76 1553.59,357.02C1553.87,359.28 1554.14,361.55 1554.4,363.84C1554.66,366.14 1554.91,368.32 1555.15,370.4C1555.39,368.21 1555.67,365.94 1555.99,363.6C1556.31,361.27 1556.65,358.99 1557.01,356.78C1557.37,354.56 1557.71,352.5 1558.03,350.58C1558.35,348.66 1558.65,347.03 1558.93,345.67L1566.65,307.29L1583.47,307.29L1590.42,345.67C1590.78,347.27 1591.13,349.07 1591.47,351.09C1591.81,353.11 1592.15,355.23 1592.49,357.47C1592.83,359.71 1593.14,361.93 1593.42,364.15C1593.7,366.37 1593.94,368.45 1594.14,370.41C1594.3,368.17 1594.55,365.66 1594.89,362.87C1595.23,360.08 1595.62,357.18 1596.06,354.19C1596.5,351.2 1596.96,348.32 1597.44,345.57L1603.85,307.31L1624.68,307.31L1624.66,307.29Z" style="fill:rgb(63,102,0);fill-rule:nonzero;"/>
                    </g>
                    <rect x="1047.9" y="338.45" width="20.75" height="45.19" style="fill:white;fill-rule:nonzero;"/>
                    <rect x="1047.9" y="318.48" width="20.75" height="10.28" style="fill:white;fill-rule:nonzero;"/>
                    <g>
                        <path d="M75.04,263C79.25,268.72 85.48,275.62 94.36,281.64C99.71,285.27 107.64,290.53 119.37,292.65C128.85,294.37 136.84,293.32 141.79,292.27C141.98,295.91 142.59,301.17 144.53,307.18C146.04,311.88 147.9,315.59 149.76,318.85C156.87,331.32 166.68,341.82 170,345.34C181.93,357.97 189.72,366.23 202.43,376.45C215.93,387.3 227.09,394.03 236.13,399.43C241.4,402.58 255.13,410.59 271.47,417.47C277.66,420.08 283.34,422.15 289.92,423.91C295.52,425.41 300.33,426.3 303.88,426.85C309.78,426.56 321.77,425.18 334.3,417.53C344.92,411.05 351.2,402.96 354.37,398.19C365.62,394.3 384.02,386.38 400.08,370.93C412.67,358.81 417.48,348.17 418.51,345.81C421.17,339.72 422.49,334.29 423.2,330.41C425.31,328.66 428.12,325.99 430.74,322.21C431.55,321.04 434.26,317.01 436.31,310.7C439.82,299.88 438.77,290.42 438.09,284.81C437.48,279.77 436.07,272.52 432.53,264.29C435.71,262.38 440.43,259.06 444.83,253.72C450.62,246.7 452.91,239.75 454.85,233.69C456.21,229.44 458.13,223.42 458.46,215.42C458.66,210.5 459.35,193.79 447.84,179.33C445.19,176 440.3,170.78 432.23,166.53C432.15,165.07 432.08,163.6 432,162.14C432.53,161.54 439.71,153.14 436.74,142.96C436.3,141.45 434.09,134.59 427.13,131.31C423.53,129.61 420.17,129.58 418.38,129.7C417.68,128.08 416.99,126.45 416.29,124.83C415.78,121.68 414.85,117.32 413.08,112.34C412.43,110.51 410.49,105.28 405.46,96.93C402.95,92.76 398.47,85.42 391,77.11C383.44,68.69 370.57,56.8 351.78,48.18C345.47,45.29 339.98,43.44 336.09,42.29C338.87,40.54 341.76,38.79 344.78,37.05C349.2,34.5 353.51,32.18 357.68,30.08C357.91,29.78 358.24,29.23 358.34,28.49C358.56,26.79 357.37,25.56 357.2,25.39C352.83,22.02 345.7,17.38 335.96,14.48C331.67,13.2 315.71,8.44 301.3,13.57C293.85,16.22 285.71,17.33 278.89,21.31C278.72,21.41 277.76,21.99 277.49,21.73C277.34,21.59 277.44,21.24 277.54,21C280.5,17.7 283.57,13.85 286.54,9.43C287.78,7.57 288.92,5.75 289.96,3.97C290.65,3.04 290.82,1.91 290.36,1.16C289.89,0.41 288.89,0.18 288.49,0.09C288.06,-0.01 287.7,-0.01 287.44,0C284.92,0.1 281.34,0.37 277.11,1.11C275.08,1.47 267.92,2.8 255.42,8.24C236.89,16.31 226.74,24.66 224.78,26.3C221.58,28.98 219.5,31.14 218.18,32.6C214.1,37.12 211.42,41.42 209.75,44.48C194.12,49.99 182.59,57.1 175.1,62.48C164.32,70.23 157.62,77.49 155.98,79.29C154.09,81.37 147.94,88.3 141.69,98.85C136.66,107.35 129.83,121.13 125.91,139.97C122.67,135.02 116.91,127.55 107.64,120.95C99.46,115.13 91.63,112.16 86.25,110.6C80.24,109.44 75.35,109.08 72.09,108.97C67.65,108.81 64.92,109.05 54.2,109.64C48.58,109.95 44.08,110.18 41.44,110.31C33.77,110.26 28.3,108.54 24.67,106.92C18.48,104.16 12.94,101.68 9.82,99.4C9.53,99.19 7.93,98.49 4.74,97.1C4.22,96.87 3.33,96.5 2.55,96.89C1.99,97.17 1.71,97.72 1.58,98.07C0.9,100.36 0.21,103.45 0.06,107.14C-0.1,110.92 0.34,114.13 0.85,116.5C1.81,123.84 5.45,143.99 22.04,160.06C34.17,171.81 48.11,176.43 53.41,178.13C59.99,180.23 65.75,181.19 69.97,181.66C67.9,184.58 65.48,188.57 63.49,193.63C61.35,199.06 60.39,203.96 59.95,207.67C57.03,213.25 51.41,221.86 41.46,228.19C31.98,234.22 22.02,235.97 16.67,236.92C14.15,237.36 12.02,237.61 10.54,237.76C9.39,237.85 8.39,238.55 7.94,239.58C7.44,240.72 7.71,242.08 8.61,242.99C11.47,246.89 21.84,260.03 40.87,264.88C56.97,268.98 70.19,264.82 75.08,263.01L75.04,263Z" style="fill:rgb(33,12,1);fill-rule:nonzero;"/>
                        <path d="M25.31,245.91C29.8,245.04 36.39,243.22 43.46,239.11C51.53,234.43 56.8,228.77 59.81,224.98C60.4,229.1 61.37,233.85 62.96,239.02C64.81,245.03 67.06,250.13 69.2,254.26C65.17,255.57 58.27,257.23 49.78,256.29C37.29,254.91 28.78,248.75 25.31,245.91Z" style="fill:rgb(65,104,0);fill-rule:nonzero;"/>
                        <path d="M27.46,247.57C29.53,247.82 32.16,247.94 35.18,247.57C39.93,246.98 43.64,245.43 46.04,244.17C49.6,242.23 52.01,240 53.46,238.43C55.3,236.45 57.31,234.24 58.31,230.73C58.85,228.85 58.93,227.21 58.91,226.1C55.52,230.13 49.59,236.11 40.58,240.69C34.8,243.62 29.44,245.12 25.32,245.92C26.03,246.47 26.75,247.02 27.46,247.57Z" style="fill:rgb(148,239,0);fill-rule:nonzero;"/>
                        <path d="M143.12,280.81C139,281.85 132.36,283.01 124.36,281.95C111.51,280.25 102.84,273.84 97.73,269.97C93.94,267.1 87.41,261.51 81.99,253.14C68.95,232.99 71.54,210.88 72.61,204.05C73.73,199.41 75.99,193.01 80.77,186.69C83.56,183 88.68,176.23 98.05,173.02C103.08,171.29 107.56,171.2 110.42,171.37C114.04,171.85 123.09,173.55 131.58,180.8C140.45,188.37 143.47,197.53 144.44,201.02C144.98,204.45 145.42,208.27 145.63,212.43C145.84,216.45 145.8,220.17 145.63,223.54C143.39,219.65 140.19,214.9 135.71,210.05C131.65,205.67 127.62,202.36 124.19,199.93C119.64,196.92 115.46,195.45 112.58,194.7C109.25,193.82 106.12,193 102.24,193.7C96.73,194.7 93.04,198.18 91.26,200.19C89.44,202.68 88.61,204.97 88.21,206.44C87.38,209.43 87.5,211.97 87.62,214.54C87.72,216.65 87.97,218.39 88.19,219.59C88.92,216.4 90.76,210.8 95.68,206.61C96.82,205.64 98.39,204.33 100.82,203.57C106.3,201.85 111.28,204.47 112.67,205.27C114.84,206.35 117.63,208.02 120.46,210.55C122.72,212.58 124.41,214.61 125.63,216.33C124.04,216.82 121.41,217.91 119.3,220.39C117.55,222.44 116.9,224.58 116.35,226.36C115.67,228.55 115.46,230.47 115.39,231.83C115.29,235.09 115.5,242.09 119.45,249.67C123.14,256.75 128.26,260.81 130.93,262.65C132.76,264.06 135.07,265.61 137.89,267.04C140.36,268.29 142.67,269.18 144.66,269.81C144.32,271.23 144.01,272.76 143.76,274.4C143.4,276.71 143.21,278.88 143.12,280.84L143.12,280.81Z" style="fill:rgb(194,130,77);fill-rule:nonzero;"/>
                        <path d="M88.2,219.56C90.56,216.79 93.44,213.77 96.93,210.74C99.25,208.73 101.51,207 103.65,205.51C103.05,211.84 102.79,223.81 108.19,237.23C115.61,255.68 129.14,265.49 134.47,268.95C129.21,268.71 121.98,267.77 113.92,264.77C108.69,262.82 104.39,260.48 101.02,258.32C98.18,254.72 94.83,249.63 92.3,243.03C91.04,239.74 90.2,236.66 89.64,233.92C89.24,231.93 88.89,229.75 88.63,227.41C88.32,224.58 88.2,221.94 88.2,219.55L88.2,219.56Z" style="fill:rgb(206,146,86);fill-rule:nonzero;"/>
                        <path d="M102.7,269.82C98.36,266.95 79.33,253.67 74.94,229.25C73.01,218.51 74.59,209.38 76.15,203.58C77.57,199.1 80.42,192.14 86.28,185.28C87.48,183.87 88.7,182.6 89.9,181.45C95.19,176.4 102.54,174.07 109.76,175.25C109.81,175.25 109.86,175.27 109.92,175.28C118.53,176.73 124.32,181.18 126.87,183.41C129.51,185.73 132.3,188.41 135.12,191.47C139.03,195.73 142.23,199.89 144.83,203.68C145.1,206.8 145.25,210.21 145.18,213.89C145.14,216.16 145.01,218.33 144.83,220.37C141.56,215.98 137.41,211.06 132.21,206.09C128.12,202.17 124.11,198.93 120.43,196.26C118.74,194.94 114.26,191.8 107.72,191.36C102.65,191.02 98.72,192.47 96.76,193.34C95.58,193.88 92.86,195.33 90.83,198.45C89.17,201.02 88.77,203.5 88.65,204.78C87.64,211.73 87.06,221.06 88.6,231.86C91.08,249.31 97.92,262.31 102.68,269.81L102.7,269.82Z" style="fill:rgb(240,179,118);fill-rule:nonzero;"/>
                        <path d="M150.92,243.19C150.79,242.52 150.53,241.58 149.96,240.58C149.1,239.07 147.98,238.17 147.31,237.71C144.7,235.59 142.09,233.47 139.49,231.35C138.15,230.41 136.49,229.39 134.52,228.46C133.02,227.76 131.61,227.23 130.34,226.83C129.95,227.33 129.34,228.19 128.82,229.35C127.85,231.52 127.22,234.67 129.65,244.62C130.14,246.62 130.88,249.42 131.95,252.74C133.11,255.35 135.06,258.95 138.31,262.57C140.96,265.52 143.65,267.57 145.79,268.95C146.03,267.26 146.61,264.69 148.16,261.94C149.28,259.94 150.57,258.46 151.6,257.45C151.45,266.95 152.42,283.22 160.26,301.24C167.21,317.22 176.39,327.27 182.18,333.5C196.41,348.81 212.01,358.3 224.61,364.16C219.35,358.06 212.45,349.19 205.8,337.59C200.14,327.72 194.04,317.05 190.86,301.79C189.29,294.24 187.78,282.38 189.89,267.6C190.79,262.98 193.03,254.64 199.25,246.13C205.22,237.96 212.12,233.36 216.17,231.07C211.67,229.68 205.21,227.63 197.49,224.91C186.16,220.93 180.49,218.94 174.35,215.8C168.83,212.98 161.1,208.37 152.73,200.85C152.12,214.96 151.51,229.07 150.91,243.19L150.92,243.19Z" style="fill:rgb(74,38,16);fill-rule:nonzero;"/>
                        <path d="M194,229.98C191.18,231.31 179.04,237.42 173.06,252.01C167.24,266.18 171.19,278.7 172.25,281.74C172.64,282.91 173.7,283.74 174.9,283.82C176,283.89 177.06,283.33 177.65,282.38C177.78,276.95 178.58,269.3 181.57,260.67C185.28,249.95 190.79,242.29 194.68,237.7C194.86,237.48 196.6,235.3 195.83,232.66C195.41,231.2 194.43,230.34 194,230L194,229.98Z" style="fill:rgb(91,43,18);fill-rule:nonzero;"/>
                        <path d="M11.06,112.63C11.57,118.48 13.72,133.96 25.71,148.28C40.56,166.02 60.23,169.67 65.39,170.47C69.15,171.15 75.63,171.8 83.19,169.78C87.89,168.53 91.58,166.63 94.19,165C95.15,164.69 96.1,164.38 97.06,164.07L94.5,162.28C94.17,162.01 93.6,161.48 93.2,160.62C92.87,159.91 92.78,159.27 92.76,158.86C91.39,157.73 89.32,156.14 86.64,154.51C81.85,151.59 77.74,150.13 73.92,148.81C71.33,147.91 67.8,146.81 63.49,145.86C65.25,145.72 67.76,145.63 70.75,145.88C72.72,146.05 74.88,146.36 79.09,147.4C81.45,147.98 86.62,149.32 94.57,152.14C96.83,152.94 99.96,154.09 103.67,155.6C106.04,155.13 107.59,154.24 108.55,153.54C110.49,152.12 110.97,150.8 113.13,148.77C114.71,147.29 116.21,146.35 117.19,145.8C114.63,141.51 109.18,133.66 99.36,127.45C87.7,120.07 76.35,119.1 71.28,118.98C66.08,119.64 60.51,120.17 54.59,120.47C49.72,120.72 45.07,120.81 40.67,120.76C36.23,120.56 30.52,119.87 24.13,117.99C18.88,116.44 14.5,114.47 11.06,112.63Z" style="fill:rgb(65,104,0);fill-rule:nonzero;"/>
                        <path d="M117.18,145.79C116.24,146.32 114.79,147.22 113.27,148.62L108.01,145.05L98.6,138.77L38.52,133.3L17.63,119.46L11.51,116.42C11.29,114.91 11.15,113.63 11.06,112.63C14.5,114.47 18.88,116.43 24.13,117.98C30.52,119.87 36.22,120.55 40.67,120.75C45.07,120.79 49.72,120.71 54.59,120.46C60.51,120.15 66.08,119.63 71.28,118.97C76.35,119.09 87.7,120.06 99.36,127.44C109.18,133.65 114.63,141.49 117.19,145.79L117.18,145.79Z" style="fill:rgb(148,239,0);fill-rule:nonzero;"/>
                        <path d="M17.63,119.46C18.47,124.36 20.49,132.12 25.83,140.09C34.8,153.49 47.41,158.9 52.35,160.72C54.72,161.88 59.68,163.93 66.26,163.75C72.86,163.57 77.73,161.23 80.02,159.93C77.46,157.81 74.54,155.64 71.24,153.52C64.07,148.93 57.2,145.98 51.44,144.04C61.88,143.79 72.31,143.54 82.75,143.29C85.06,143.48 87.48,143.75 89.99,144.13C95.7,144.99 100.84,146.24 105.37,147.63C111.45,149.41 113.01,149.19 113.28,148.64C113.81,147.55 109.69,144.3 102.71,138.8C100.67,137.19 99.65,136.39 98.73,135.74C94.91,133.03 88.52,129.22 79.83,127.12C73.13,125.5 67.31,125.44 63.18,125.72C60,125.82 55.73,125.88 50.69,125.69C46.31,125.53 41.69,125.36 36.4,124.56C31.7,123.85 25.21,122.46 17.65,119.48L17.63,119.46Z" style="fill:rgb(111,179,0);fill-rule:nonzero;"/>
                        <path d="M120.61,154.94C119.88,155.73 119.07,156.71 118.28,157.89C117.58,158.95 117.03,159.96 116.62,160.85C117.25,161.32 118.03,161.84 118.98,162.31C120.32,162.98 121.56,163.35 122.54,163.56C122.14,162.48 121.76,161.26 121.43,159.92C120.99,158.09 120.74,156.41 120.61,154.94Z" style="fill:rgb(226,161,97);fill-rule:nonzero;"/>
                        <path d="M138.62,149.93C138.8,140.01 140.45,126.73 146.65,112.63C164.9,71.16 207.25,57.26 215.69,54.68C217.14,52.01 219.65,47.78 223.48,43.15C234.01,30.39 246.51,24.17 254.72,20.19C258.25,18.48 263.49,16.16 270.16,14.02C267.67,17.46 264.76,22.16 262.33,28.1C259.95,33.9 258.73,39.16 258.08,43.28C266.3,38.52 273.46,35.11 278.77,32.79C288.05,28.73 296.83,24.96 308.91,23.16C318.75,21.69 324.22,22.51 326.79,23C332.74,24.14 337.36,26.3 340.4,28.01C336.88,30.58 333.25,33.14 329.49,35.68C316.95,44.17 304.65,51.38 292.87,57.52C300.01,55.36 307.16,53.2 314.3,51.04C319.33,50.78 326.85,50.92 335.52,53.2C346.65,56.14 353.95,61.1 362.84,67.14C369.53,71.69 377.99,77.54 386.54,87.78C392.65,95.1 396.62,102.04 399.11,107.06C394,103.84 385.04,99.33 373.57,99.25C354.21,99.12 335.83,111.64 325.31,131.18C323.8,128.93 321.58,125.91 318.51,122.66C316.97,121.03 311.43,115.32 301.34,109.57C287.43,101.64 274.41,99.05 270.25,98.31C256.4,95.85 234.99,92.06 215.52,104.36C200.79,113.68 194.08,127.85 191.2,135.64C184.08,136.94 176.57,138.56 168.73,140.57C157.78,143.39 147.73,146.58 138.63,149.9L138.62,149.93Z" style="fill:rgb(116,57,27);fill-rule:nonzero;"/>
                        <path d="M399.1,107.07C395.98,105.1 391.43,102.66 385.76,101.04C377.76,91.7 370.15,84.85 364.4,80.16C355.5,72.9 345.14,64.59 329.56,58.8C320.75,55.53 312.85,54.02 306.9,53.29C309.37,52.54 311.83,51.8 314.3,51.05C319.33,50.79 326.85,50.93 335.52,53.21C346.65,56.15 353.95,61.11 362.84,67.15C369.53,71.7 377.99,77.55 386.54,87.79C392.65,95.11 396.62,102.05 399.11,107.07L399.1,107.07Z" style="fill:rgb(174,104,60);fill-rule:nonzero;"/>
                        <path d="M257.98,18.67C253.54,21.29 247.52,25.52 241.79,32.09C233.75,41.32 230.09,50.79 228.38,56.5C221.2,57.98 210.68,61.02 199.39,67.71C187.06,75.02 178.9,83.66 174.12,89.59C172.93,90.86 161.14,103.91 164.91,120.86C167.08,130.63 173.3,136.62 175.88,138.84C173.53,139.39 171.15,139.97 168.74,140.59C157.79,143.4 147.74,146.6 138.64,149.91C138.82,140 140.47,126.72 146.67,112.61C164.92,71.15 207.27,57.24 215.71,54.66C217.16,51.99 219.67,47.77 223.5,43.13C234.03,30.37 246.53,24.15 254.74,20.17C255.7,19.71 256.79,19.2 257.99,18.66L257.98,18.67Z" style="fill:rgb(73,38,15);fill-rule:nonzero;"/>
                        <path d="M200.91,134.92C202.56,130.76 206.43,122.66 214.78,115.64C221.62,109.89 228.54,107.33 232.66,106.15C238.95,104.92 247.25,104 256.89,104.81C268.58,105.79 277.07,108.87 282.59,110.92C289.47,113.47 296.53,116.16 304.26,122.15C309.82,126.46 313.7,130.9 316.2,134.16C291.67,133.32 266.13,133.08 239.64,133.61C226.47,133.87 213.55,134.32 200.9,134.92L200.91,134.92Z" style="fill:rgb(254,197,121);fill-rule:nonzero;"/>
                        <path d="M239.47,105.09C235.81,107.14 231.87,109.62 227.8,112.63C224.24,115.26 221.09,117.92 218.35,120.46C215.8,122.82 213.86,125.77 212.76,129.06C212.76,129.08 212.75,129.1 212.74,129.12C212.11,131.05 211.69,132.85 211.42,134.45C207.9,134.59 204.4,134.74 200.91,134.91C202.56,130.75 206.43,122.65 214.78,115.63C221.62,109.88 228.54,107.32 232.66,106.14C234.72,105.74 237,105.37 239.47,105.08L239.47,105.09Z" style="fill:rgb(234,166,94);fill-rule:nonzero;"/>
                        <path d="M316.21,134.15C312.83,134.03 309.43,133.93 306.01,133.84C304.21,131.72 302.01,129.42 299.37,127.11C296.9,124.96 294.5,123.2 292.32,121.77C288.47,119.43 283.92,116.98 278.68,114.71C273.18,112.33 268.06,110.63 263.55,109.41C258.15,108.56 252.51,107.78 246.64,107.12C242.28,106.63 238.03,106.23 233.89,105.9C240.02,104.79 247.87,104.04 256.89,104.79C268.58,105.77 277.07,108.85 282.59,110.9C289.47,113.45 296.53,116.14 304.26,122.13C309.82,126.44 313.7,130.88 316.2,134.14L316.21,134.15Z" style="fill:rgb(253,221,166);fill-rule:nonzero;"/>
                        <path d="M332.99,134.15C335.42,129.66 342.02,118.97 355.26,112.47C362.36,108.99 368.94,107.9 373.42,107.56C377.02,107.72 385.48,108.57 394.06,114.35C403.12,120.46 407.1,128.56 408.5,131.85C396.09,133.14 382.74,134.07 368.54,134.44C356.02,134.77 344.14,134.62 332.99,134.14L332.99,134.15Z" style="fill:rgb(254,197,121);fill-rule:nonzero;"/>
                        <path d="M408.5,131.86C405.42,132.18 402.29,132.48 399.1,132.75C398.16,130.14 396.18,125.68 392.07,121.39C387.71,116.85 383.04,114.66 380.41,113.65C377.64,112.36 373.51,110.84 368.33,110.33C365.1,110.01 362.26,110.17 359.98,110.47C362.08,109.7 364.55,108.96 367.37,108.4C369.64,107.95 371.69,107.71 373.42,107.57C377.02,107.73 385.48,108.58 394.06,114.36C403.13,120.47 407.1,128.57 408.5,131.86Z" style="fill:rgb(253,222,168);fill-rule:nonzero;"/>
                        <path d="M132.51,169.64C140.36,171.98 146.98,173.87 152.05,175.29C159.87,177.48 161.65,177.9 163.9,178.3C167.78,178.99 170.23,179.15 174.75,180.21C177.89,180.94 180.41,181.74 182.07,182.3C180.84,181.62 178.89,180.58 176.45,179.44C168.83,175.86 163.16,174.38 151.93,171.27C148.38,170.28 142.43,168.62 134.79,166.43C136.21,166.14 137.67,165.86 139.17,165.61C143.32,164.92 147.26,164.51 150.95,164.29C153.68,164.42 155.9,164.58 157.42,164.69C160.68,164.93 161.95,165.09 164.01,165.09C166.47,165.09 168.47,164.86 169.76,164.67C168.33,164.63 166.08,164.52 163.33,164.25C159.76,163.89 158.01,163.52 154.34,163.05C152.43,162.81 149.6,162.49 146.1,162.27C143.97,162.28 141.76,162.25 139.46,162.16C136.24,162.03 133.18,161.79 130.3,161.48C131.95,160.6 134.5,159.3 137.73,157.97C140.51,156.83 142.69,156.1 144.13,155.64C162.13,149.82 172.5,147.53 172.5,147.53C178.15,146.28 185.2,144.94 193.4,143.87C198.53,143.43 206.59,142.79 216.47,142.27C242.64,140.89 260.14,141.46 291.45,142.03C324.54,142.63 341.09,142.93 352.95,142.74C381.4,142.28 404.47,140.45 419.44,139C419.94,139.04 423.69,139.4 426.01,142.76C428.14,145.85 427.46,149.14 427.34,149.68C427.11,150.65 426.64,152.17 425.64,153.8C424.53,155.61 423.64,156.14 422.77,157.79C422.27,158.73 421.69,160.24 421.6,162.43C421.44,164.07 421.3,165.72 421.16,167.38C420.92,170.21 420.71,173 420.53,175.76C419.83,177.49 418.75,179.66 417.12,181.94C415.32,184.44 413.43,186.27 411.9,187.53C413.08,187.53 414.63,187.41 416.36,186.93C419.22,186.13 421.25,184.73 422.42,183.76C422.08,187.08 421.96,189.79 421.91,191.64C421.78,196.46 422.06,198.29 421.42,201.2C420.76,204.22 419.51,206.52 418.58,207.98C416.17,211.42 412.22,215.92 406.15,219.18C388.37,228.71 368.95,218.66 366.81,217.51C364.56,216.3 362.76,215.29 361.59,214.63C358.59,212.93 357.54,212.27 355.73,211.7C353.93,211.14 352.37,210.98 351.35,210.93C350.18,210.97 348.58,211.14 346.77,211.71C344.75,212.35 343.21,213.27 342.19,213.98C341.54,213.88 340.44,213.7 339.09,213.44C335.58,212.76 334.54,212.32 332.75,212.43C331.93,212.48 330.67,212.67 329.14,213.36C326.93,213.97 323.6,214.88 319.53,215.93C311.27,218.06 309.84,218.23 305.27,219.43C294.02,222.4 293.45,223.84 285.6,225.61C282.1,226.4 276.75,227.35 269.9,227.49C249.67,227.55 233.4,225.04 222.08,222.62C205.71,219.12 195.72,214.96 192.26,213.47C184.94,210.3 179.06,207.01 174.83,204.43C167.54,199.83 159.54,194.18 151.28,187.28C144.04,181.24 137.8,175.24 132.48,169.62L132.51,169.64Z" style="fill:rgb(198,31,15);fill-opacity:0.13;fill-rule:nonzero;"/>
                        <path d="M427.37,149.65C427.14,150.62 426.67,152.14 425.67,153.77C424.56,155.58 423.67,156.11 422.8,157.76C422.31,158.7 421.72,160.2 421.63,162.4C421.48,164.04 421.33,165.69 421.19,167.35C420.95,170.18 420.74,172.97 420.55,175.73C419.92,177.27 419,179.17 417.65,181.18C417.49,181.42 417.32,181.66 417.14,181.91C415.34,184.41 413.45,186.24 411.92,187.5C413.1,187.5 414.65,187.39 416.38,186.9C419.23,186.1 421.27,184.7 422.44,183.73C422.21,186.05 422.07,188.07 422,189.71C421.97,190.42 421.95,191.05 421.93,191.61C421.8,196.43 422.08,198.26 421.44,201.17C420.78,204.19 419.54,206.49 418.6,207.95C416.53,210.91 413.31,214.66 408.59,217.72C407.82,218.22 407.02,218.69 406.17,219.15C388.39,228.69 368.97,218.64 366.83,217.48C364.58,216.27 362.78,215.26 361.61,214.6C358.61,212.9 357.56,212.24 355.75,211.67C353.95,211.11 352.39,210.95 351.37,210.9C350.2,210.93 348.6,211.11 346.79,211.68C344.77,212.32 343.23,213.23 342.21,213.96C341.56,213.86 340.46,213.68 339.11,213.42C335.6,212.74 334.56,212.3 332.77,212.41C331.95,212.46 330.69,212.65 329.16,213.34C326.95,213.95 323.62,214.86 319.55,215.91C311.29,218.04 309.86,218.21 305.3,219.41C294.05,222.38 293.48,223.82 285.63,225.59C282.13,226.38 276.78,227.33 269.94,227.47C249.71,227.53 233.44,225.02 222.12,222.6C205.75,219.1 195.76,214.94 192.3,213.45C184.98,210.28 179.1,207 174.87,204.41C167.58,199.81 159.58,194.16 151.32,187.26C144.08,181.22 137.84,175.22 132.52,169.6C140.37,171.94 146.99,173.83 152.06,175.25C159.88,177.45 161.66,177.86 163.91,178.26C167.79,178.95 170.24,179.11 174.76,180.16C177.9,180.89 180.42,181.69 182.08,182.25C180.85,181.57 178.9,180.53 176.46,179.39C168.84,175.81 163.17,174.33 151.94,171.21C148.39,170.23 142.44,168.56 134.8,166.37C136.22,166.08 137.67,165.8 139.18,165.55C143.33,164.86 147.27,164.45 150.96,164.23C153.69,164.36 155.91,164.52 157.43,164.63C160.69,164.87 161.96,165.03 164.02,165.03C166.48,165.03 168.48,164.8 169.77,164.61C168.34,164.57 166.09,164.46 163.34,164.19C159.76,163.83 158.01,163.46 154.35,162.99C152.44,162.75 149.61,162.43 146.11,162.21C143.98,162.22 141.77,162.19 139.47,162.1C136.25,161.97 133.19,161.73 130.31,161.42C131.96,160.54 134.51,159.24 137.74,157.91C140.51,156.76 142.7,156.04 144.14,155.58C146.25,154.9 148.26,154.26 150.15,153.68C164.43,149.26 172.52,147.47 172.52,147.47C178.17,146.22 185.22,144.88 193.42,143.81C198.55,143.37 206.61,142.73 216.49,142.21C242.66,140.83 260.16,141.4 291.47,141.97C324.56,142.57 341.11,142.87 352.98,142.68C381.43,142.22 404.5,140.39 419.47,138.94C419.96,138.98 423.72,139.34 426.04,142.7C428.17,145.79 427.49,149.08 427.37,149.62L427.37,149.65Z" style="fill:rgb(198,31,15);fill-opacity:0.13;fill-rule:nonzero;"/>
                        <path d="M427.37,149.65C427.14,150.62 426.67,152.14 425.67,153.77C424.56,155.58 423.67,156.11 422.8,157.76C422.31,158.7 421.72,160.2 421.63,162.4C421.48,164.04 421.33,165.69 421.19,167.35C420.95,170.18 420.74,172.97 420.55,175.73C419.92,177.27 419,179.17 417.65,181.18C417.49,181.42 417.32,181.66 417.14,181.91C415.34,184.41 413.45,186.24 411.92,187.5C413.1,187.5 414.65,187.39 416.38,186.9C419.23,186.1 421.27,184.7 422.44,183.73C422.21,186.05 422.07,188.07 422,189.71C421.97,190.42 421.95,191.05 421.93,191.61C421.8,196.43 422.08,198.26 421.44,201.17C420.78,204.19 419.54,206.49 418.6,207.95C417.08,210.13 414.93,212.74 412.02,215.18C410.98,216.06 409.84,216.91 408.59,217.72C407.82,218.22 407.02,218.69 406.17,219.15C388.39,228.69 368.97,218.64 366.83,217.48C364.58,216.27 362.78,215.26 361.61,214.6C358.61,212.9 357.56,212.24 355.75,211.67C353.95,211.11 352.39,210.95 351.37,210.9C350.2,210.93 348.6,211.11 346.79,211.68C344.77,212.32 343.23,213.23 342.21,213.96C341.56,213.86 340.46,213.68 339.11,213.42C335.6,212.74 334.56,212.3 332.77,212.41C331.95,212.46 330.69,212.65 329.16,213.34C326.95,213.95 323.62,214.86 319.55,215.91C311.29,218.04 309.86,218.21 305.3,219.41C294.05,222.38 293.48,223.82 285.63,225.59C282.13,226.38 276.78,227.33 269.94,227.47C249.71,227.53 233.44,225.02 222.12,222.6C205.75,219.1 195.76,214.94 192.3,213.45C184.98,210.28 179.1,207 174.87,204.41C167.58,199.81 159.58,194.16 151.32,187.26C144.08,181.22 137.84,175.22 132.52,169.6C140.37,171.94 146.99,173.83 152.06,175.25C159.88,177.45 161.66,177.86 163.91,178.26C167.79,178.95 170.24,179.11 174.76,180.16C177.9,180.89 180.42,181.69 182.08,182.25C180.85,181.57 178.9,180.53 176.46,179.39C168.84,175.81 163.17,174.33 151.94,171.21C148.39,170.23 142.44,168.56 134.8,166.37C136.22,166.08 137.67,165.8 139.18,165.55C143.33,164.86 147.27,164.45 150.96,164.23C153.69,164.36 155.91,164.52 157.43,164.63C160.69,164.87 161.96,165.03 164.02,165.03C166.48,165.03 168.48,164.8 169.77,164.61C168.34,164.57 166.09,164.46 163.34,164.19C159.76,163.83 158.01,163.46 154.35,162.99C152.44,162.75 149.61,162.43 146.11,162.21C143.98,162.22 141.77,162.19 139.47,162.1C136.25,161.97 133.19,161.73 130.31,161.42C131.96,160.54 134.51,159.24 137.74,157.91C140.51,156.76 142.7,156.04 144.14,155.58C146.25,154.9 148.26,154.26 150.15,153.68C164.43,149.26 172.52,147.47 172.52,147.47C178.17,146.22 185.22,144.88 193.42,143.81C197.36,143.47 203.02,143.02 209.9,142.59C211.99,142.46 214.19,142.33 216.49,142.21C242.66,140.83 260.16,141.4 291.47,141.97C324.56,142.57 341.11,142.87 352.98,142.68C381.43,142.22 404.5,140.39 419.47,138.94C419.96,138.98 423.72,139.34 426.04,142.7C428.17,145.79 427.49,149.08 427.37,149.62L427.37,149.65Z" style="fill:rgb(111,179,0);fill-rule:nonzero;"/>
                        <path d="M419.64,244.59C421.17,241.35 422.81,237.12 423.97,232.02C425.2,226.58 425.5,221.78 425.47,218.05C427.82,215.16 429.23,212.5 430.07,210.6C433.51,202.87 433.14,195.49 432.87,191.25C432.76,189.5 432.58,188.06 432.44,187.09C433.21,184.78 433.98,182.48 434.75,180.17C437.9,183.45 443.6,190.29 446.34,200.61C448.77,209.77 447.69,217.2 446.94,221.99C446.27,226.31 444.7,235.67 437.92,245.21C434.64,249.83 431.15,253.08 428.54,255.19C425.57,251.66 422.6,248.12 419.63,244.59L419.64,244.59Z" style="fill:rgb(202,141,84);fill-rule:nonzero;"/>
                        <path d="M446.94,221.99C446.27,226.31 444.7,235.67 437.92,245.21C436.4,247.36 434.83,249.21 433.32,250.78C437.42,243.83 445.95,226.43 441.29,205.69C439.41,197.31 435.89,190.73 432.77,186.1C433.43,184.12 434.1,182.14 434.75,180.16C437.91,183.44 443.6,190.28 446.34,200.6C448.77,209.76 447.69,217.19 446.94,221.98L446.94,221.99Z" style="fill:rgb(249,192,133);fill-rule:nonzero;"/>
                        <path d="M389.8,232.22L405.88,241.1C407.32,240.07 410.31,237.63 412.11,233.35C413.3,230.52 413.52,227.97 413.52,226.35C410.2,227.78 406.15,229.24 401.43,230.38C397.11,231.42 393.18,231.95 389.8,232.22Z" style="fill:rgb(72,34,13);fill-rule:nonzero;"/>
                        <path d="M413.52,226.36C413.52,227.97 413.31,230.52 412.11,233.36C410.31,237.63 407.32,240.08 405.88,241.11L403.29,239.68C404.29,238.35 405.45,236.5 406.32,234.12C407.09,232.03 407.43,230.13 407.57,228.63C409.75,227.9 411.74,227.13 413.52,226.36Z" style="fill:rgb(136,70,36);fill-rule:nonzero;"/>
                        <path d="M425.11,304.22C424.22,306.72 423.08,309.44 421.6,312.28C418.24,318.72 414.25,323.6 410.85,327.1C410.32,329.81 409.56,332.81 408.46,335.99C406.29,342.26 403.47,347.3 400.91,351.11C396.1,357.88 387.41,368.2 373.55,376.6C372.53,377.22 371.51,377.81 370.5,378.37C351.07,389.13 332.61,390.04 324.07,389.94C313.48,389.58 297.72,387.78 280.11,380.78C257.48,371.79 242.43,358.44 234.29,350.03C227.69,344.08 217.74,333.59 210.19,317.86C200.89,298.45 199.9,280.77 200.05,271.31C200.35,268.6 201,264.66 202.52,260.1C204.11,255.35 206.71,247.59 213.89,241.28C215.96,239.46 219.45,236.85 224.62,234.9C235.41,236.23 247.01,237.27 259.35,237.86C272.61,238.49 285.08,238.52 296.66,238.15C299.79,240.69 302.91,243.24 306.03,245.78C303.04,236.62 305.29,227.12 311.17,222.64C312.29,221.79 313.55,221.11 314.91,220.6C323.47,217.44 336.07,221.18 342.48,232.8C344.87,225.18 350.44,219.54 356.14,219.19C364.08,218.71 373.88,228.41 372.72,242.54C373.53,241.8 374.57,240.67 375.47,239.08C376.68,236.95 377.08,234.95 377.23,233.71C378.81,233.93 381.21,234.36 384.01,235.3C391.49,237.8 396.31,242.04 401.67,246.84C404.5,249.38 408.22,252.76 412.27,258.05C415.54,262.34 420.01,268.19 422.58,277.03C424.23,282.72 424.59,287.92 424.46,292.09C423.6,293.03 422.24,294.42 420.44,295.94C414.77,300.72 408.49,303.52 394.16,307.16C387.8,308.77 379.62,310.61 369.93,312.18C355.25,313.65 342.84,313.41 333.6,312.78C321.63,311.96 309.91,311.08 295.52,306.19C285.6,302.82 277.84,298.71 272.57,295.55C267.71,292.65 260.66,287.63 254.19,279.51C249.2,273.26 246.16,267.18 244.3,262.59C246.22,261.96 248.58,261.35 251.3,261.02C255.34,260.52 258.83,260.78 261.42,261.18C259.26,259.38 252.89,254.56 243.46,254.04C236.56,253.66 231.24,255.76 228.63,257C227.03,258.1 224.8,259.98 223.15,262.96C218.85,270.71 222.27,279.01 222.81,280.24C223.01,278.29 223.74,273.86 227.07,269.62C229.49,266.53 232.26,264.84 233.93,263.99C234.84,266.87 236.11,270.11 237.91,273.51C241.94,281.14 246.97,286.5 250.87,289.96C256.78,295.15 265.65,302.03 277.56,308.03C301.34,320.02 322.6,321.21 336.43,321.83C374.76,323.57 406.19,312.71 425.09,304.21L425.11,304.22Z" style="fill-opacity:0.07;fill-rule:nonzero;"/>
                        <path d="M336.45,321.85C322.61,321.22 301.35,320.04 277.58,308.05C265.67,302.05 256.79,295.17 250.89,289.98C246.99,286.52 241.96,281.17 237.93,273.53C236.13,270.13 234.86,266.89 233.95,264.01C232.28,264.86 229.51,266.55 227.09,269.64C223.76,273.89 223.03,278.32 222.83,280.26C222.3,279.03 218.87,270.73 223.17,262.98C224.82,260.01 227.05,258.12 228.65,257.02C231.26,255.77 236.58,253.68 243.48,254.06C252.91,254.58 259.28,259.41 261.44,261.2C258.84,260.8 255.36,260.54 251.32,261.04C248.59,261.38 246.24,261.98 244.32,262.61C246.18,267.2 249.22,273.28 254.21,279.53C260.68,287.64 267.73,292.66 272.59,295.57C277.86,298.73 285.62,302.84 295.54,306.21C309.93,311.1 321.65,311.98 333.62,312.8C342.86,313.43 355.27,313.68 369.95,312.2C379.63,310.63 387.82,308.79 394.18,307.18C408.51,303.55 414.8,300.74 420.46,295.96C422.26,294.44 423.62,293.05 424.48,292.11C424.6,287.94 424.25,282.74 422.6,277.05C420.04,268.21 415.57,262.36 412.29,258.07C408.24,252.77 404.52,249.4 401.69,246.86C396.33,242.05 391.52,237.82 384.03,235.32C381.24,234.39 378.84,233.95 377.25,233.73C377.1,234.97 376.7,236.97 375.49,239.1C374.59,240.69 373.54,241.82 372.74,242.56C373.9,228.43 364.1,218.72 356.16,219.21C350.46,219.56 344.89,225.2 342.5,232.82C336.09,221.2 323.48,217.46 314.93,220.62C313.56,221.12 312.3,221.81 311.19,222.66C305.31,227.14 303.06,236.64 306.05,245.8C302.92,243.26 299.8,240.71 296.68,238.17C285.11,238.55 272.63,238.52 259.37,237.88C247.03,237.29 235.43,236.25 224.64,234.92C219.47,236.87 215.98,239.48 213.91,241.3C206.73,247.61 204.13,255.36 202.54,260.12C201.01,264.67 200.37,268.62 200.07,271.33C199.92,280.79 200.91,298.47 210.21,317.88C217.75,333.62 227.7,344.1 234.31,350.05C242.45,358.46 257.5,371.8 280.13,380.8C297.74,387.8 313.5,389.6 324.09,389.96C332.62,390.06 351.09,389.16 370.52,378.39C371.53,377.83 372.55,377.24 373.57,376.62C387.43,368.22 396.11,357.9 400.93,351.13C403.48,347.33 406.3,342.28 408.48,336.01C409.58,332.82 410.34,329.83 410.87,327.12C414.27,323.62 418.26,318.74 421.62,312.3C423.1,309.46 424.25,306.74 425.13,304.24C406.23,312.74 374.8,323.6 336.47,321.86L336.45,321.85ZM354.27,247.96C354.78,242.06 355.25,240 356.6,237.96C357.33,236.86 358.15,235.99 358.93,235.33C360.54,233.95 362.95,233.91 364.52,235.33C364.58,235.39 364.65,235.45 364.71,235.51C365.45,236.27 365.8,237.13 365.94,237.89C366.11,238.78 366.01,239.69 365.72,240.54C365.39,241.51 364.88,242.81 364.14,244.26C362.7,247.07 361.33,248.57 357.15,253.8C356.36,254.78 355.16,256.3 353.68,258.18C353.8,254.14 354.04,250.68 354.28,247.95L354.27,247.96ZM315.57,232.52C316.94,232.23 318.7,232.03 320.71,232.22C326.04,232.7 329.71,235.57 331.22,236.9C333.44,239.03 336.85,242.85 339.22,248.55C340.93,252.67 341.53,256.39 341.74,259.05C334.83,254.23 327.92,249.4 321.01,244.58C318.6,242.9 316.79,240.45 316,237.62C315.97,237.5 315.93,237.37 315.9,237.24C315.42,235.32 315.46,233.66 315.58,232.52L315.57,232.52Z" style="fill-opacity:0.07;fill-rule:nonzero;"/>
                        <path d="M417.6,307.43C398.4,315.2 370.08,323.37 336.45,321.84C322.61,321.21 301.35,320.03 277.58,308.04C265.67,302.04 256.79,295.16 250.89,289.97C246.99,286.51 241.96,281.16 237.93,273.52C236.13,270.12 234.86,266.88 233.95,264C232.28,264.85 229.51,266.54 227.09,269.63C223.76,273.88 223.03,278.31 222.83,280.25C222.3,279.02 218.87,270.72 223.17,262.97C224.82,260 227.05,258.11 228.65,257.01C231.26,255.76 236.58,253.67 243.48,254.05C252.91,254.57 259.28,259.4 261.44,261.19C258.84,260.79 255.36,260.53 251.32,261.03C248.59,261.37 246.24,261.97 244.32,262.6C246.18,267.19 249.22,273.27 254.21,279.52C260.68,287.63 267.73,292.65 272.59,295.56C277.86,298.72 285.62,302.83 295.54,306.2C309.93,311.09 321.65,311.97 333.62,312.79C342.86,313.42 355.27,313.67 369.95,312.19C379.63,310.62 387.82,308.78 394.18,307.17C406.29,304.1 412.65,301.62 417.75,298.05C418.69,297.39 419.58,296.7 420.46,295.96C422.26,294.44 423.62,293.05 424.48,292.11C424.6,287.94 424.25,282.74 422.6,277.05C420.04,268.21 415.57,262.36 412.29,258.07C408.24,252.77 404.52,249.4 401.69,246.86C396.33,242.05 391.52,237.82 384.03,235.32C382.33,234.75 380.78,234.37 379.47,234.11C378.62,233.94 377.88,233.82 377.26,233.73C377.11,234.97 376.71,236.97 375.5,239.1C374.6,240.69 373.55,241.82 372.75,242.56C373.91,228.43 364.11,218.72 356.17,219.21C350.47,219.56 344.9,225.2 342.51,232.82C336.1,221.2 323.49,217.46 314.94,220.62C313.57,221.12 312.31,221.81 311.2,222.66C305.32,227.14 303.07,236.64 306.06,245.8C302.93,243.26 299.81,240.71 296.69,238.17C285.12,238.55 272.64,238.52 259.38,237.88C247.04,237.29 235.44,236.25 224.65,234.92C219.48,236.87 215.99,239.48 213.92,241.3C206.74,247.61 204.14,255.36 202.55,260.12C201.02,264.67 200.38,268.62 200.08,271.33C199.93,280.79 200.92,298.47 210.22,317.88C217.76,333.62 227.71,344.1 234.32,350.05C242.46,358.46 257.51,371.8 280.14,380.8C297.75,387.8 313.51,389.6 324.1,389.96C332.63,390.06 351.1,389.16 370.53,378.39C370.55,378.39 370.57,378.37 370.58,378.36C371.58,377.81 372.58,377.23 373.58,376.62C387.44,368.22 396.12,357.9 400.94,351.13C403.49,347.33 406.31,342.28 408.49,336.01C409.59,332.82 410.35,329.83 410.88,327.12C414.28,323.62 418.27,318.74 421.63,312.3C423.11,309.46 424.26,306.74 425.14,304.24C422.82,305.28 420.31,306.36 417.63,307.45L417.6,307.43ZM354.27,247.96C354.78,242.06 355.25,240 356.6,237.96C357.33,236.86 358.15,235.99 358.93,235.33C360.54,233.95 362.95,233.91 364.52,235.33C364.58,235.39 364.65,235.45 364.71,235.51C365.45,236.27 365.8,237.13 365.94,237.89C366.11,238.78 366.01,239.69 365.72,240.54C365.39,241.51 364.88,242.81 364.14,244.26C362.7,247.07 361.33,248.57 357.15,253.8C356.36,254.78 355.16,256.3 353.68,258.18C353.8,254.14 354.04,250.68 354.28,247.95L354.27,247.96ZM315.57,232.52C316.94,232.23 318.7,232.03 320.71,232.22C326.04,232.7 329.71,235.57 331.22,236.9C333.44,239.03 336.85,242.85 339.22,248.55C340.93,252.67 341.53,256.39 341.74,259.05C334.83,254.23 327.92,249.4 321.01,244.58C318.6,242.9 316.79,240.45 316,237.62C315.97,237.5 315.93,237.37 315.9,237.24C315.42,235.32 315.46,233.66 315.58,232.52L315.57,232.52Z" style="fill:rgb(247,192,129);fill-rule:nonzero;"/>
                        <path d="M333.51,233.36C331.53,231.7 329.47,230.52 327.56,229.66C324.89,228.47 321.83,228.49 319.21,229.77C319.19,229.78 319.17,229.79 319.14,229.8C317.42,230.66 316.25,231.75 315.56,232.52C316.93,232.23 318.69,232.03 320.7,232.22C326.03,232.7 329.7,235.57 331.21,236.9C333.43,239.03 336.84,242.85 339.21,248.55C340.42,251.45 341.07,254.16 341.43,256.43C341.88,256.84 342.32,257.25 342.76,257.66C342.98,257.87 343.35,257.71 343.35,257.41C343.42,253.69 342.97,241.27 333.51,233.35L333.51,233.36ZM358.56,274.48C357.31,270.48 355.94,266.83 354.54,263.52C354.2,262.72 354.29,261.79 354.79,261.08C356.41,258.77 358.09,256.03 359.66,252.83C360.49,251.13 361.19,249.5 361.79,247.94C360.73,249.35 359.31,251.07 357.13,253.8C356.34,254.78 355.14,256.3 353.66,258.18C353.78,254.14 354.02,250.68 354.26,247.95C354.77,242.05 355.24,239.99 356.59,237.95C357.32,236.85 358.14,235.98 358.92,235.32C359.2,235.08 359.51,234.88 359.83,234.72C359.78,234.51 359.72,234.29 359.66,234.08C359.56,233.69 359.13,233.49 358.76,233.65C357.61,234.18 356.14,235.06 354.92,236.56C352.93,239.02 352.65,241.86 352.6,251.56C352.59,254.36 352.59,257.66 352.63,261.36C352.75,263.01 353.02,265.67 353.65,268.89C354.78,274.6 356.21,277.58 358.34,284.55C359.02,286.77 360,290.13 361.01,294.34C361.2,293.35 361.35,292.27 361.45,291.11C361.63,288.84 361.55,286.81 361.36,285.09C360.65,281.78 359.73,278.22 358.56,274.48Z" style="fill:rgb(207,144,86);fill-rule:nonzero;"/>
                        <path d="M250.88,289.97C251.55,290.56 252.26,291.17 253.01,291.8C249.64,289.6 246.02,286.92 242.35,283.67C236.28,278.29 231.72,272.83 228.37,268.14C230.43,265.97 232.57,264.7 233.94,264C234.85,266.88 236.12,270.12 237.92,273.52C241.95,281.15 246.98,286.51 250.88,289.97Z" style="fill:rgb(207,146,87);fill-rule:nonzero;"/>
                        <path d="M369.93,312.21C355.25,313.68 342.84,313.44 333.6,312.81C321.63,311.99 309.91,311.11 295.52,306.22C285.6,302.85 277.84,298.74 272.57,295.58C267.71,292.68 260.66,287.66 254.19,279.54C249.2,273.29 246.16,267.21 244.3,262.62C246.22,261.99 248.58,261.38 251.3,261.05C255.34,260.55 258.83,260.81 261.42,261.21C256.83,261.92 252.24,262.62 247.65,263.33C258.04,277.63 269,286.11 276.37,290.91C297.99,305.01 319.96,307.86 339.34,310.37C352.03,312.02 362.65,312.28 369.91,312.21L369.93,312.21Z" style="fill:rgb(207,146,87);fill-rule:nonzero;"/>
                        <path d="M394.68,350.09C386.61,359.52 378.55,368.94 370.49,378.37C351.06,389.13 332.6,390.04 324.06,389.94C313.47,389.58 297.71,387.78 280.1,380.78C257.47,371.79 242.42,358.44 234.28,350.03C227.68,344.08 217.73,333.59 210.18,317.86C200.88,298.45 199.89,280.77 200.04,271.31C200.34,268.6 200.99,264.66 202.51,260.1C204.1,255.35 206.7,247.59 213.88,241.28C215.95,239.46 219.44,236.85 224.61,234.9C235.4,236.23 247,237.27 259.34,237.86C272.6,238.49 285.07,238.52 296.65,238.15C299.78,240.69 302.9,243.24 306.02,245.78C303.03,236.62 305.28,227.12 311.16,222.64C312.28,221.79 313.54,221.11 314.9,220.6C313.49,222.08 312,223.95 310.69,226.26C309.47,228.41 308.69,230.45 308.18,232.16C307.69,234.34 307.08,238.4 308.26,243.22C309.82,249.63 313.6,253.62 315.26,255.18C305.11,250.27 291.54,245.37 275.04,243.93C274.07,243.85 271.29,243.61 264.09,243.43C252.97,243.13 238.64,243.13 221.71,244.08C219.57,248.38 216.88,254.89 215.63,263.11C211.72,288.72 224.97,309.3 232.08,320.35C246.97,343.48 266.89,355.66 278.2,361.37C285.85,365.94 297.77,371.82 313.35,374.99C326.31,377.62 337.51,377.5 345.58,376.78C352.38,375.46 362.1,372.78 372.65,366.97C382.75,361.41 389.98,354.96 394.68,350.07L394.68,350.09Z" style="fill-opacity:0.07;fill-rule:nonzero;"/>
                        <path d="M301.83,330.72C311.9,333.52 325.99,336.32 342.94,336.28C359.53,336.24 373.35,333.49 383.29,330.72C380.81,333.64 377.15,337.26 372.06,340.42C361.88,346.72 351.83,347.54 346.82,347.59C340.55,347.82 328.95,347.34 316.55,341.11C310.09,337.86 305.24,333.97 301.83,330.72Z" style="fill:rgb(216,157,97);fill-rule:nonzero;"/>
                        <path d="M250.88,289.97C251.55,290.56 252.26,291.17 253.01,291.8C249.64,289.6 246.02,286.92 242.35,283.67C236.28,278.29 231.72,272.83 228.37,268.14C230.43,265.97 232.57,264.7 233.94,264C234.85,266.88 236.12,270.12 237.92,273.52C241.95,281.15 246.98,286.51 250.88,289.97Z" style="fill:rgb(207,146,87);fill-rule:nonzero;"/>
                        <path d="M369.93,312.21C355.25,313.68 342.84,313.44 333.6,312.81C321.63,311.99 309.91,311.11 295.52,306.22C285.6,302.85 277.84,298.74 272.57,295.58C267.71,292.68 260.66,287.66 254.19,279.54C249.2,273.29 246.16,267.21 244.3,262.62C246.22,261.99 248.58,261.38 251.3,261.05C255.34,260.55 258.83,260.81 261.42,261.21C256.83,261.92 252.24,262.62 247.65,263.33C258.04,277.63 269,286.11 276.37,290.91C297.99,305.01 319.96,307.86 339.34,310.37C352.03,312.02 362.65,312.28 369.91,312.21L369.93,312.21Z" style="fill:rgb(207,146,87);fill-rule:nonzero;"/>
                        <path d="M343.36,257.41C343.36,257.72 342.99,257.87 342.77,257.66C342.32,257.25 341.88,256.84 341.44,256.43C341.09,254.16 340.43,251.45 339.22,248.55C336.85,242.85 333.44,239.03 331.22,236.9C329.71,235.56 326.04,232.7 320.71,232.22C318.7,232.04 316.94,232.24 315.57,232.52C316.26,231.76 317.43,230.66 319.15,229.8C319.17,229.79 319.19,229.78 319.22,229.77C321.84,228.49 324.9,228.47 327.57,229.66C329.48,230.51 331.53,231.7 333.52,233.36C342.98,241.27 343.43,253.7 343.36,257.42L343.36,257.41Z" style="fill:rgb(207,144,86);fill-rule:nonzero;"/>
                        <path d="M361.36,285.1C361.55,286.82 361.64,288.85 361.45,291.12C361.35,292.28 361.2,293.36 361.01,294.35C360,290.15 359.02,286.78 358.34,284.56C356.21,277.58 354.78,274.61 353.65,268.9C353.01,265.68 352.75,263.02 352.63,261.37C352.58,257.67 352.58,254.37 352.6,251.57C352.65,241.87 352.93,239.03 354.92,236.57C356.14,235.07 357.61,234.19 358.76,233.66C359.13,233.49 359.56,233.69 359.66,234.09C359.71,234.3 359.77,234.52 359.83,234.73C359.51,234.89 359.2,235.09 358.92,235.33C358.15,235.99 357.32,236.86 356.59,237.96C355.24,240 354.77,242.06 354.26,247.96C354.02,250.69 353.78,254.15 353.66,258.19C355.14,256.31 356.34,254.79 357.13,253.81C359.32,251.08 360.73,249.37 361.79,247.95C361.19,249.5 360.49,251.14 359.66,252.84C358.1,256.03 356.41,258.78 354.79,261.09C354.29,261.81 354.2,262.73 354.54,263.53C355.93,266.84 357.31,270.49 358.56,274.49C359.73,278.24 360.65,281.8 361.36,285.1Z" style="fill:rgb(207,144,86);fill-rule:nonzero;"/>
                        <path d="M424.46,292.12C423.6,293.06 422.24,294.45 420.44,295.97C419.56,296.71 418.66,297.41 417.73,298.06C416.46,287.99 412.57,269.91 399.14,252.68C392.54,244.22 385.4,238.23 379.45,234.1C380.76,234.36 382.31,234.74 384.01,235.31C391.49,237.81 396.31,242.05 401.67,246.85C404.5,249.39 408.22,252.77 412.27,258.06C415.54,262.35 420.01,268.2 422.58,277.04C424.23,282.73 424.59,287.93 424.46,292.1L424.46,292.12Z" style="fill:rgb(255,214,162);fill-rule:nonzero;"/>
                        <path d="M425.11,304.22C424.22,306.72 423.08,309.44 421.6,312.28C418.24,318.72 414.25,323.6 410.85,327.1C410.32,329.81 409.56,332.81 408.46,335.99C406.29,342.26 403.47,347.3 400.91,351.11C396.1,357.88 387.41,368.2 373.55,376.6C372.55,377.21 371.55,377.79 370.55,378.34C378.58,370.75 387.63,360.92 396.31,348.52C402.02,340.37 406.59,332.52 410.24,325.36C412.69,319.38 415.15,313.4 417.6,307.43C420.29,306.34 422.79,305.27 425.11,304.22Z" style="fill:rgb(255,214,162);fill-rule:nonzero;"/>
                        <path d="M297.51,209.16L322.06,205.51C322.82,205.4 323.59,205.31 324.36,205.26C326.43,205.11 328.51,204.97 330.59,204.83C341.87,204.06 353.06,203.38 364.18,202.79C364.37,202.78 364.44,202.53 364.28,202.43C363.53,201.95 362.7,201.47 361.8,201.02C359.07,199.65 356.45,198.92 354.23,198.53C353.37,198.38 352.5,198.28 351.63,198.25C345.11,197.96 337.89,198 330.1,198.58C324.72,198.98 319.68,199.6 315.01,200.35C316.69,200.67 318.38,201 320.06,201.32C316.93,202.19 313.72,203.14 310.44,204.17C305.89,205.61 301.54,207.12 297.4,208.67C297.11,208.78 297.23,209.21 297.53,209.16L297.51,209.16Z" style="fill:rgb(46,74,0);fill-rule:nonzero;"/>
                        <path d="M412.02,215.21C410.98,216.09 409.84,216.94 408.59,217.75C407.82,218.25 407.02,218.72 406.17,219.18C388.39,228.72 368.97,218.67 366.83,217.51C364.58,216.3 362.78,215.29 361.61,214.63C358.61,212.93 357.56,212.27 355.75,211.7C353.95,211.14 352.39,210.98 351.37,210.93C350.2,210.96 348.6,211.14 346.79,211.71C344.77,212.35 343.23,213.26 342.21,213.99C341.56,213.89 340.46,213.71 339.11,213.45C335.6,212.77 334.56,212.33 332.77,212.44C331.95,212.49 330.69,212.68 329.16,213.37C326.95,213.98 323.62,214.89 319.55,215.94C311.29,218.07 309.86,218.24 305.3,219.44C294.05,222.41 293.48,223.85 285.63,225.62C282.13,226.41 276.78,227.36 269.94,227.5C249.71,227.56 233.44,225.05 222.12,222.63C205.75,219.13 195.76,214.97 192.3,213.48C184.98,210.31 179.1,207.03 174.87,204.44C167.58,199.84 159.58,194.19 151.32,187.29C144.08,181.25 137.84,175.25 132.52,169.63C140.37,171.97 146.99,173.86 152.06,175.28C159.88,177.48 161.66,177.89 163.91,178.29C167.79,178.98 170.24,179.14 174.76,180.19C177.9,180.92 180.42,181.72 182.08,182.28C180.85,181.6 178.9,180.56 176.46,179.42C168.84,175.84 163.17,174.36 151.94,171.24C148.39,170.26 142.44,168.59 134.8,166.4C136.22,166.11 137.67,165.83 139.18,165.58C143.33,164.89 147.27,164.48 150.96,164.26C153.69,164.39 155.91,164.55 157.43,164.66C160.69,164.9 161.96,165.06 164.02,165.06C166.48,165.06 168.48,164.83 169.77,164.64C168.34,164.6 166.09,164.49 163.34,164.22C159.76,163.86 158.01,163.49 154.35,163.02C152.44,162.78 149.61,162.46 146.11,162.24C143.98,162.25 141.77,162.22 139.47,162.13C136.25,162 133.19,161.76 130.31,161.45C131.96,160.57 134.51,159.27 137.74,157.94C140.51,156.79 142.7,156.07 144.14,155.61C146.25,154.93 148.26,154.29 150.15,153.71C164.43,149.29 172.52,147.5 172.52,147.5C178.17,146.25 185.22,144.91 193.42,143.84C197.36,143.5 203.02,143.05 209.9,142.62C208.87,144.41 208.01,146.65 207.81,149.31C207.61,152.04 208.18,154.3 208.72,155.79C209.43,157.12 210.59,158.95 212.42,160.77C214.32,162.65 216.23,163.81 217.61,164.51C216.75,164.8 211.82,166.57 209.57,171.76C208.16,175.01 208.5,177.98 208.72,179.26C209.59,181.44 211.24,184.93 214.33,188.31C217.96,192.28 222.43,194.85 239.72,200.48C243.81,201.81 249.42,203.58 256.2,205.51C249.94,205.77 243.05,205.75 235.64,205.26C230.49,204.92 225.63,204.38 221.1,203.73C216.34,203.01 211.06,201.94 205.42,200.35C201.32,199.2 197.55,197.92 194.12,196.6C196.99,199.23 200.32,201.98 204.12,204.7C210.3,209.12 216.25,212.37 221.44,214.78C229.44,218.32 243.88,223.46 262.51,223.34C278.93,223.24 291.86,219.09 299.62,215.92C304.3,214.53 309.34,213.19 314.71,211.99C319.96,210.82 324.97,209.89 329.71,209.17C333.49,209.47 337.26,209.77 341.04,210.07C342.91,209.49 344.92,208.93 347.05,208.42C349.03,207.95 350.94,207.57 352.74,207.26C354.69,207.79 356.88,208.51 359.19,209.51C362.69,211.02 365.57,212.75 367.82,214.34C371.5,216.11 377.87,218.56 386.07,218.74C398.57,219.01 407.7,213.83 411.33,211.5C411.56,212.74 411.79,213.97 412.02,215.21Z" style="fill:rgb(65,104,0);fill-rule:nonzero;"/>
                        <path d="M419.64,188.7C419.79,188.66 420.62,188.48 421.35,188.99C421.71,189.24 421.9,189.55 422,189.73C421.99,190.09 421.94,191.27 421.93,191.63C421.8,196.45 422.08,198.28 421.44,201.19C420.78,204.21 419.54,206.51 418.6,207.97C416.53,210.93 413.31,214.68 408.59,217.74L411.22,207.73C411.58,205.63 411.86,203.29 412,200.74C412.19,197.05 412.03,193.73 411.71,190.89C413.07,190.62 414.53,190.28 416.05,189.84C417.32,189.48 418.51,189.09 419.63,188.69L419.64,188.7Z" style="fill:rgb(148,239,0);fill-rule:nonzero;"/>
                        <path d="M427.37,149.65C427.14,150.62 426.67,152.14 425.67,153.77C424.56,155.58 423.67,156.11 422.8,157.76C422.31,158.7 421.72,160.2 421.63,162.4C421.48,164.04 421.33,165.69 421.19,167.35C420.95,170.18 420.74,172.97 420.55,175.73C419.92,177.27 419,179.17 417.65,181.18C416.97,181.17 415.88,181.05 414.7,180.49C412.72,179.56 411.74,177.98 411.39,177.35C410.97,173.45 410.79,168.5 411.42,162.84C412.16,156.27 413.76,150.83 415.29,146.79C397.46,147.15 379.63,147.52 361.8,147.88C342.31,147.92 326.66,147.76 316.68,147.63C277.74,147.11 259.56,146.1 225.07,146.33C212.3,146.41 202.02,146.64 196.03,146.79C187.76,147.23 178.67,148.14 168.92,149.78C162.23,150.9 155.97,152.24 150.16,153.7C157.62,151.63 172.53,147.49 172.53,147.49C178.18,146.24 185.23,144.9 193.43,143.83C198.56,143.39 206.62,142.75 216.5,142.23C242.67,140.85 260.17,141.42 291.48,141.99C324.57,142.59 341.12,142.89 352.99,142.7C381.44,142.24 404.51,140.41 419.48,138.96C419.97,139 423.73,139.36 426.05,142.72C428.18,145.81 427.5,149.1 427.38,149.64L427.37,149.65Z" style="fill:rgb(148,239,0);fill-rule:nonzero;"/>
                        <path d="M394.68,350.09C395.68,350.94 391.36,358.04 387.21,363.29C381.34,370.72 374.99,375.49 370.49,378.37C361.87,382.78 345.5,390.66 324.06,389.94C313.47,389.58 297.71,387.78 280.1,380.78C257.47,371.79 242.42,358.44 234.28,350.03C227.68,344.08 217.73,333.59 210.18,317.86C200.88,298.45 199.89,280.77 200.04,271.31C200.34,268.6 200.99,264.66 202.51,260.1C204.1,255.35 206.7,247.59 213.88,241.28C215.95,239.46 219.44,236.85 224.61,234.9C235.4,236.23 247,237.27 259.34,237.86C272.6,238.49 285.07,238.52 296.65,238.15C299.78,240.69 302.9,243.24 306.02,245.78C303.03,236.62 305.28,227.12 311.16,222.64C312.28,221.79 313.54,221.11 314.9,220.6C313.49,222.08 312,223.95 310.69,226.26C309.47,228.41 308.69,230.45 308.18,232.16C307.69,234.34 307.08,238.4 308.26,243.22C309.82,249.63 313.6,253.62 315.26,255.18C305.11,250.27 291.54,245.37 275.04,243.93C274.07,243.85 271.29,243.61 264.09,243.43C252.97,243.13 238.64,243.13 221.71,244.08C219.57,248.38 216.88,254.89 215.63,263.11C211.72,288.72 224.97,309.3 232.08,320.35C246.97,343.48 266.89,355.66 278.2,361.37C285.85,365.94 297.77,371.82 313.35,374.99C326.31,377.62 337.51,377.5 345.58,376.78C352.38,375.46 362.1,372.78 372.65,366.97C385.99,359.62 393.43,349.02 394.68,350.07L394.68,350.09Z" style="fill:rgb(199,134,79);fill-rule:nonzero;"/>
                    </g>
                </g>
            </g>
        </g>
    </g>
</svg>
