<?xml version="1.0" encoding="UTF-8" standalone="no"?><!DOCTYPE svg PUBLIC "-//W3C//DTD SVG 1.1//EN" "http://www.w3.org/Graphics/SVG/1.1/DTD/svg11.dtd"><svg width="100%" height="100%" viewBox="0 0 57 57" version="1.1" xmlns="http://www.w3.org/2000/svg" xmlns:xlink="http://www.w3.org/1999/xlink" xml:space="preserve" xmlns:serif="http://www.serif.com/" style="fill-rule:evenodd;clip-rule:evenodd;stroke-linejoin:round;stroke-miterlimit:2;"><path d="M56.693,8.918c-0,-4.922 -3.996,-8.918 -8.918,-8.918l-38.857,0c-4.922,0 -8.918,3.996 -8.918,8.918l0,38.857c0,4.922 3.996,8.918 8.918,8.918l38.857,-0c4.922,-0 8.918,-3.996 8.918,-8.918l-0,-38.857Z" style="fill:#fff;"/><clipPath id="_clip1"><path d="M56.693,8.918c-0,-4.922 -3.996,-8.918 -8.918,-8.918l-38.857,0c-4.922,0 -8.918,3.996 -8.918,8.918l0,38.857c0,4.922 3.996,8.918 8.918,8.918l38.857,-0c4.922,-0 8.918,-3.996 8.918,-8.918l-0,-38.857Z"/></clipPath><g clip-path="url(#_clip1)"><clipPath id="_clip2"><rect id="svgviewer-output.svg" x="8.072" y="8.072" width="40.549" height="40.549"/></clipPath><g clip-path="url(#_clip2)"><path d="M15.609,8.072c-4.079,0 -7.436,3.365 -7.436,7.455l-0,25.639c-0,4.09 3.357,7.455 7.436,7.455l25.576,-0c4.079,-0 7.436,-3.365 7.436,-7.455l-0,-25.638c-0,-4.089 -3.357,-7.454 -7.436,-7.454l-25.576,-0.002Zm16.627,13.406l-3.315,0l-4.48,13.738l3.282,0l4.513,-13.738Zm-9.096,3.781l0,-3.743l-9.637,5.127l-0,3.407l9.637,5.127l0,-3.531l-6.083,-3.329l6.083,-3.058Zm20.151,1.384l-9.692,-5.126l0,3.743l6.189,3.057l-6.189,3.328l0,3.531l9.692,-5.126l-0,-3.407Z" style="fill:#d91629;"/></g></g></svg>