<?xml version="1.0" encoding="UTF-8" standalone="no"?><!DOCTYPE svg PUBLIC "-//W3C//DTD SVG 1.1//EN" "http://www.w3.org/Graphics/SVG/1.1/DTD/svg11.dtd"><svg width="100%" height="100%" viewBox="0 0 57 57" version="1.1" xmlns="http://www.w3.org/2000/svg" xmlns:xlink="http://www.w3.org/1999/xlink" xml:space="preserve" xmlns:serif="http://www.serif.com/" style="fill-rule:evenodd;clip-rule:evenodd;stroke-linejoin:round;stroke-miterlimit:2;"><path d="M56.693,8.918c-0,-4.922 -3.996,-8.918 -8.918,-8.918l-38.857,0c-4.922,0 -8.918,3.996 -8.918,8.918l0,38.857c0,4.922 3.996,8.918 8.918,8.918l38.857,-0c4.922,-0 8.918,-3.996 8.918,-8.918l-0,-38.857Z" style="fill:#fff;"/><clipPath id="_clip1"><path d="M56.693,8.918c-0,-4.922 -3.996,-8.918 -8.918,-8.918l-38.857,0c-4.922,0 -8.918,3.996 -8.918,8.918l0,38.857c0,4.922 3.996,8.918 8.918,8.918l38.857,-0c4.922,-0 8.918,-3.996 8.918,-8.918l-0,-38.857Z"/></clipPath><g clip-path="url(#_clip1)"><path d="M8.873,8.873l0,38.947l38.947,-0l-0,-38.947l-38.947,0Zm12.775,15.44l0.052,2.389l3.098,0l-0,-4.847l3.289,0l-0,12.983l-3.289,-0l-0,-4.847l-3.098,-0l-0.052,2.371l-0.052,2.389l-1.593,0.052l-1.61,0.052l0,-13.017l1.61,0.052l1.593,0.052l0.052,2.371Zm17.707,-2.371l0,12.809l-4.777,0.052l-4.76,0.035l-0,-12.983l4.76,0.035l4.777,0.052Z" style="fill-rule:nonzero;"/><path d="M39.361,21.944l-9.55,-0.094l0.015,12.993l9.512,-0.109l0.023,-12.79Z" style="fill:#32c766;"/></g></svg>