<?xml version="1.0" encoding="UTF-8" standalone="no"?><!DOCTYPE svg PUBLIC "-//W3C//DTD SVG 1.1//EN" "http://www.w3.org/Graphics/SVG/1.1/DTD/svg11.dtd"><svg width="100%" height="100%" viewBox="0 0 57 57" version="1.1" xmlns="http://www.w3.org/2000/svg" xmlns:xlink="http://www.w3.org/1999/xlink" xml:space="preserve" xmlns:serif="http://www.serif.com/" style="fill-rule:evenodd;clip-rule:evenodd;stroke-linejoin:round;stroke-miterlimit:2;"><path d="M56.693,8.918c-0,-4.922 -3.996,-8.918 -8.918,-8.918l-38.857,0c-4.922,0 -8.918,3.996 -8.918,8.918l0,38.857c0,4.922 3.996,8.918 8.918,8.918l38.857,-0c4.922,-0 8.918,-3.996 8.918,-8.918l-0,-38.857Z" style="fill:#fff;"/><clipPath id="_clip1"><path d="M56.693,8.918c-0,-4.922 -3.996,-8.918 -8.918,-8.918l-38.857,0c-4.922,0 -8.918,3.996 -8.918,8.918l0,38.857c0,4.922 3.996,8.918 8.918,8.918l38.857,-0c4.922,-0 8.918,-3.996 8.918,-8.918l-0,-38.857Z"/></clipPath><g clip-path="url(#_clip1)"><clipPath id="_clip2"><rect id="google-meet-icon-2020-.svg" x="6.854" y="10.662" width="42.985" height="35.368"/></clipPath><g clip-path="url(#_clip2)"><path d="M31.168,28.346l4.19,4.79l5.634,3.6l0.983,-8.36l-0.983,-8.174l-5.742,3.164l-4.082,4.98Z" style="fill:#00832d;fill-rule:nonzero;"/><path d="M6.854,35.96l-0,7.123c-0,1.628 1.319,2.947 2.947,2.947l7.123,-0l1.473,-5.384l-1.473,-4.686l-4.888,-1.474l-5.182,1.474Z" style="fill:#0066da;fill-rule:nonzero;"/><path d="M16.924,10.663l-10.07,10.07l5.182,1.473l4.888,-1.473l1.449,-4.622l-1.449,-5.448Z" style="fill:#e94235;fill-rule:nonzero;"/><rect x="6.854" y="20.733" width="10.07" height="15.227" style="fill:#2684fc;fill-rule:nonzero;"/><path d="M47.427,14.927l-6.435,5.275l0,16.534l6.465,5.3c0.967,0.757 2.382,0.067 2.382,-1.164l0,-24.806c0,-1.245 -1.447,-1.928 -2.412,-1.139Zm-16.259,13.419l0,7.614l-14.244,0l-0,10.07l21.121,-0c1.629,-0 2.947,-1.319 2.947,-2.947l0,-6.347l-9.824,-8.39Z" style="fill:#00ac47;fill-rule:nonzero;"/><path d="M38.045,10.663l-21.121,0l-0,10.07l14.244,-0l0,7.613l9.824,-8.139l0,-6.597c0,-1.628 -1.318,-2.947 -2.947,-2.947Z" style="fill:#ffba00;fill-rule:nonzero;"/></g></g></svg>