<svg viewBox="0 0 7 7" height="24" width="24" xmlns="http://www.w3.org/2000/svg"
    xml:space="preserve"
    style="fill-rule:evenodd;clip-rule:evenodd;stroke-linejoin:round;stroke-miterlimit:2">
  <path d="M7.019 1.104C7.019.495 6.524 0 5.915 0H1.104C.495 0 0 .495 0 1.104v4.855c0 .609.495 1.104 1.104 1.104h4.811c.609 0 1.104-.495 1.104-1.104z" style="fill:#fff"/>
  <clipPath id="a">
    <path d="M7.019 1.104C7.019.495 6.524 0 5.915 0H1.104C.495 0 0 .495 0 1.104v4.855c0 .609.495 1.104 1.104 1.104h4.811c.609 0 1.104-.495 1.104-1.104z"/>
  </clipPath>
  <g clip-path="url(#a)">
    <path d="M4.799 5.106a4 4 0 0 1-.412-.223l-.111-.065-.267-.158v-.103a4 4 0 0 1 .236-.183l.151-.11.081-.059q.206-.154.408-.314.28-.22.566-.433c-.535.29-1.068.585-1.592.895q-.407.24-.818.475l-.111.064-.099.057-.183.111c-.119.067-.186.065-.321.046a3 3 0 0 1-.365-.189l-.101-.057q-.146-.082-.29-.166l-.077-.044c-.396-.23-.396-.23-.472-.368-.015-.111-.014-.22-.013-.332v-.097l.001-.205.001-.312v-.293l.001-.089.001-.077a.5.5 0 0 1 .077-.209c.078-.056.078-.056.175-.111l.22-.125.218-.124.108-.061q.145-.084.285-.176c.155-.092.255-.132.437-.124.112.041.211.099.313.161l.08.047q.22.129.431.273c-.053.156-.181.23-.309.322l-.149.109-.079.058q-.208.155-.412.315l-.077.061q-.212.163-.416.336l.067-.039.205-.117.24-.139.609-.352.222-.127.111-.064.558-.325.112-.065.207-.123q.139-.081.278-.159l.092-.053a.8.8 0 0 1 .368-.127c.191.065.357.167.53.272l.107.064.21.126q.1.06.201.118l.094.053.082.046c.078.058.1.098.136.187.009.072.009.072.01.149l.001.088.001.094v.097l.001.204.003.312v.198l.001.094c-.001.137-.005.22-.075.34a1.3 1.3 0 0 1-.271.188l-.112.062-.117.063-.228.124-.11.06a3 3 0 0 0-.247.157.47.47 0 0 1-.402.071" style="fill:#012b7c;fill-rule:nonzero"/>
  </g>
</svg>