<?xml version="1.0" encoding="UTF-8" standalone="no"?><!DOCTYPE svg PUBLIC "-//W3C//DTD SVG 1.1//EN" "http://www.w3.org/Graphics/SVG/1.1/DTD/svg11.dtd"><svg width="100%" height="100%" viewBox="0 0 57 57" version="1.1" xmlns="http://www.w3.org/2000/svg" xmlns:xlink="http://www.w3.org/1999/xlink" xml:space="preserve" xmlns:serif="http://www.serif.com/" style="fill-rule:evenodd;clip-rule:evenodd;stroke-linejoin:round;stroke-miterlimit:2;"><path d="M56.693,8.918c-0,-4.922 -3.996,-8.918 -8.918,-8.918l-38.857,0c-4.922,0 -8.918,3.996 -8.918,8.918l0,38.857c0,4.922 3.996,8.918 8.918,8.918l38.857,-0c4.922,-0 8.918,-3.996 8.918,-8.918l-0,-38.857Z" style="fill:#fff;"/><clipPath id="_clip1"><path d="M56.693,8.918c-0,-4.922 -3.996,-8.918 -8.918,-8.918l-38.857,0c-4.922,0 -8.918,3.996 -8.918,8.918l0,38.857c0,4.922 3.996,8.918 8.918,8.918l38.857,-0c4.922,-0 8.918,-3.996 8.918,-8.918l-0,-38.857Z"/></clipPath><g clip-path="url(#_clip1)"><circle cx="29.393" cy="16.946" r="5.321" style="fill:#7b83eb;"/><path d="M29.013,18.086l-4.818,0l0.023,0.106l0.003,0.009l0.025,0.098c0.723,2.743 3.517,4.451 6.287,3.845l0,-2.538c-0.002,-0.833 -0.687,-1.517 -1.52,-1.52Z" style="fill-opacity:0.1;fill-rule:nonzero;"/><path d="M27.873,19.226l-3.287,0c0.879,1.854 2.755,3.041 4.807,3.041l0,-1.521c-0.002,-0.833 -0.687,-1.517 -1.52,-1.52Z" style="fill-opacity:0.2;fill-rule:nonzero;"/><circle cx="41.364" cy="18.656" r="3.99" style="fill:#5059c9;"/><path d="M44.784,23.786l-8.962,0c-0.4,0 -0.73,0.33 -0.73,0.73l0,9.246c-0.051,2.747 1.845,5.177 4.523,5.796c0.385,0.08 0.778,0.121 1.172,0.121c3.129,0 5.705,-2.574 5.707,-5.703l-0,-8.48c-0,-0.938 -0.772,-1.71 -1.71,-1.71Z" style="fill:#5059c9;fill-rule:nonzero;"/><path d="M38.513,25.496l0,10.831c0,0.001 0,0.003 0,0.005c0,5 -4.114,9.114 -9.114,9.114c-3.253,0 -6.269,-1.741 -7.895,-4.559c-0.219,-0.365 -0.41,-0.746 -0.57,-1.14c-0.149,-0.372 -0.275,-0.753 -0.376,-1.14c-0.188,-0.746 -0.284,-1.511 -0.285,-2.28l-0,-10.831c-0,-0 -0,-0.001 -0,-0.002c-0,-0.937 0.771,-1.708 1.708,-1.708c0,0 0.001,0 0.002,0l14.82,0c0.001,0 0.002,0 0.003,0c0.936,0 1.707,0.771 1.707,1.708c0,0.001 0,0.002 0,0.002Z" style="fill:#7b83eb;fill-rule:nonzero;"/><path d="M27.873,19.226l-3.287,0c0.879,1.854 2.755,3.041 4.807,3.041l0,-1.521c-0.002,-0.833 -0.687,-1.517 -1.52,-1.52Z" style="fill-opacity:0.2;fill-rule:nonzero;"/><path d="M30.533,23.786l0,14.445c0,0.705 -0.496,1.321 -1.186,1.47c-0.107,0.032 -0.218,0.048 -0.33,0.046l-8.083,-0c-0.149,-0.372 -0.275,-0.753 -0.376,-1.14c-0.188,-0.746 -0.284,-1.511 -0.285,-2.28l-0,-10.831c-0,-0 -0,-0.001 -0,-0.002c-0,-0.937 0.771,-1.708 1.708,-1.708c0,0 0.001,0 0.002,0l8.55,0Z" style="fill-opacity:0.1;fill-rule:nonzero;"/><path d="M29.393,23.786l0,15.585c0.002,0.112 -0.014,0.223 -0.046,0.33c-0.149,0.69 -0.765,1.186 -1.47,1.186l-6.373,-0c-0.219,-0.365 -0.41,-0.746 -0.57,-1.14c-0.149,-0.372 -0.275,-0.753 -0.376,-1.14c-0.188,-0.746 -0.284,-1.511 -0.285,-2.28l-0,-10.831c-0,-0 -0,-0.001 -0,-0.002c-0,-0.937 0.771,-1.708 1.708,-1.708c0,0 0.001,0 0.002,0l7.41,0Z" style="fill-opacity:0.2;fill-rule:nonzero;"/><path d="M29.393,23.786l0,13.305c-0.004,0.83 -0.686,1.512 -1.516,1.516l-7.319,-0c-0.188,-0.746 -0.284,-1.511 -0.285,-2.28l-0,-10.831c-0,-0 -0,-0.001 -0,-0.002c-0,-0.937 0.771,-1.708 1.708,-1.708c0,0 0.001,0 0.002,0l7.41,0Z" style="fill-opacity:0.2;fill-rule:nonzero;"/><path d="M21.983,23.786c-0.001,0 -0.002,0 -0.002,0c-0.937,0 -1.708,0.771 -1.708,1.708c-0,0.001 -0,0.002 -0,0.002l-0,10.831c0.001,0.769 0.097,1.534 0.285,2.28l6.179,-0c0.83,-0.004 1.512,-0.686 1.516,-1.516l0,-13.305l-6.27,0Z" style="fill-opacity:0.2;fill-rule:nonzero;"/><path d="M11.532,19.226l15.201,0c0.834,0 1.52,0.686 1.52,1.52l0,15.201c0,0.834 -0.686,1.52 -1.52,1.52l-15.201,-0c-0.834,-0 -1.52,-0.686 -1.52,-1.52l0,-15.201c0,-0.834 0.686,-1.52 1.52,-1.52Z" style="fill:#4b53bc;fill-rule:nonzero;"/><path d="M23.67,24.898l-3.409,-0l0,9.143l-2.236,-0l-0,-9.143l-3.43,-0l0,-2.246l9.075,-0l0,2.246Z" style="fill:#fff;fill-rule:nonzero;"/><rect x="10.012" y="10.106" width="36.481" height="36.481" style="fill:none;fill-rule:nonzero;"/></g></svg>