<?xml version="1.0" encoding="UTF-8" standalone="no"?><!DOCTYPE svg PUBLIC "-//W3C//DTD SVG 1.1//EN" "http://www.w3.org/Graphics/SVG/1.1/DTD/svg11.dtd"><svg width="100%" height="100%" viewBox="0 0 57 57" version="1.1" xmlns="http://www.w3.org/2000/svg" xmlns:xlink="http://www.w3.org/1999/xlink" xml:space="preserve" xmlns:serif="http://www.serif.com/" style="fill-rule:evenodd;clip-rule:evenodd;stroke-linejoin:round;stroke-miterlimit:2;"><path d="M56.693,8.918c-0,-4.922 -3.996,-8.918 -8.918,-8.918l-38.857,0c-4.922,0 -8.918,3.996 -8.918,8.918l0,38.857c0,4.922 3.996,8.918 8.918,8.918l38.857,-0c4.922,-0 8.918,-3.996 8.918,-8.918l-0,-38.857Z" style="fill:#fff;"/><clipPath id="_clip1"><path d="M56.693,8.918c-0,-4.922 -3.996,-8.918 -8.918,-8.918l-38.857,0c-4.922,0 -8.918,3.996 -8.918,8.918l0,38.857c0,4.922 3.996,8.918 8.918,8.918l38.857,-0c4.922,-0 8.918,-3.996 8.918,-8.918l-0,-38.857Z"/></clipPath><g clip-path="url(#_clip1)"><path d="M28.346,46.587c10.075,0 18.241,-8.167 18.241,-18.241c0,-10.074 -8.166,-18.24 -18.241,-18.24c-10.074,-0 -18.24,8.166 -18.24,18.24c-0,10.074 8.166,18.241 18.24,18.241Z" style="fill:#2196f3;fill-rule:nonzero;"/><path d="M20.81,33.56l12.064,-0l-0,-8.846c-0,-1.333 -1.08,-2.413 -2.413,-2.413l-12.064,-0l-0,8.846c-0,1.333 1.08,2.413 2.413,2.413Zm13.671,-3.217l4.826,3.217l-0,-11.259l-4.825,3.217l-0.001,4.825Z" style="fill:#fff;"/></g></svg>